<svg width="24" height="24" viewBox="0 0 24 24" fill="none" xmlns="http://www.w3.org/2000/svg">
<path d="M14.1659 16.3317V12C14.1655 11.6555 14.0285 11.3251 13.7849 11.0815C13.5413 10.8379 13.2109 10.7008 12.8664 10.7005H3.33662C2.99207 10.7008 2.66174 10.8379 2.41811 11.0815C2.17448 11.3251 2.03745 11.6555 2.03711 12V16.3317C2.03745 16.6763 2.17448 17.0066 2.41811 17.2502C2.66174 17.4939 2.99207 17.6309 3.33662 17.6312H12.8664C13.2109 17.6309 13.5413 17.4939 13.7849 17.2502C14.0285 17.0066 14.1655 16.6763 14.1659 16.3317ZM2.90345 16.3317V12C2.90345 11.8851 2.94909 11.7749 3.03032 11.6937C3.11156 11.6125 3.22174 11.5668 3.33662 11.5668H12.8664C12.9813 11.5668 13.0914 11.6125 13.1727 11.6937C13.2539 11.7749 13.2995 11.8851 13.2995 12V16.3317C13.2995 16.4466 13.2539 16.5568 13.1727 16.638C13.0914 16.7192 12.9813 16.7649 12.8664 16.7649H3.33662C3.22174 16.7649 3.11156 16.7192 3.03032 16.638C2.94909 16.5568 2.90345 16.4466 2.90345 16.3317ZM21.8902 20.0375C21.9539 19.9419 21.9771 19.8249 21.9546 19.7122C21.9321 19.5996 21.8658 19.5004 21.7702 19.4367C21.6746 19.3729 21.5576 19.3497 21.4449 19.3722C21.3323 19.3947 21.2331 19.4611 21.1694 19.5567L20.2303 20.9653V15.4654C20.2303 15.3505 20.1846 15.2403 20.1034 15.1591C20.0222 15.0778 19.912 15.0322 19.7971 15.0322C19.6822 15.0322 19.572 15.0778 19.4908 15.1591C19.4096 15.2403 19.3639 15.3505 19.3639 15.4654V20.9653L18.4248 19.5567C18.3932 19.5093 18.3527 19.4687 18.3054 19.4371C18.2581 19.4054 18.2051 19.3834 18.1493 19.3722C18.0935 19.3611 18.036 19.3611 17.9802 19.3721C17.9244 19.3832 17.8713 19.4051 17.824 19.4367C17.7767 19.4683 17.736 19.5088 17.7044 19.5561C17.6727 19.6034 17.6507 19.6564 17.6396 19.7122C17.6284 19.768 17.6284 19.8255 17.6395 19.8813C17.6505 19.9371 17.6724 19.9902 17.704 20.0375L19.435 22.6339L19.4358 22.6352L19.4367 22.6365C19.4498 22.6541 19.4643 22.6706 19.48 22.6859C19.4861 22.6933 19.4913 22.7006 19.4982 22.7076C19.5128 22.7209 19.5283 22.7332 19.5446 22.7444C19.5493 22.7478 19.5519 22.753 19.5567 22.7565C19.5615 22.76 19.5684 22.7608 19.574 22.7643C19.5881 22.7731 19.6027 22.781 19.6178 22.7881C19.6273 22.7925 19.6368 22.7951 19.6464 22.799L19.649 22.7998C19.6606 22.8041 19.6715 22.8098 19.6836 22.8128C19.719 22.8227 19.7556 22.8281 19.7923 22.8288L19.7971 22.8293H19.798L19.8023 22.8288C19.8392 22.8282 19.8759 22.8228 19.9115 22.8128C19.9236 22.8098 19.9344 22.8041 19.9461 22.7998L19.9487 22.7985L19.9773 22.7881C19.9925 22.7811 20.0072 22.7731 20.0215 22.7643C20.0267 22.7608 20.0327 22.76 20.0384 22.7565C20.044 22.753 20.0453 22.7478 20.0501 22.7444C20.0665 22.7332 20.0821 22.7209 20.0969 22.7076C20.1038 22.7006 20.1085 22.6933 20.115 22.6859C20.1308 22.6704 20.1452 22.6538 20.1584 22.6361L20.1588 22.6352L20.1601 22.6335L21.8902 20.0375Z" fill="#E31837"/>
<path d="M4.20288 9.83412C4.31777 9.83412 4.42794 9.78849 4.50918 9.70725C4.59042 9.62602 4.63605 9.51584 4.63605 9.40095V5.06925C4.63697 4.26534 4.95673 3.49463 5.52517 2.92618C6.09362 2.35773 6.86434 2.03797 7.66825 2.03706H15.0321V4.20291C15.0328 4.77712 15.2612 5.32761 15.6673 5.73364C16.0733 6.13966 16.6238 6.36807 17.198 6.36876H19.3638V13.7327C19.3638 13.8475 19.4095 13.9577 19.4907 14.039C19.572 14.1202 19.6821 14.1658 19.797 14.1658C19.9119 14.1658 20.0221 14.1202 20.1033 14.039C20.1846 13.9577 20.2302 13.8475 20.2302 13.7327V5.93559C20.2302 5.92649 20.2259 5.91826 20.225 5.9096C20.2226 5.87029 20.2147 5.83152 20.2016 5.79438C20.1968 5.78051 20.1934 5.76709 20.1873 5.75409C20.1672 5.70878 20.1393 5.6673 20.105 5.6315L20.1028 5.62934L15.772 1.29763L15.7698 1.29633C15.7343 1.2621 15.6931 1.23425 15.6481 1.21403C15.634 1.20822 15.6195 1.20316 15.6048 1.19887C15.569 1.18646 15.5317 1.17889 15.4939 1.17635C15.4839 1.17591 15.4753 1.17072 15.4653 1.17072H7.66825C6.63464 1.17186 5.6437 1.58297 4.91283 2.31384C4.18196 3.0447 3.77086 4.03565 3.76971 5.06925V9.40095C3.76971 9.51584 3.81535 9.62602 3.89658 9.70725C3.97782 9.78849 4.088 9.83412 4.20288 9.83412ZM17.198 5.50242C16.8534 5.50208 16.5231 5.36505 16.2795 5.12142C16.0359 4.87779 15.8988 4.54745 15.8985 4.20291V2.64956L18.7513 5.50242H17.198ZM17.4657 21.7441C17.1053 21.8894 16.7202 21.9637 16.3317 21.9629H7.66825C6.86434 21.962 6.09362 21.6422 5.52517 21.0738C4.95673 20.5053 4.63697 19.7346 4.63605 18.9307C4.63605 18.8158 4.59042 18.7056 4.50918 18.6244C4.42794 18.5432 4.31777 18.4975 4.20288 18.4975C4.088 18.4975 3.97782 18.5432 3.89658 18.6244C3.81535 18.7056 3.76971 18.8158 3.76971 18.9307C3.77086 19.9643 4.18196 20.9552 4.91283 21.6861C5.6437 22.417 6.63464 22.8281 7.66825 22.8292H16.3317C16.8313 22.8302 17.3264 22.7346 17.7897 22.5477C17.8425 22.5264 17.8905 22.4949 17.9311 22.4551C17.9717 22.4153 18.0041 22.3678 18.0263 22.3154C18.0486 22.2631 18.0603 22.2069 18.0609 22.15C18.0614 22.0931 18.0507 22.0367 18.0295 21.9839C18.0082 21.9311 17.9767 21.8831 17.9369 21.8425C17.897 21.8019 17.8496 21.7695 17.7972 21.7473C17.7449 21.725 17.6887 21.7133 17.6318 21.7127C17.5749 21.7122 17.5185 21.7229 17.4657 21.7441ZM6.12919 12.0455C6.07828 12.02 6.02286 12.0048 5.96609 12.0008C5.90931 11.9968 5.8523 12.004 5.79832 12.022C5.74433 12.04 5.69443 12.0685 5.65145 12.1058C5.60848 12.1432 5.57329 12.1886 5.54788 12.2395L5.06922 13.1968L4.59057 12.2395C4.56514 12.1886 4.52994 12.1432 4.48696 12.1059C4.44399 12.0686 4.39408 12.0401 4.3401 12.0221C4.28612 12.0041 4.22912 11.9969 4.17236 12.0009C4.11559 12.0049 4.06017 12.02 4.00926 12.0455C3.95834 12.0709 3.91294 12.1061 3.87563 12.1491C3.83833 12.192 3.80985 12.2419 3.79183 12.2959C3.77381 12.3499 3.7666 12.4069 3.77061 12.4637C3.77462 12.5204 3.78977 12.5759 3.81519 12.6268L4.58537 14.1658L3.81606 15.7049C3.76886 15.8071 3.76328 15.9236 3.80053 16.0299C3.83777 16.1361 3.9149 16.2236 4.01558 16.274C4.11626 16.3243 4.23259 16.3335 4.33992 16.2995C4.44724 16.2656 4.53714 16.1912 4.59057 16.0921L5.06922 15.1348L5.54788 16.0921C5.59923 16.195 5.68932 16.2732 5.79834 16.3096C5.90736 16.346 6.02637 16.3376 6.12919 16.2862C6.23201 16.2348 6.31022 16.1447 6.34662 16.0357C6.38301 15.9267 6.3746 15.8077 6.32325 15.7049L5.55307 14.1658L6.32282 12.6268C6.34827 12.5759 6.36344 12.5204 6.36746 12.4637C6.37148 12.4069 6.36428 12.3499 6.34625 12.2959C6.32823 12.2419 6.29975 12.192 6.26243 12.149C6.22511 12.1061 6.17969 12.0709 6.12876 12.0455H6.12919ZM8.96776 15.4653H7.66825V12.4331C7.66825 12.3183 7.62261 12.2081 7.54137 12.1268C7.46014 12.0456 7.34996 12 7.23508 12C7.12019 12 7.01001 12.0456 6.92878 12.1268C6.84754 12.2081 6.8019 12.3183 6.8019 12.4331V15.8985C6.8019 16.0134 6.84754 16.1236 6.92878 16.2048C7.01001 16.286 7.12019 16.3317 7.23508 16.3317H8.96776C9.08264 16.3317 9.19282 16.286 9.27406 16.2048C9.35529 16.1236 9.40093 16.0134 9.40093 15.8985C9.40093 15.7836 9.35529 15.6734 9.27406 15.5922C9.19282 15.511 9.08264 15.4653 8.96776 15.4653Z" fill="#E31837"/>
<path d="M11.1337 12.8663H12.0001C12.115 12.8663 12.2251 12.8207 12.3064 12.7395C12.3876 12.6582 12.4333 12.5481 12.4333 12.4332C12.4333 12.3183 12.3876 12.2081 12.3064 12.1269C12.2251 12.0456 12.115 12 12.0001 12H11.1337C10.7891 12 10.4586 12.1369 10.2148 12.3806C9.97114 12.6243 9.83423 12.9549 9.83423 13.2995C9.83423 13.6442 9.97114 13.9747 10.2148 14.2184C10.4586 14.4621 10.7891 14.599 11.1337 14.599C11.2486 14.599 11.3588 14.6447 11.44 14.7259C11.5213 14.8071 11.5669 14.9173 11.5669 15.0322C11.5669 15.1471 11.5213 15.2573 11.44 15.3385C11.3588 15.4197 11.2486 15.4654 11.1337 15.4654H10.2674C10.1525 15.4654 10.0423 15.511 9.9611 15.5922C9.87987 15.6735 9.83423 15.7836 9.83423 15.8985C9.83423 16.0134 9.87987 16.1236 9.9611 16.2048C10.0423 16.2861 10.1525 16.3317 10.2674 16.3317H11.1337C11.4784 16.3317 11.8089 16.1948 12.0526 15.9511C12.2963 15.7074 12.4333 15.3768 12.4333 15.0322C12.4333 14.6875 12.2963 14.357 12.0526 14.1133C11.8089 13.8696 11.4784 13.7327 11.1337 13.7327C11.0189 13.7327 10.9087 13.687 10.8274 13.6058C10.7462 13.5246 10.7006 13.4144 10.7006 13.2995C10.7006 13.1846 10.7462 13.0744 10.8274 12.9932C10.9087 12.912 11.0189 12.8663 11.1337 12.8663Z" fill="#E31837"/>
</svg>
