<svg width="16" height="16" viewBox="0 0 16 16" fill="none" xmlns="http://www.w3.org/2000/svg">
<path d="M5.99922 8.66858H4.66625C4.48948 8.66858 4.31996 8.59836 4.19497 8.47337C4.06998 8.34838 3.99976 8.17886 3.99976 8.0021C3.99976 7.82533 4.06998 7.65581 4.19497 7.53082C4.31996 7.40583 4.48948 7.33561 4.66625 7.33561H5.99922C6.17598 7.33561 6.3455 7.40583 6.47049 7.53082C6.59549 7.65581 6.6657 7.82533 6.6657 8.0021C6.6657 8.17886 6.59549 8.34838 6.47049 8.47337C6.3455 8.59836 6.17598 8.66858 5.99922 8.66858ZM9.33165 5.33615C9.33165 5.15939 9.26143 4.98987 9.13644 4.86488C9.01145 4.73989 8.84193 4.66967 8.66516 4.66967H4.66625C4.48948 4.66967 4.31996 4.73989 4.19497 4.86488C4.06998 4.98987 3.99976 5.15939 3.99976 5.33615C3.99976 5.51292 4.06998 5.68244 4.19497 5.80743C4.31996 5.93242 4.48948 6.00264 4.66625 6.00264H8.66516C8.84193 6.00264 9.01145 5.93242 9.13644 5.80743C9.26143 5.68244 9.33165 5.51292 9.33165 5.33615ZM1.59375 14.6136L3.72117 13.7139C4.27968 14.0321 4.87812 14.2744 5.50069 14.4344C5.58597 14.4577 5.67505 14.4638 5.76273 14.4524C5.85041 14.441 5.93494 14.4122 6.01139 14.3678C6.08785 14.3234 6.15471 14.2642 6.20807 14.1937C6.26143 14.1232 6.30023 14.0428 6.3222 13.9572C6.34418 13.8715 6.34889 13.7823 6.33607 13.6949C6.32325 13.6074 6.29314 13.5233 6.24751 13.4476C6.20188 13.3718 6.14164 13.3059 6.07029 13.2537C5.99894 13.2015 5.91792 13.164 5.83193 13.1434C5.22983 12.9883 4.65602 12.7391 4.13172 12.4049C4.04048 12.3473 3.93666 12.3125 3.8291 12.3035C3.72153 12.2946 3.6134 12.3118 3.51389 12.3536L2.43019 12.8128L2.78609 11.7377C2.82145 11.6317 2.82948 11.5184 2.80944 11.4085C2.7894 11.2985 2.74194 11.1953 2.67145 11.1086C2.10996 10.4151 1.71027 9.60499 1.50152 8.73741C1.29276 7.86984 1.28021 6.96662 1.46476 6.09358C1.64931 5.22054 2.02632 4.39967 2.56831 3.6908C3.11031 2.98192 3.80364 2.4029 4.59776 1.99594C5.39189 1.58897 6.26681 1.36431 7.15877 1.33832C8.05073 1.31234 8.93724 1.48569 9.75372 1.84573C10.5702 2.20578 11.296 2.74345 11.8784 3.41957C12.4607 4.09569 12.8849 4.89322 13.12 5.75404C13.1664 5.92462 13.2786 6.06977 13.432 6.15758C13.5855 6.24538 13.7675 6.26865 13.9381 6.22225C14.1086 6.17585 14.2538 6.06358 14.3416 5.91016C14.4294 5.75673 14.4527 5.57471 14.4063 5.40413C14.1234 4.36691 13.6158 3.4046 12.9195 2.5854C12.2233 1.7662 11.3554 1.11016 10.3773 0.663767C9.39925 0.217376 8.33498 -0.00844077 7.25992 0.00232043C6.18486 0.0130816 5.12532 0.260157 4.15639 0.726038C3.18746 1.19192 2.33286 1.8652 1.65313 2.69818C0.973412 3.53115 0.48521 4.50343 0.223125 5.54611C-0.0389597 6.58878 -0.0685128 7.67635 0.13656 8.73172C0.341633 9.78709 0.776313 10.7844 1.4098 11.6531L0.700655 13.7899C0.660257 13.9115 0.655794 14.0422 0.6878 14.1663C0.719806 14.2905 0.786924 14.4027 0.881109 14.4897C0.975295 14.5766 1.09255 14.6345 1.21883 14.6565C1.34511 14.6785 1.47505 14.6636 1.59308 14.6136H1.59375Z" fill="#E31837"/>
<path d="M11.3314 15.9999C10.4087 15.9999 9.50668 15.7263 8.73946 15.2137C7.97224 14.701 7.37426 13.9724 7.02115 13.1199C6.66804 12.2674 6.57565 11.3294 6.75566 10.4244C6.93568 9.51936 7.38001 8.68806 8.03248 8.0356C8.68495 7.38313 9.51625 6.93879 10.4212 6.75877C11.3262 6.57876 12.2643 6.67115 13.1168 7.02426C13.9693 7.37738 14.6979 7.97535 15.2106 8.74257C15.7232 9.5098 15.9968 10.4118 15.9968 11.3345C15.9954 12.5714 15.5034 13.7573 14.6288 14.6319C13.7542 15.5065 12.5683 15.9985 11.3314 15.9999ZM11.3314 8.0021C10.6723 8.0021 10.028 8.19755 9.48002 8.56372C8.93201 8.92989 8.50488 9.45034 8.25266 10.0593C8.00043 10.6682 7.93444 11.3382 8.06302 11.9847C8.1916 12.6311 8.50899 13.2249 8.97504 13.6909C9.44108 14.157 10.0349 14.4743 10.6813 14.6029C11.3277 14.7315 11.9978 14.6655 12.6067 14.4133C13.2156 14.1611 13.7361 13.7339 14.1022 13.1859C14.4684 12.6379 14.6638 11.9936 14.6638 11.3345C14.6628 10.451 14.3114 9.60404 13.6866 8.97932C13.0619 8.35459 12.2149 8.00316 11.3314 8.0021ZM13.1356 13.1387C13.2605 13.0137 13.3307 12.8442 13.3307 12.6675C13.3307 12.4908 13.2605 12.3213 13.1356 12.1963L11.9979 11.0586V10.0016C11.9979 9.8248 11.9277 9.65527 11.8027 9.53028C11.6777 9.40529 11.5082 9.33507 11.3314 9.33507C11.1547 9.33507 10.9851 9.40529 10.8601 9.53028C10.7352 9.65527 10.6649 9.8248 10.6649 10.0016V11.3345C10.665 11.5113 10.7352 11.6808 10.8602 11.8057L12.1932 13.1387C12.3182 13.2637 12.4877 13.3338 12.6644 13.3338C12.8411 13.3338 13.0106 13.2637 13.1356 13.1387Z" fill="#E31837"/>
</svg>
