<svg width="22" height="23" viewBox="0 0 22 23" fill="none" xmlns="http://www.w3.org/2000/svg">
<path d="M7.92069 6.30171L7.88287 7.7234C7.8768 7.95688 7.92521 8.1884 8.02392 8.39794C8.12263 8.60748 8.26867 8.78873 8.44941 8.92602C8.63015 9.06332 8.84016 9.15253 9.06128 9.18594C9.2824 9.21935 9.50797 9.19595 9.7185 9.11777L11 8.64124L12.2815 9.11777C12.4921 9.19656 12.7179 9.22026 12.9392 9.1868C13.1606 9.15335 13.3707 9.06377 13.5513 8.92587C13.7319 8.78851 13.8778 8.60724 13.9764 8.39774C14.0749 8.18824 14.1233 7.95679 14.1171 7.7234L14.0793 6.30171L14.9091 5.17399C15.1855 4.79809 15.2673 4.30431 15.1257 3.85293C15.0567 3.63097 14.937 3.42993 14.777 3.26724C14.6169 3.10454 14.4214 2.98511 14.2072 2.91927L12.903 2.51749L12.1344 1.34449C12.0079 1.15197 11.8386 0.994523 11.6409 0.885766C11.4432 0.77701 11.2232 0.720213 10.9998 0.720283C10.7764 0.720354 10.5564 0.777291 10.3588 0.886172C10.1612 0.995054 9.99194 1.15261 9.86563 1.34521L9.097 2.51821L7.79212 2.92071C7.57808 2.98665 7.38264 3.10613 7.22272 3.26881C7.06279 3.4315 6.94321 3.63248 6.87431 3.85437C6.80485 4.07653 6.78833 4.31306 6.82619 4.54342C6.86405 4.77377 6.95515 4.99097 7.09156 5.17615L7.92069 6.30315V6.30171ZM9.71987 3.82418C9.87181 3.77746 10.0038 3.67684 10.0932 3.54027L11 2.15596L11.9068 3.54027C11.9962 3.67684 12.1282 3.77674 12.2801 3.82418L13.8194 4.29856L12.8404 5.62824C12.7436 5.75926 12.693 5.92128 12.6974 6.08681L12.7414 7.76365L11.2296 7.20159C11.0807 7.14621 10.918 7.14621 10.769 7.20159L9.25719 7.76437L9.30119 6.08752C9.30546 5.92201 9.25495 5.76003 9.15819 5.62896L8.17919 4.29927L9.7185 3.8249L9.71987 3.82418ZM17.875 14.3754H14.4375V12.9379C14.4375 11.7491 13.5121 10.7817 12.375 10.7817H9.625C8.48787 10.7817 7.5625 11.7491 7.5625 12.9379V13.6567H4.125C2.98787 13.6567 2.0625 14.6241 2.0625 15.8129V19.4067C2.0625 20.5955 2.98787 21.5629 4.125 21.5629H17.875C19.0121 21.5629 19.9375 20.5955 19.9375 19.4067V16.5317C19.9375 15.3429 19.0121 14.3754 17.875 14.3754ZM3.4375 19.4067V15.8129C3.4375 15.4169 3.7455 15.0942 4.125 15.0942H7.5625V20.1254H4.125C3.7455 20.1254 3.4375 19.8027 3.4375 19.4067ZM13.0625 20.1254H8.9375V12.9379C8.9375 12.5419 9.2455 12.2192 9.625 12.2192H12.375C12.7545 12.2192 13.0625 12.5419 13.0625 12.9379V20.1254ZM18.5625 19.4067C18.5625 19.8027 18.2545 20.1254 17.875 20.1254H14.4375V15.8129H17.875C18.2545 15.8129 18.5625 16.1356 18.5625 16.5317V19.4067ZM4.7025 2.06037L5.29787 2.41974C5.37601 2.46713 5.46233 2.49791 5.55188 2.51033C5.64143 2.52275 5.73244 2.51656 5.8197 2.49212C5.90695 2.46768 5.98873 2.42547 6.06034 2.3679C6.13195 2.31034 6.19199 2.23856 6.237 2.15668C6.32816 1.9916 6.35287 1.79542 6.30568 1.61129C6.25849 1.42717 6.14328 1.27018 5.98538 1.17487L5.39 0.815493C5.23218 0.721684 5.04527 0.696945 4.87007 0.746674C4.69486 0.796403 4.54559 0.916563 4.45481 1.08093C4.36404 1.2453 4.33913 1.44053 4.38554 1.62403C4.43194 1.80752 4.54588 1.96438 4.7025 2.06037ZM16.0146 8.88849L16.61 9.24787C16.6881 9.29525 16.7745 9.32604 16.864 9.33846C16.9536 9.35088 17.0446 9.34469 17.1318 9.32025C17.2191 9.29581 17.3009 9.25359 17.3725 9.19603C17.4441 9.13846 17.5041 9.06668 17.5491 8.98481C17.6403 8.81972 17.665 8.62354 17.6178 8.43942C17.5706 8.2553 17.4554 8.09831 17.2975 8.00299L16.7021 7.64362C16.5443 7.54981 16.3574 7.52507 16.1822 7.5748C16.007 7.62453 15.8577 7.74469 15.7669 7.90906C15.6762 8.07343 15.6513 8.26866 15.6977 8.45215C15.7441 8.63565 15.858 8.7925 16.0146 8.88849ZM4.125 5.75043H4.8125C4.99484 5.75043 5.1697 5.67471 5.29864 5.53991C5.42757 5.40512 5.5 5.22231 5.5 5.03168C5.5 4.84106 5.42757 4.65824 5.29864 4.52345C5.1697 4.38866 4.99484 4.31293 4.8125 4.31293H4.125C3.94266 4.31293 3.7678 4.38866 3.63886 4.52345C3.50993 4.65824 3.4375 4.84106 3.4375 5.03168C3.4375 5.22231 3.50993 5.40512 3.63886 5.53991C3.7678 5.67471 3.94266 5.75043 4.125 5.75043ZM16.5 5.03168C16.5 5.22231 16.5724 5.40512 16.7014 5.53991C16.8303 5.67471 17.0052 5.75043 17.1875 5.75043H17.875C18.0573 5.75043 18.2322 5.67471 18.3611 5.53991C18.4901 5.40512 18.5625 5.22231 18.5625 5.03168C18.5625 4.84106 18.4901 4.65824 18.3611 4.52345C18.2322 4.38866 18.0573 4.31293 17.875 4.31293H17.1875C17.0052 4.31293 16.8303 4.38866 16.7014 4.52345C16.5724 4.65824 16.5 4.84106 16.5 5.03168ZM16.3591 2.51606C16.4759 2.51606 16.5942 2.48515 16.7021 2.41974L17.2975 2.06037C17.3763 2.01352 17.4455 1.95083 17.501 1.87592C17.5566 1.801 17.5974 1.71534 17.6212 1.62387C17.6449 1.53239 17.6512 1.4369 17.6395 1.3429C17.6278 1.24891 17.5984 1.15825 17.5531 1.07616C17.5078 0.994075 17.4473 0.922172 17.3753 0.864594C17.3033 0.807016 17.2211 0.7649 17.1334 0.740672C17.0458 0.716444 16.9544 0.710582 16.8646 0.723423C16.7747 0.736264 16.6882 0.767554 16.61 0.815493L16.0146 1.17487C15.883 1.25365 15.78 1.37577 15.7217 1.52219C15.6634 1.6686 15.6532 1.83106 15.6925 1.98422C15.7318 2.13738 15.8186 2.27262 15.9391 2.36883C16.0597 2.46504 16.2074 2.51681 16.3591 2.51606ZM5.29787 7.64362L4.7025 8.00299C4.57085 8.08177 4.46786 8.2039 4.40958 8.35031C4.35131 8.49673 4.34104 8.65919 4.38037 8.81235C4.4197 8.96551 4.50643 9.10074 4.62701 9.19695C4.7476 9.29316 4.89525 9.34493 5.04694 9.34418C5.16381 9.34418 5.28206 9.31327 5.39 9.24787L5.98538 8.88849C6.14199 8.7925 6.25594 8.63565 6.30234 8.45215C6.34874 8.26866 6.32384 8.07343 6.23306 7.90906C6.14229 7.74469 5.99301 7.62453 5.81781 7.5748C5.6426 7.52507 5.4557 7.54981 5.29787 7.64362Z" fill="#6B6C7E"/>
</svg>
