<svg width="18" height="18" viewBox="0 0 18 18" fill="none" xmlns="http://www.w3.org/2000/svg">
<g opacity="0.7">
<path fill-rule="evenodd" clip-rule="evenodd" d="M15.9313 11.4618C16.1937 11.4618 16.4454 11.5664 16.631 11.7527C16.8166 11.9389 16.9209 12.1915 16.9209 12.4549C16.9209 12.7183 16.8166 12.9709 16.631 13.1571C16.4454 13.3434 16.1937 13.448 15.9313 13.448C15.6689 13.4478 15.4174 13.3431 15.2319 13.1569C15.0464 12.9707 14.9421 12.7182 14.942 12.4549C14.9419 12.3245 14.9674 12.1953 15.0171 12.0748C15.0668 11.9543 15.1397 11.8448 15.2316 11.7526C15.3234 11.6604 15.4325 11.5872 15.5526 11.5373C15.6727 11.4874 15.8013 11.4618 15.9313 11.4618ZM2.0669 11.4618C2.32935 11.4618 2.58105 11.5664 2.76663 11.7527C2.95221 11.9389 3.05647 12.1915 3.05647 12.4549C3.05647 12.7183 2.95221 12.9709 2.76663 13.1571C2.58105 13.3434 2.32935 13.448 2.0669 13.448C1.80453 13.4478 1.55298 13.3431 1.36748 13.1569C1.18199 12.9707 1.07772 12.7182 1.07758 12.4549C1.07748 12.3245 1.103 12.1953 1.15268 12.0748C1.20236 11.9543 1.27522 11.8448 1.3671 11.7525C1.45899 11.6603 1.56809 11.5871 1.68816 11.5372C1.80824 11.4874 1.93694 11.4617 2.0669 11.4618ZM5.21759 8.67757H12.7824C12.9897 8.67757 13.0358 8.9615 12.9411 9.23608C12.7389 9.81511 12.2212 10.2035 11.6945 10.2035H6.30553C5.77825 10.2035 5.26056 9.81511 5.0584 9.23608C4.96263 8.9615 5.00974 8.67757 5.21759 8.67757ZM15.8844 7.96035C15.9339 7.95749 15.9825 7.95905 16.0309 7.96269C16.3804 7.98892 16.669 8.16063 16.7863 8.54743C16.9869 9.2075 16.4788 9.97616 15.7954 9.97616H14.7893C14.0722 9.97616 13.8887 9.4878 14.0037 9.14152C14.1867 8.58665 15.133 7.98477 15.8844 7.96035ZM2.1153 7.96035C2.86492 7.98477 3.81257 8.58665 3.99609 9.14152C4.11076 9.4878 3.92724 9.97616 3.20997 9.97616H2.20435C1.52073 9.97616 1.01132 9.2075 1.21348 8.54743C1.33074 8.16037 1.61935 7.98866 1.96828 7.96269C2.01719 7.95877 2.06629 7.95799 2.1153 7.96035ZM8.9991 2.02642C10.1559 2.02772 11.4056 2.0711 12.4627 2.1493C12.8632 2.17917 13.2297 2.41166 13.4764 2.8434L14.7748 5.60761C14.7748 5.60761 11.4607 5.9648 8.9991 5.9648C6.53849 5.9648 3.22343 5.60761 3.22343 5.60761L4.52181 2.8434C4.76849 2.41166 5.13657 2.17917 5.53701 2.1493C6.59414 2.07084 7.84386 2.02746 8.9991 2.02642ZM8.9991 1.12502C7.45559 1.12502 6.77197 1.11853 5.26341 1.3292C4.56478 1.42662 4.0608 1.80692 3.78979 2.31711L2.47924 4.79583H0.790262C0.414156 4.79583 0.1887 5.17198 0.287321 5.53592C0.395002 5.93908 0.516401 6.13806 1.10683 6.27418L1.65274 6.40173C1.43842 6.69085 1.2039 7.01167 0.961101 7.33093C0.516142 7.91697 0 8.85058 0 9.74627V12.6508C0 13.249 0.159191 13.7522 0.639095 13.9403V15.6127C0.638923 15.6899 0.653987 15.7665 0.683419 15.8379C0.712851 15.9093 0.75607 15.9742 0.810588 16.0288C0.865105 16.0834 0.929844 16.1266 1.00108 16.156C1.07231 16.1854 1.14863 16.2003 1.22564 16.2H2.88796C2.96505 16.2004 3.04144 16.1855 3.11277 16.1561C3.18409 16.1268 3.24892 16.0835 3.30355 16.029C3.35818 15.9744 3.40152 15.9095 3.43108 15.8381C3.46064 15.7666 3.47584 15.69 3.47581 15.6127V14.6375C3.47581 14.2392 3.52033 13.8161 3.68055 13.3994C4.13509 12.2141 4.72656 11.3576 5.76195 11.3576H12.2373C13.2727 11.3576 13.8631 12.2143 14.3192 13.3994C14.4779 13.8161 14.5239 14.2392 14.5239 14.6375V15.6127C14.5238 15.6899 14.5388 15.7665 14.5683 15.8379C14.5977 15.9093 14.6409 15.9742 14.6954 16.0288C14.7499 16.0834 14.8147 16.1266 14.8859 16.156C14.9572 16.1854 15.0335 16.2003 15.1105 16.2H16.7744C16.8514 16.2003 16.9277 16.1853 16.9989 16.1559C17.0701 16.1265 17.1348 16.0833 17.1893 16.0287C17.2438 15.9741 17.2871 15.9093 17.3165 15.8379C17.346 15.7665 17.361 15.6899 17.3609 15.6127V13.9403C17.8393 13.7522 18 13.2487 18 12.6508V9.74627C18 8.85058 17.4823 7.91697 17.0384 7.33093C16.7956 7.01167 16.5611 6.69085 16.3467 6.40173L16.8926 6.27418C17.4831 6.13806 17.6045 5.93908 17.7127 5.53592C17.8097 5.17198 17.5858 4.79583 17.2097 4.79583H15.5208L14.2089 2.31711C13.9395 1.80718 13.435 1.42662 12.7366 1.3292C11.2275 1.11853 10.5442 1.12502 8.9991 1.12502Z" fill="#E31837"/>
<path fill-rule="evenodd" clip-rule="evenodd" d="M5.90511 10.8939C4.29471 10.8939 4.14722 12.0392 3.75791 13.0659C3.64557 13.363 2.94518 14.5463 3.22111 14.6921H14.6352C14.9104 14.5463 14.6062 13.9026 14.4939 13.6055C14.1056 12.5788 13.5723 10.8939 12.8835 10.8939L5.90511 10.8939Z" fill="#E31837"/>
</g>
</svg>
