<svg width="18" height="18" viewBox="0 0 18 18" fill="none" xmlns="http://www.w3.org/2000/svg">
<g clip-path="url(#clip0_1124_24366)">
<g opacity="0.7">
<path d="M9.0007 6.43033C8.36499 6.43033 7.74355 6.24177 7.21497 5.88848C6.68639 5.53519 6.27442 5.03305 6.03114 4.44556C5.78786 3.85806 5.72421 3.2116 5.84823 2.58792C5.97226 1.96424 6.27838 1.39135 6.7279 0.941702C7.17742 0.492053 7.75014 0.185838 8.37364 0.06178C8.99713 -0.0622779 9.64341 0.00139307 10.2307 0.244741C10.8181 0.48809 11.32 0.900186 11.6732 1.42892C12.0264 1.95765 12.2149 2.57927 12.2149 3.21517C12.2136 4.06746 11.8745 4.88446 11.272 5.48713C10.6695 6.0898 9.85275 6.42897 9.0007 6.43033ZM10.2864 2.89044H9.32212V1.92589C9.32212 1.84061 9.28826 1.75884 9.22798 1.69854C9.1677 1.63824 9.08595 1.60437 9.0007 1.60437C8.91545 1.60437 8.8337 1.63824 8.77342 1.69854C8.71314 1.75884 8.67928 1.84061 8.67928 1.92589V2.89044H7.71501C7.62976 2.89044 7.54801 2.92431 7.48773 2.98461C7.42745 3.0449 7.39359 3.12668 7.39359 3.21195C7.39359 3.29722 7.42745 3.379 7.48773 3.4393C7.54801 3.4996 7.62976 3.53347 7.71501 3.53347H8.67928V4.49802C8.67928 4.58329 8.71314 4.66507 8.77342 4.72537C8.8337 4.78566 8.91545 4.81954 9.0007 4.81954C9.08595 4.81954 9.1677 4.78566 9.22798 4.72537C9.28826 4.66507 9.32212 4.58329 9.32212 4.49802V3.53347H10.2864C10.3716 3.53347 10.4534 3.4996 10.5137 3.4393C10.574 3.379 10.6078 3.29722 10.6078 3.21195C10.6078 3.12668 10.574 3.0449 10.5137 2.98461C10.4534 2.92431 10.3716 2.89044 10.2864 2.89044ZM13.0056 14.0152L13.7144 16.0044L4.00025 16.071L4.95881 14.0152H13.0056Z" fill="#E31837"/>
<path d="M0.0484556 10.9449C0.124991 10.6539 0.286058 10.3921 0.511303 10.1926C1.14772 9.6621 1.86449 9.03192 2.21484 8.68147H1.19915C0.967703 8.68147 0.745738 8.5895 0.582082 8.4258C0.418426 8.2621 0.326485 8.04006 0.326485 7.80855C0.326485 7.57704 0.418426 7.35501 0.582082 7.19131C0.745738 7.0276 0.967703 6.93564 1.19915 6.93564C1.68128 6.96136 2.57805 6.82632 2.98304 7.13498C3.26911 6.41478 3.61303 5.53382 3.8766 4.85221C3.98728 4.58372 4.16908 4.35052 4.40243 4.17772C4.63578 4.00493 4.91183 3.89908 5.20086 3.87158C5.23536 4.08742 5.29024 4.2995 5.36479 4.50497H5.36157C5.17234 4.50342 4.98693 4.55824 4.82894 4.66245C4.67096 4.76665 4.54756 4.91553 4.47445 5.09013C4.39088 5.31841 3.05054 8.63646 3.02483 8.68147H14.975C14.9493 8.63646 13.6154 5.32805 13.5286 5.09978C13.4566 4.92299 13.3333 4.77184 13.1746 4.66582C13.0159 4.5598 12.8291 4.50378 12.6383 4.50497H12.635C12.7096 4.2995 12.7645 4.08742 12.799 3.87158C13.0891 3.89971 13.366 4.0065 13.5999 4.18043C13.8339 4.35437 14.0159 4.58886 14.1264 4.85864C14.3868 5.53704 14.7307 6.41478 15.0168 7.13498C15.4186 6.8231 16.3282 6.96457 16.8007 6.93564C17.0321 6.93564 17.2541 7.0276 17.4178 7.19131C17.5814 7.35501 17.6733 7.57704 17.6733 7.80855C17.6733 8.04006 17.5814 8.2621 17.4178 8.4258C17.2541 8.5895 17.0321 8.68147 16.8007 8.68147H15.785C16.1386 9.03514 16.8553 9.66531 17.5046 10.2087C17.7207 10.4059 17.8748 10.6617 17.9482 10.9449C18.0414 11.0253 17.9771 14.2694 17.9932 14.4656C17.994 14.7784 17.9035 15.0847 17.7328 15.3469C17.562 15.609 17.3185 15.8156 17.0321 15.9413C16.8289 16.0281 16.6102 16.0729 16.3893 16.0731H13.6893L13.0593 14.3562C13.0368 14.2942 12.9957 14.2405 12.9417 14.2025C12.8876 14.1646 12.8232 14.1442 12.7572 14.144H5.1684C5.10101 14.1439 5.03528 14.1649 4.98048 14.2041C4.92569 14.2433 4.88461 14.2988 4.86305 14.3627L4.27806 16.0731H1.61025C1.38928 16.0729 1.17063 16.0281 0.967402 15.9413C0.680995 15.8153 0.437382 15.6087 0.26619 15.3467C0.0949989 15.0847 0.00360755 14.7786 0.00313345 14.4656C0.0224188 14.2598 -0.0383285 11.0318 0.0484556 10.9449ZM13.0208 12.6908C13.0476 12.7425 13.0883 12.7858 13.1382 12.8158C13.1881 12.8459 13.2453 12.8616 13.3036 12.8612H15.425C15.8512 12.861 16.2599 12.6916 16.5612 12.3901C16.8626 12.0887 17.0319 11.6799 17.0321 11.2536C17.0319 11.1684 16.9979 11.0868 16.9377 11.0265C16.8775 10.9663 16.7959 10.9323 16.7107 10.9321H14.1618C14.1092 10.9323 14.0574 10.9453 14.011 10.9699C13.9645 10.9946 13.9247 11.0301 13.895 11.0736L13.0368 12.3596C13.0037 12.4079 12.9847 12.4644 12.9818 12.5229C12.979 12.5814 12.9925 12.6395 13.0208 12.6908ZM5.11376 11.4337L5.96874 12.7197C5.99842 12.7632 6.03821 12.7987 6.08469 12.8234C6.13116 12.848 6.18292 12.861 6.23552 12.8612H11.7611C11.8137 12.861 11.8655 12.848 11.9119 12.8234C11.9584 12.7987 11.9982 12.7632 12.0279 12.7197L12.8861 11.4337C12.9183 11.3852 12.9368 11.3289 12.9397 11.2707C12.9425 11.2125 12.9296 11.1547 12.9023 11.1033C12.8749 11.0519 12.8342 11.0088 12.7844 10.9787C12.7346 10.9485 12.6775 10.9324 12.6193 10.9321H5.38086C5.32273 10.9326 5.26582 10.9489 5.21614 10.9791C5.16645 11.0092 5.12581 11.0523 5.09851 11.1036C5.0712 11.1549 5.05824 11.2127 5.06098 11.2708C5.06372 11.3288 5.08174 11.3851 5.11376 11.4337ZM2.57452 12.8612H4.69591C4.75378 12.86 4.81029 12.8434 4.8596 12.8131C4.90891 12.7828 4.94924 12.7398 4.97643 12.6887C5.00362 12.6376 5.01668 12.5801 5.01426 12.5223C5.01185 12.4644 4.99404 12.4083 4.96269 12.3596L4.10449 11.0736C4.0748 11.0301 4.03501 10.9946 3.98854 10.9699C3.94207 10.9453 3.89031 10.9323 3.83771 10.9321H1.28882C1.20366 10.9323 1.12205 10.9663 1.06183 11.0265C1.0016 11.0868 0.967656 11.1684 0.967402 11.2536C0.967572 11.6799 1.13695 12.0887 1.4383 12.3901C1.73966 12.6916 2.14833 12.861 2.57452 12.8612ZM17.7328 15.3469L17.6727 17.0361C17.6719 17.2915 17.5701 17.5363 17.3895 17.7169C17.2089 17.8975 16.9642 17.9993 16.7088 18H14.7815C14.5262 17.9992 14.2815 17.8974 14.101 17.7168C13.9204 17.5362 13.8186 17.2915 13.8179 17.0361L13.6893 16.0731H16.3893C16.8487 16.0747 17.3559 15.6097 17.7328 15.3469ZM4.27806 16.0731L4.18067 17.0361C4.1799 17.2915 4.07813 17.5362 3.89758 17.7168C3.71703 17.8974 3.47237 17.9992 3.21704 18H1.28979C1.0344 17.9993 0.789657 17.8975 0.609038 17.7169C0.428419 17.5363 0.326606 17.2915 0.325842 17.0361V15.4318C0.702919 15.6943 1.15085 16.074 1.61025 16.0731H4.27806Z" fill="#E31837"/>
</g>
</g>
<defs>
<clipPath id="clip0_1124_24366">
<rect width="18" height="18" fill="white"/>
</clipPath>
</defs>
</svg>
