<svg width="23" height="22" viewBox="0 0 23 22" fill="none" xmlns="http://www.w3.org/2000/svg">
<path d="M11.0977 4.8166C10.7264 4.8166 10.3633 4.92575 10.0546 5.13025C9.74579 5.33475 9.50513 5.62541 9.36301 5.96548C9.2209 6.30555 9.18371 6.67975 9.25616 7.04077C9.32861 7.40178 9.50744 7.7334 9.77003 7.99367C10.0326 8.25395 10.3672 8.4312 10.7314 8.50301C11.0956 8.57482 11.4732 8.53797 11.8163 8.39711C12.1594 8.25625 12.4526 8.01771 12.6589 7.71165C12.8652 7.4056 12.9754 7.04578 12.9754 6.67769C12.9751 6.18416 12.7773 5.71091 12.4252 5.36194C12.0731 5.01296 11.5956 4.81682 11.0977 4.8166ZM11.0977 7.73311C10.8871 7.73311 10.6813 7.67121 10.5061 7.55524C10.331 7.43927 10.1946 7.27443 10.114 7.08158C10.0334 6.88873 10.0123 6.67652 10.0534 6.47179C10.0945 6.26705 10.1959 6.079 10.3448 5.93139C10.4937 5.78379 10.6834 5.68327 10.89 5.64255C11.0965 5.60182 11.3106 5.62273 11.5052 5.70261C11.6998 5.78249 11.8661 5.91777 11.9831 6.09133C12.1001 6.26489 12.1625 6.46895 12.1625 6.67769C12.1627 6.81635 12.1354 6.95369 12.0819 7.08183C12.0285 7.20998 11.9501 7.32641 11.8511 7.42446C11.7522 7.5225 11.6347 7.60024 11.5055 7.6532C11.3762 7.70617 11.2376 7.73332 11.0977 7.73311ZM11.0977 9.13899C10.1631 9.13263 9.26187 9.48302 8.58086 10.1175C7.89986 10.752 7.49133 11.622 7.43998 12.547C7.43641 12.621 7.44828 12.695 7.47485 12.7643C7.50143 12.8336 7.54213 12.8968 7.59442 12.9498C7.64695 13.0042 7.71001 13.0476 7.77984 13.0774C7.84967 13.1072 7.92483 13.1227 8.00084 13.123H14.1946C14.2706 13.1227 14.3458 13.1072 14.4156 13.0774C14.4854 13.0476 14.5485 13.0042 14.601 12.9498C14.6537 12.8962 14.6946 12.8324 14.7211 12.7624C14.7477 12.6923 14.7594 12.6176 14.7555 12.5429C14.7033 11.6186 14.2944 10.7495 13.6135 10.1158C12.9325 9.48214 12.0317 9.13238 11.0977 9.13899ZM8.2772 12.3173C8.38758 11.6549 8.73173 11.0527 9.2483 10.6183C9.76487 10.184 10.4203 9.9455 11.0977 9.9455C11.7752 9.9455 12.4306 10.184 12.9471 10.6183C13.4637 11.0527 13.8079 11.6549 13.9182 12.3173H8.2772ZM20.0389 17.1513H15.1619V14.7343C15.1612 14.5209 15.0754 14.3163 14.9231 14.1653C14.7708 14.0144 14.5644 13.9293 14.349 13.9287H7.8464C7.63102 13.9293 7.42465 14.0144 7.27235 14.1653C7.12006 14.3163 7.03421 14.5209 7.03357 14.7343V15.9428H2.15658C1.9412 15.9435 1.73483 16.0286 1.58253 16.1795C1.43024 16.3305 1.34439 16.535 1.34375 16.7485V20.7768C1.34439 20.9903 1.43024 21.1948 1.58253 21.3458C1.73483 21.4967 1.9412 21.5818 2.15658 21.5825H20.0389C20.2542 21.5818 20.4606 21.4967 20.6129 21.3458C20.7652 21.1948 20.8511 20.9903 20.8517 20.7768V17.957C20.8511 17.7435 20.7652 17.539 20.6129 17.388C20.4606 17.237 20.2542 17.152 20.0389 17.1513ZM7.03357 20.7768H2.15658V16.7485H7.03357V20.7768ZM14.349 20.7768H7.8464V14.7343H14.349V20.7768ZM20.0389 20.7768H15.1619V17.957H20.0389V20.7768ZM7.11241 7.88578H5.09862C4.99084 7.88578 4.88746 7.84334 4.81124 7.7678C4.73503 7.69225 4.69221 7.58979 4.69221 7.48295C4.69221 7.37611 4.73503 7.27365 4.81124 7.1981C4.88746 7.12256 4.99084 7.08012 5.09862 7.08012H7.11241C7.2202 7.08012 7.32357 7.12256 7.39979 7.1981C7.47601 7.27365 7.51883 7.37611 7.51883 7.48295C7.51883 7.58979 7.47601 7.69225 7.39979 7.7678C7.32357 7.84334 7.2202 7.88578 7.11241 7.88578ZM14.6766 7.48295C14.6766 7.37611 14.7194 7.27365 14.7957 7.1981C14.8719 7.12256 14.9752 7.08012 15.083 7.08012H17.0968C17.2046 7.08012 17.308 7.12256 17.3842 7.1981C17.4604 7.27365 17.5032 7.37611 17.5032 7.48295C17.5032 7.58979 17.4604 7.69225 17.3842 7.7678C17.308 7.84334 17.2046 7.88578 17.0968 7.88578H15.083C14.9752 7.88578 14.8719 7.84334 14.7957 7.7678C14.7194 7.69225 14.6766 7.58979 14.6766 7.48295ZM10.6913 2.70778V1.56132C10.6913 1.45448 10.7341 1.35202 10.8103 1.27647C10.8866 1.20093 10.9899 1.15849 11.0977 1.15849C11.2055 1.15849 11.3089 1.20093 11.3851 1.27647C11.4613 1.35202 11.5041 1.45448 11.5041 1.56132V2.70778C11.5041 2.81462 11.4613 2.91708 11.3851 2.99262C11.3089 3.06817 11.2055 3.11061 11.0977 3.11061C10.9899 3.11061 10.8866 3.06817 10.8103 2.99262C10.7341 2.91708 10.6913 2.81462 10.6913 2.70778ZM4.25287 4.65386C4.27364 4.6051 4.3039 4.56087 4.34193 4.5237C4.37995 4.48654 4.42499 4.45717 4.47447 4.43726C4.52395 4.41736 4.57691 4.40732 4.63031 4.40771C4.68371 4.4081 4.73651 4.41892 4.78568 4.43955L7.0673 5.39507C7.11682 5.41543 7.16179 5.44529 7.19962 5.48295C7.23744 5.5206 7.26738 5.5653 7.2877 5.61447C7.30802 5.66364 7.31833 5.71632 7.31803 5.76945C7.31772 5.82259 7.30682 5.87514 7.28593 5.92408C7.26505 5.97302 7.23461 6.01738 7.19635 6.05461C7.1581 6.09184 7.1128 6.1212 7.06305 6.141C7.0133 6.1608 6.96009 6.17065 6.90648 6.16997C6.85287 6.1693 6.79993 6.15813 6.7507 6.13709L4.46868 5.18157C4.3695 5.13991 4.29105 5.06094 4.25059 4.96199C4.21012 4.86304 4.21094 4.75221 4.25287 4.65386ZM14.9123 8.96215C14.9544 8.86384 15.034 8.78609 15.1339 8.74598C15.2337 8.70587 15.3455 8.70669 15.4447 8.74825L17.7268 9.70376C17.7772 9.72352 17.8231 9.75307 17.8618 9.79067C17.9005 9.82827 17.9312 9.87317 17.9521 9.92272C17.9731 9.97226 17.9838 10.0255 17.9837 10.0792C17.9836 10.1329 17.9726 10.186 17.9515 10.2355C17.9303 10.285 17.8994 10.3297 17.8606 10.3672C17.8217 10.4046 17.7757 10.434 17.7252 10.4535C17.6748 10.4731 17.6208 10.4825 17.5667 10.481C17.5125 10.4796 17.4591 10.4675 17.4098 10.4454L15.1281 9.48986C15.029 9.4482 14.9505 9.36922 14.9101 9.27028C14.8696 9.17132 14.8704 9.0605 14.9123 8.96215ZM15.1025 5.32014L17.3972 4.39564C17.4468 4.37483 17.5001 4.364 17.554 4.36378C17.6078 4.36357 17.6612 4.37398 17.711 4.3944C17.7608 4.41483 17.806 4.44486 17.844 4.48275C17.8819 4.52065 17.9119 4.56565 17.9322 4.61513C17.9524 4.66462 17.9626 4.7176 17.962 4.771C17.9614 4.82441 17.9501 4.87716 17.9288 4.9262C17.9074 4.97523 17.8764 5.01957 17.8376 5.05664C17.7989 5.0937 17.753 5.12275 17.7028 5.14209L15.4082 6.06538C15.3087 6.1037 15.198 6.10169 15.1 6.05978C15.002 6.01787 14.9245 5.93942 14.8844 5.84139C14.8442 5.74335 14.8446 5.6336 14.8854 5.53585C14.9263 5.43809 15.0042 5.36018 15.1025 5.31894V5.32014ZM7.31806 9.04151C7.35827 9.14035 7.35732 9.25096 7.31543 9.34911C7.27353 9.44727 7.1941 9.52496 7.09453 9.56519L4.79828 10.4897C4.69836 10.5299 4.58644 10.529 4.48712 10.4874C4.38781 10.4458 4.30925 10.3668 4.26872 10.2677C4.22819 10.1687 4.22902 10.0577 4.27102 9.95931C4.31301 9.86088 4.39274 9.78301 4.49266 9.74284L6.78809 8.81955C6.83759 8.79957 6.89057 8.78947 6.94401 8.78982C6.99745 8.79017 7.05029 8.80096 7.09952 8.82158C7.14875 8.8422 7.19339 8.87223 7.23089 8.90997C7.26839 8.94771 7.29801 8.99241 7.31806 9.04151ZM6.60358 3.48363C6.56558 3.44441 6.53598 3.39798 6.51656 3.34711C6.49715 3.29625 6.48833 3.24202 6.49063 3.18769C6.49293 3.13336 6.50631 3.08005 6.52995 3.03098C6.55359 2.98191 6.58701 2.93809 6.6282 2.90217C6.66939 2.86625 6.71748 2.83896 6.7696 2.82195C6.82171 2.80495 6.87675 2.79858 6.93141 2.80322C6.98608 2.80787 7.03922 2.82344 7.08765 2.84899C7.13608 2.87454 7.17879 2.90954 7.2132 2.95189L8.14512 4.00288C8.21189 4.0836 8.24445 4.18685 8.23593 4.29089C8.22741 4.39493 8.17848 4.49163 8.09945 4.56062C8.02042 4.62961 7.91746 4.66549 7.81226 4.66072C7.70706 4.65595 7.60783 4.61088 7.53549 4.53502L6.60358 3.48363ZM14.0316 3.91225L15.092 2.98855C15.1315 2.95088 15.1784 2.92154 15.2297 2.9023C15.281 2.88306 15.3357 2.87432 15.3906 2.8766C15.4454 2.87888 15.4991 2.89214 15.5487 2.91557C15.5982 2.939 15.6424 2.97213 15.6786 3.01295C15.7149 3.05378 15.7424 3.10145 15.7595 3.1531C15.7767 3.20475 15.7831 3.25931 15.7784 3.31349C15.7738 3.36767 15.758 3.42035 15.7323 3.46836C15.7065 3.51636 15.6712 3.55869 15.6284 3.5928L14.5681 4.51649C14.5285 4.55416 14.4817 4.5835 14.4304 4.60274C14.3791 4.62198 14.3243 4.63073 14.2695 4.62845C14.2147 4.62617 14.1609 4.61291 14.1114 4.58948C14.0619 4.56604 14.0177 4.53292 13.9815 4.49209C13.9452 4.45127 13.9177 4.4036 13.9005 4.35194C13.8834 4.30029 13.877 4.24573 13.8816 4.19155C13.8863 4.13737 13.902 4.08469 13.9278 4.03669C13.9536 3.98869 13.9889 3.94636 14.0316 3.91225ZM7.92159 1.02837C7.89584 0.979931 7.88033 0.926798 7.876 0.872216C7.87167 0.817635 7.87861 0.762751 7.8964 0.710917C7.91419 0.659084 7.94245 0.611388 7.97945 0.570743C8.01646 0.530098 8.06144 0.497357 8.11164 0.47452C8.16185 0.451683 8.21622 0.439229 8.27144 0.437918C8.32666 0.436607 8.38157 0.446468 8.43282 0.466897C8.48407 0.487327 8.53057 0.517896 8.5695 0.556739C8.60843 0.595582 8.63896 0.641882 8.65923 0.692812L9.3985 2.29367C9.4207 2.34178 9.43313 2.39376 9.43506 2.44663C9.437 2.4995 9.42841 2.55223 9.40979 2.60182C9.39116 2.6514 9.36287 2.69686 9.32652 2.7356C9.29017 2.77435 9.24648 2.80561 9.19794 2.82762C9.14939 2.84963 9.09695 2.86194 9.04361 2.86386C8.99027 2.86578 8.93707 2.85727 8.88704 2.83881C8.83702 2.82035 8.79116 2.7923 8.75207 2.75627C8.71298 2.72024 8.68143 2.67694 8.65923 2.62882L7.92159 1.02837ZM12.8083 2.33073L13.4277 0.679116C13.4464 0.629522 13.4747 0.58406 13.5111 0.545326C13.5475 0.506592 13.5913 0.475345 13.6399 0.453369C13.6885 0.431393 13.741 0.419118 13.7943 0.417245C13.8477 0.415372 13.9009 0.423937 13.951 0.442452C14.001 0.460968 14.0469 0.48907 14.0859 0.525155C14.125 0.561239 14.1565 0.6046 14.1787 0.652761C14.2009 0.700922 14.2133 0.752939 14.2152 0.805844C14.2171 0.858749 14.2084 0.911504 14.1897 0.961099L13.5704 2.61271C13.5415 2.68983 13.4895 2.75634 13.4213 2.8033C13.3532 2.85025 13.2721 2.8754 13.1891 2.87536C13.1408 2.87539 13.0929 2.86679 13.0477 2.84998C12.9975 2.83156 12.9515 2.80349 12.9123 2.7674C12.8731 2.7313 12.8414 2.68789 12.8192 2.63964C12.797 2.59139 12.7845 2.53927 12.7827 2.48626C12.7808 2.43325 12.7895 2.38039 12.8083 2.33073Z" fill="#6B6C7E" stroke="#6B6C7E" stroke-width="0.5"/>
</svg>
