<svg width="18" height="18" viewBox="0 0 18 18" fill="none" xmlns="http://www.w3.org/2000/svg">
<path d="M12.5599 16.875C12.4373 16.875 12.3159 16.8508 12.2026 16.8039C12.0894 16.7569 11.9865 16.688 11.8999 16.6013L9.87825 14.5796C9.66646 14.3696 9.38043 14.2514 9.08213 14.2508H3C1.96613 14.2508 1.125 13.4096 1.125 12.3758V7.39125C1.125 7.29179 1.16451 7.19641 1.23483 7.12609C1.30516 7.05576 1.40054 7.01625 1.5 7.01625C1.59946 7.01625 1.69484 7.05576 1.76517 7.12609C1.83549 7.19641 1.875 7.29179 1.875 7.39125V12.3758C1.875 12.996 2.37975 13.5008 3 13.5008H9.0825C9.57675 13.5008 10.0601 13.7006 10.4089 14.0494L12.4305 16.071C12.5093 16.1494 12.5993 16.1243 12.6341 16.11C12.669 16.0958 12.7504 16.05 12.7504 15.9386V14.2508C12.7504 13.8371 13.0868 13.5008 13.5004 13.5008H15.0004C15.6206 13.5008 16.1254 12.996 16.1254 12.3758V4.875C16.1254 4.25475 15.6206 3.75 15.0004 3.75H10.0166C9.91717 3.75 9.82179 3.71049 9.75146 3.64017C9.68113 3.56984 9.64163 3.47446 9.64163 3.375C9.64163 3.27554 9.68113 3.18016 9.75146 3.10984C9.82179 3.03951 9.91717 3 10.0166 3H15.0004C16.0343 3 16.8754 3.84113 16.8754 4.875V12.3754C16.8754 13.4093 16.0343 14.2504 15.0004 14.2504H13.5004V15.9383C13.5006 16.1236 13.4456 16.3048 13.3424 16.4587C13.2392 16.6127 13.0925 16.7324 12.921 16.8026C12.8066 16.8501 12.6841 16.8745 12.5603 16.8746L12.5599 16.875Z" fill="#E31837" stroke="#E31837" stroke-width="0.2"/>
<path d="M13.875 6.74972H9.6525C9.55304 6.74972 9.45766 6.71021 9.38733 6.63988C9.31701 6.56956 9.2775 6.47417 9.2775 6.37472C9.2775 6.27526 9.31701 6.17988 9.38733 6.10955C9.45766 6.03923 9.55304 5.99972 9.6525 5.99972H13.875C13.9745 5.99972 14.0698 6.03923 14.1402 6.10955C14.2105 6.17988 14.25 6.27526 14.25 6.37472C14.25 6.47417 14.2105 6.56956 14.1402 6.63988C14.0698 6.71021 13.9745 6.74972 13.875 6.74972ZM13.875 8.99972H4.125C4.02554 8.99972 3.93016 8.96021 3.85984 8.88988C3.78951 8.81956 3.75 8.72417 3.75 8.62472C3.75 8.52526 3.78951 8.42988 3.85984 8.35955C3.93016 8.28923 4.02554 8.24972 4.125 8.24972H13.875C13.9745 8.24972 14.0698 8.28923 14.1402 8.35955C14.2105 8.42988 14.25 8.52526 14.25 8.62472C14.25 8.72417 14.2105 8.81956 14.1402 8.88988C14.0698 8.96021 13.9745 8.99972 13.875 8.99972ZM13.875 11.2497H4.125C4.02554 11.2497 3.93016 11.2102 3.85984 11.1399C3.78951 11.0696 3.75 10.9742 3.75 10.8747C3.75 10.7753 3.78951 10.6799 3.85984 10.6096C3.93016 10.5392 4.02554 10.4997 4.125 10.4997H13.875C13.9745 10.4997 14.0698 10.5392 14.1402 10.6096C14.2105 10.6799 14.25 10.7753 14.25 10.8747C14.25 10.9742 14.2105 11.0696 14.1402 11.1399C14.0698 11.2102 13.9745 11.2497 13.875 11.2497ZM3.375 5.99972H2.25C1.62975 5.99972 1.125 5.49497 1.125 4.87472V3.99797C1.125 3.52247 1.25437 3.05522 1.49925 2.64722L2.17275 1.52447C2.26951 1.36466 2.41766 1.24245 2.59295 1.17784C2.76823 1.11323 2.96026 1.11005 3.13759 1.16883C3.31491 1.2276 3.46703 1.34485 3.56902 1.50136C3.67102 1.65788 3.71684 1.84438 3.699 2.03034L3.59963 3.02222C3.85364 3.07434 4.08191 3.21247 4.24593 3.41331C4.40995 3.61415 4.49968 3.86541 4.5 4.12472V4.87472C4.5 5.49497 3.99525 5.99972 3.375 5.99972ZM2.87925 1.87472C2.86651 1.87469 2.85398 1.87795 2.84288 1.88419C2.83177 1.89044 2.82247 1.89944 2.81587 1.91034L2.14237 3.03347C1.96735 3.32487 1.87492 3.65841 1.875 3.99834V4.87509C1.875 5.08172 2.043 5.25009 2.25 5.25009H3.375C3.582 5.25009 3.75 5.08172 3.75 4.87509V4.12509C3.75 3.91847 3.582 3.75009 3.375 3.75009H3.1875C3.13509 3.75009 3.08326 3.73911 3.03536 3.71785C2.98746 3.69658 2.94455 3.66552 2.90939 3.62665C2.87423 3.58778 2.84761 3.54198 2.83125 3.49219C2.81488 3.4424 2.80913 3.38974 2.81438 3.33759L2.95238 1.95609C2.95351 1.9458 2.95242 1.93539 2.94919 1.92556C2.94595 1.91572 2.94064 1.9067 2.93362 1.89909C2.92677 1.89138 2.91832 1.88525 2.90887 1.88111C2.89942 1.87696 2.88919 1.87491 2.87888 1.87509L2.87925 1.87472ZM7.5 5.99972H6.375C5.75475 5.99972 5.25 5.49497 5.25 4.87472V3.99797C5.25 3.52247 5.37937 3.05522 5.62425 2.64722L6.29775 1.52447C6.39451 1.36466 6.54266 1.24245 6.71795 1.17784C6.89323 1.11323 7.08526 1.11005 7.26259 1.16883C7.43991 1.2276 7.59203 1.34485 7.69402 1.50136C7.79602 1.65788 7.84184 1.84438 7.824 2.03034L7.72463 3.02222C7.97864 3.07434 8.20691 3.21247 8.37093 3.41331C8.53495 3.61415 8.62468 3.86541 8.625 4.12472V4.87472C8.625 5.49497 8.12025 5.99972 7.5 5.99972ZM7.00425 1.87472C6.99151 1.87469 6.97898 1.87795 6.96788 1.88419C6.95677 1.89044 6.94747 1.89944 6.94088 1.91034L6.26737 3.03347C6.09235 3.32487 5.99992 3.65841 6 3.99834V4.87509C6 5.08172 6.168 5.25009 6.375 5.25009H7.5C7.707 5.25009 7.875 5.08172 7.875 4.87509V4.12509C7.875 3.91847 7.707 3.75009 7.5 3.75009H7.3125C7.26009 3.75009 7.20826 3.73911 7.16036 3.71785C7.11246 3.69658 7.06955 3.66552 7.03439 3.62665C6.99923 3.58778 6.97261 3.54198 6.95625 3.49219C6.93988 3.4424 6.93413 3.38974 6.93937 3.33759L7.07737 1.95609C7.07851 1.9458 7.07742 1.93539 7.07419 1.92556C7.07095 1.91572 7.06564 1.9067 7.05863 1.89909C7.05177 1.89138 7.04332 1.88525 7.03387 1.88111C7.02442 1.87696 7.01419 1.87491 7.00387 1.87509L7.00425 1.87472Z" fill="#E31837" stroke="#E31837" stroke-width="0.2"/>
</svg>
