<svg width="18" height="18" viewBox="0 0 18 18" fill="none" xmlns="http://www.w3.org/2000/svg">
<g clip-path="url(#clip0_879_21312)">
<path opacity="0.7" d="M0.362742 1.75446L5.16219 3.16835C5.31116 3.21203 5.44952 3.28597 5.5686 3.38556L7.02794 4.60132L8.25614 3.28367L6.23929 1.64491C6.18849 1.60356 6.12995 1.57276 6.0671 1.5543L0.872137 0.0245652C0.809842 0.00620566 0.744541 0.000297163 0.679962 0.00717708C0.615383 0.014057 0.552792 0.0335906 0.495763 0.0646623C0.438734 0.095734 0.388384 0.137735 0.347589 0.188267C0.306794 0.2388 0.276352 0.296873 0.258002 0.359171L0.0285583 1.141C-0.0483097 1.40256 0.101209 1.67717 0.362742 1.75446ZM7.62309 5.09683C7.68006 5.14431 7.71887 5.21002 7.73293 5.28283L9.96603 16.8896C10.0032 17.083 10.0835 17.2654 10.2009 17.4235C10.3183 17.5815 10.4698 17.711 10.6442 17.8023C10.8186 17.8937 11.0114 17.9445 11.2081 17.9511C11.4049 17.9577 11.6006 17.9198 11.7807 17.8403L15.1198 16.3649C15.1592 16.3476 15.2015 16.3383 15.2445 16.3376C15.2875 16.3369 15.3301 16.3449 15.37 16.361C15.4098 16.377 15.446 16.401 15.4765 16.4313C15.5069 16.4616 15.531 16.4977 15.5472 16.5375C15.5685 16.5897 15.5999 16.6371 15.6396 16.6772C15.6792 16.7172 15.7264 16.749 15.7783 16.7708C15.8303 16.7926 15.886 16.8039 15.9424 16.8042C15.9987 16.8044 16.0546 16.7935 16.1067 16.7721L17.7337 16.1046C17.9528 16.015 18.0577 15.7645 17.9679 15.5455L14.9309 8.13489C14.9084 8.07988 14.9015 8.01969 14.9112 7.96103C14.9208 7.90237 14.9466 7.84753 14.9855 7.80264L15.3344 7.39967C15.5126 7.19332 15.4903 6.88163 15.2843 6.7029L11.8954 3.76667C11.8462 3.72425 11.7891 3.69194 11.7275 3.67158C11.6658 3.65123 11.6007 3.64323 11.5359 3.64804C11.405 3.65777 11.2834 3.71906 11.1977 3.81844L10.4433 4.69123C10.3285 4.82444 10.128 4.84075 9.99338 4.72789L8.75232 3.69377L7.5212 5.01388L7.62309 5.09683ZM11.7363 16.8091C11.6338 16.8542 11.5223 16.8752 11.4104 16.8703C11.2985 16.8654 11.1893 16.8348 11.0911 16.7808C10.993 16.7269 10.9085 16.6511 10.8444 16.5593C10.7802 16.4676 10.738 16.3622 10.7211 16.2515L9.9692 11.2835C9.91162 10.9068 9.99629 10.5221 10.2067 10.2044L11.0445 10.8664C11.373 11.1227 11.618 11.4707 11.7485 11.8663L13.1947 16.165L11.7363 16.8091ZM11.2221 9.53211L11.7042 9.44565C12.4568 9.3149 13.1928 9.75098 13.4395 10.474L14.982 15.0568C15.0077 15.1328 15.004 15.2157 14.9716 15.2891C14.9393 15.3625 14.8806 15.4212 14.8072 15.4536L13.7868 15.9044L12.3588 11.6642C12.1888 11.1486 11.8694 10.6951 11.441 10.3615L10.6665 9.74796C10.8366 9.64058 11.026 9.56729 11.2241 9.53215L11.2221 9.53211ZM9.47052 7.2794L9.92579 9.2076C9.96603 9.38003 9.85894 9.55261 9.6865 9.5931C9.66228 9.59899 9.63742 9.60189 9.61248 9.60174C9.54013 9.60175 9.46989 9.57731 9.41315 9.53241C9.35641 9.48751 9.3165 9.42476 9.29988 9.35434L8.84447 7.42631C8.83152 7.37135 8.83325 7.31395 8.84949 7.25987C8.86574 7.20579 8.89592 7.15693 8.93702 7.11821C8.97812 7.07951 9.02869 7.05232 9.08363 7.03935C9.13858 7.02638 9.19597 7.0281 9.25004 7.04433C9.30408 7.0606 9.3529 7.09079 9.39159 7.13188C9.43029 7.17296 9.45751 7.22349 9.47052 7.27841V7.2794ZM8.57071 5.35478C8.74258 5.31099 8.91751 5.41464 8.96144 5.58654L9.12221 6.21604C9.166 6.38809 9.06211 6.56298 8.8902 6.60677C8.86416 6.6136 8.83733 6.61697 8.81041 6.61679C8.73911 6.61674 8.66985 6.59297 8.61354 6.54922C8.55724 6.50547 8.51709 6.44423 8.49943 6.37515L8.33937 5.74664C8.32877 5.70567 8.32636 5.66302 8.3323 5.62112C8.33823 5.57922 8.35238 5.53891 8.37394 5.5025C8.3955 5.46609 8.42404 5.43429 8.45792 5.40894C8.4918 5.38359 8.53036 5.36518 8.57137 5.35478H8.57071ZM1.60774 9.76349C1.82073 9.77083 2.03295 9.73428 2.23121 9.65612C2.42947 9.57797 2.60955 9.45987 2.76024 9.30917C2.91095 9.15851 3.02905 8.97844 3.10718 8.78016C3.18531 8.58189 3.2218 8.36966 3.21438 8.15668C3.21438 7.41313 2.17422 5.75785 1.60778 5.10379C1.04151 5.75747 0.000932226 7.41271 0.000932226 8.15672C-0.00644868 8.36969 0.030063 8.58191 0.108197 8.78017C0.186331 8.97843 0.304416 9.1585 0.45511 9.30917C0.605815 9.45988 0.785904 9.57798 0.984186 9.65614C1.18247 9.73429 1.39474 9.77084 1.60774 9.76349Z" fill="#E31837"/>
</g>
<defs>
<clipPath id="clip0_879_21312">
<rect width="18" height="18" fill="white"/>
</clipPath>
</defs>
</svg>
