<svg width="395" height="244" viewBox="0 0 395 244" fill="none" xmlns="http://www.w3.org/2000/svg">
<path d="M181.216 206.004C169.649 206.034 158.081 206.277 146.534 207.401C142.18 207.825 137.918 208.758 133.554 209.134C124.838 209.885 116.278 211.286 107.53 211.933C100.486 212.453 93.4125 212.761 86.389 213.421C79.804 214.04 72.5141 213.897 65.9796 212.874C61.1421 212.117 56.2829 211.691 51.5267 210.474C46.2063 209.113 40.4259 208.14 34.8827 208.176C26.9778 208.225 19.2796 208.231 11.7145 210.634C9.05897 211.478 5.80814 212.864 3.79149 214.634C-0.824839 218.687 -1.44973 228.798 3.15962 233.001C10.923 240.074 27.4927 242.85 38.3748 242.981C50.2994 243.124 61.8836 242.349 73.8255 241.894C84.9221 241.47 95.9913 240.868 107.106 240.889C129.808 240.933 152.512 240.889 175.173 239.562C196.463 238.315 217.806 238.743 239.143 238.743C261.023 238.743 282.755 238.893 304.477 241.439C313.941 242.548 323.584 242.936 333.096 243.713C341.614 244.409 349.801 243.7 358.286 243.056C365.411 242.516 372.489 240.914 378.962 238.206C384.085 236.062 393.219 229.403 394.791 224.287C399.196 209.943 332.712 210.288 322.504 210.32C311.085 210.356 299.574 210.685 288.164 210.304C283.364 210.144 278.635 209.322 273.951 208.422C269.285 207.526 264.584 207.754 259.852 207.377C240.12 205.806 220.343 206.036 200.548 206.036C194.106 206.036 187.661 205.987 181.216 206.004Z" fill="#FFDBDC"/>
<path d="M73.2809 91.5046L69.2324 88.2457L70.577 86.4877L73.8533 88.1178L74.0961 86.9969L77.2138 90.1995L76.0676 92.2118L73.2809 91.5046Z" fill="#EAC1A4"/>
<path d="M116.017 89.1382L97.8715 98.4489L76.529 88.7678L74.4621 92.8748L97.0772 109.783L121.89 103.286L116.017 89.1382Z" fill="#8C9498"/>
<path d="M198.259 4.5473C198.25 3.80619 198.241 3.06471 198.232 2.32359L199.257 0.215863C199.515 -0.0761039 200.065 -0.0710449 200.309 0.225619L201.213 2.28926L201.24 4.51298C202.068 4.50322 203.424 5.1204 203.433 5.9009C203.442 6.68141 202.779 7.32171 201.951 7.33147L201.274 7.33942L202.183 82.7004C202.234 86.9524 204.582 90.4625 207.892 90.3479C210.458 90.2594 212.67 88.1062 213.005 84.6297C213.079 83.8596 213.745 83.2602 214.566 83.2508L214.625 83.25C215.573 83.2392 216.325 84.0114 216.218 84.8996C215.623 89.8453 211.647 93.4248 207.832 93.4692C204.851 93.5039 202.389 92.185 200.936 89.773C199.137 86.7869 199.21 83.4802 199.171 80.1811C199.133 77.0559 199.095 73.9306 199.057 70.8053C199.005 66.4417 198.952 62.0781 198.9 57.7145C198.84 52.7392 198.78 47.7638 198.72 42.7888C198.66 37.8283 198.6 32.8677 198.54 27.9072C198.488 23.588 198.436 19.2685 198.384 14.9493C198.354 12.4239 198.323 9.89882 198.293 7.37339L197.828 7.37881C197 7.38856 196.321 6.76343 196.312 5.98329C196.303 5.20279 197.431 4.55706 198.259 4.5473Z" fill="#3B455A"/>
<path opacity="0.26" d="M198.768 46.7928L201.744 43.7044L201.683 38.6604L198.671 38.6955L198.768 46.7928Z" fill="black"/>
<path d="M219.627 45.72L219.131 42.9492C217.413 33.3522 213.513 24.2521 207.717 16.3174L200.393 6.28967C217.937 6.81073 233.095 16.7745 240.628 31.1932C242.927 35.5933 244.512 40.4082 245.243 45.4952C241.435 44.4325 237.033 43.8489 232.33 43.9035C227.732 43.957 223.399 44.6143 219.627 45.72Z" fill="#FEC2C2"/>
<path d="M181.889 40.5748L180.727 46.5486L180.265 46.554C176.237 45.3063 171.474 44.6096 166.356 44.6688C161.255 44.7281 156.481 45.5303 152.437 46.8633C153.168 40.3483 155.309 34.2394 158.559 28.8369C166.583 15.4975 181.366 6.4653 198.38 6.268C198.881 6.26222 199.38 6.26692 199.877 6.27631L194.222 14.5468C187.271 23.0886 184.135 31.6962 181.889 40.5748Z" fill="#FEC2C2"/>
<path d="M219.131 42.9492L219.627 45.72C219.586 45.7319 219.545 45.7445 219.504 45.7568C214.622 43.7084 207.954 42.5781 200.604 42.6634C192.866 42.7533 185.898 44.1727 181.002 46.5456L180.727 46.5489L181.889 40.5751C184.135 31.6965 187.27 23.0889 194.222 14.5471L199.877 6.27664C200.049 6.27989 200.221 6.28459 200.393 6.28965L207.717 16.3173C213.513 24.2521 217.413 33.3522 219.131 42.9492Z" fill="#F87A7C"/>
<path d="M215.099 94.3781L212.906 92.3477L212.871 89.7395L212.303 89.466L211.932 90.1373L211.271 87.9808L209.719 86.968L207.401 87.8323L206.072 89.9805L207.191 92.1468L209.657 93.7248L212.537 96.6314L215.099 94.3781Z" fill="#EAC1A4"/>
<path d="M214.888 91.931L210.942 96.5143L221.526 112.282L225.465 113.529L242.244 100.405L237.756 91.419L225.242 101.85L214.888 91.931Z" fill="#3B455A"/>
<path d="M268.131 215.73L268.717 218.366L264.074 222.12L260.874 220.043L262.903 216.847L267.546 213.094L268.131 215.73Z" fill="#3B455A"/>
<path d="M251.894 134.673L257.075 146.391L257.563 179.36L268.216 214.822L263.263 216.976L241.524 175.8L239.05 162.758L238.066 135.29L251.894 134.673Z" fill="#8C9295"/>
<path d="M226.809 137.299L226.402 171.85L233.04 216.398H238.144L241.368 175.293L248.354 134.188L226.809 137.299Z" fill="#8C9295"/>
<path d="M238.115 215.803V218.51L232.595 221.217L229.835 218.51L232.595 215.803H238.115Z" fill="#3B455A"/>
<path d="M236.861 90.5139L250.42 90.0214C250.42 90.0214 258.531 97.0018 262.723 115.141C266.992 133.611 261.935 160.201 261.935 160.201C261.935 160.201 225.558 155.445 219.593 154.711L228.693 118.243L236.861 90.5139Z" fill="#3B455A"/>
<path d="M241.72 91.8726C243.303 91.7208 244.887 91.5687 246.47 91.4169C246.487 90.1724 246.403 88.9269 246.218 87.6958C247.538 87.2427 249.064 86.5622 249.295 85.209C249.368 84.783 249.294 84.3472 249.22 83.9212C248.912 82.1603 248.604 80.3999 248.296 78.639C248.19 78.0302 248.077 77.4032 247.74 76.8811C247.149 75.9651 246 75.5629 244.911 75.3761C242.132 74.8991 239.103 75.4856 236.946 77.2681C236.372 77.7425 235.852 78.3131 235.598 79.0058C235.207 80.0743 235.497 81.2537 235.789 82.3522C236.059 83.3661 236.329 84.3801 236.599 85.394C236.91 86.5601 237.358 87.8858 238.503 88.3245C239.111 88.5576 239.829 88.4907 240.379 88.8347C241.349 89.4425 241.216 90.8579 241.72 91.8726Z" fill="#EAC1A4"/>
<path d="M226.251 74.2754C226.22 73.0685 226.393 71.8471 226.639 70.7465C227.061 68.8552 229.336 68.005 231.305 67.8709C235.559 67.5815 239.663 65.6902 243.817 67.15C246.191 67.9844 249.38 68.1846 251.528 69.3611C252.426 69.8525 253.141 70.6193 253.698 71.4659C255.629 74.3993 255.634 78.441 253.711 81.3791C253.28 82.0382 252.764 82.6405 252.221 83.2158C251.099 84.4064 249.756 85.8767 248.214 86.3165C248.18 84.964 249.441 80.7005 248.384 79.5904C246.705 77.8288 242.904 78.4377 240.819 78.8681C238.544 79.3375 236.514 80.9147 234.259 81.249C232.636 81.4896 230.566 80.7066 229.188 79.882C227.027 78.5906 226.306 76.4565 226.251 74.2754Z" fill="#3B455A"/>
<path d="M240.601 92.158L226.346 148.08L225.178 155.414L242.938 157.706C242.938 157.706 242.237 130.927 242.47 127.357C242.704 123.786 245.338 116.063 245.742 107.743C245.976 102.93 247.534 94.2849 246.443 91.4703L240.601 92.158Z" fill="white"/>
<path d="M148.717 109.937L152.529 107.383L151.487 105.738L148.482 106.919L148.358 105.917L145.367 108.492L146.215 110.346L148.717 109.937Z" fill="#EBCEB1"/>
<path d="M146.082 107.287L147.572 111.05C147.776 111.668 133.337 119.662 132.051 120.236C129.22 121.5 124.087 124.481 124.087 124.481C120.15 124.529 112.737 122.552 110.261 121.507C109.264 121.086 108.553 118.92 107.948 118.058C107.18 116.965 108.157 115.039 108.815 114.148C110.164 112.321 112.236 111.019 114.493 110.582C115.304 110.425 116.153 110.377 116.949 110.594C117.77 110.818 118.82 107.111 119.516 107.593C120.753 108.448 121.438 114.091 122.911 114.582C124.76 115.199 145.645 106.401 146.082 107.287Z" fill="#8C9498"/>
<path d="M116.385 90.0346C116.299 90.0375 116.215 90.0408 116.13 90.0447C112.079 90.2381 107.174 95.4534 104.333 98.5317C96.9982 106.478 91.8754 115.583 88.0412 125.763C85.9768 131.245 84.1538 136.815 82.445 142.418C81.9731 143.966 78.6578 158.12 77.8538 158.221C86.0986 157.188 94.3991 156.381 102.611 156.94C110.823 157.498 118.989 159.474 126.03 163.721C129.635 145.555 132.299 126.744 133.173 108.337C133.277 106.135 133.619 103.864 133.408 101.676C133.164 99.1557 131.898 98.0204 130.461 96.1067C129.968 95.4512 129.472 94.7914 128.87 94.2494C125.696 91.3926 120.628 89.8991 116.385 90.0346Z" fill="#8C9498"/>
<path d="M87.6198 151.746L96.1996 185.901L96.3915 211.077L100.557 211.96L102.185 188.546L106.275 145.668L87.6198 151.746Z" fill="#EBCEB1"/>
<path d="M100.61 212.666L101.283 215.22L100.693 220.229L97.3166 220.236L96.0522 212.994L96.4443 211.783L100.61 212.666Z" fill="#3B455A"/>
<path d="M120.378 147.974L121.135 177.487L117.119 219.17L113.006 219.466L111.529 181.252L103.153 146.609L120.378 147.974Z" fill="#EBCEB1"/>
<path d="M116.99 218.474L122.53 221.359L122.09 223.896L112.304 222.721L112.775 219.068L116.99 218.474Z" fill="#3B455A"/>
<path d="M121.584 151.782L124.371 185.88L121.535 209.264L110.395 208.645L108.41 182.059L103.593 153.074L104.341 148.562L120.396 148.792L121.584 151.782Z" fill="#3B455A"/>
<path d="M104.695 183.399L103.386 207.857L93.7027 207.37L93.9 184.174L87.7943 155.045L89.1873 146.903L105.473 147.897L104.695 183.399Z" fill="#3B455A"/>
<path d="M123.605 154.596C113.669 152.915 97.5702 148.842 87.6343 147.161C92.834 130.23 101.11 111.421 110.758 96.5486C112.508 93.8512 114.695 91.0367 117.826 90.3967C121.182 89.7109 127.065 91.88 127.716 95.5611C128.669 100.946 126.691 108.373 126.08 113.819C124.699 126.14 126.007 142.423 123.605 154.596Z" fill="white"/>
<path d="M121.879 78.515C125.616 72.1373 133.894 76.2798 134.431 82.6582C134.784 86.8599 130.619 91.4862 126.315 91.8125C126.227 92.8229 126.096 93.8296 125.921 94.829C124.833 94.5378 123.744 94.2462 122.656 93.9549C122.319 93.8646 121.933 93.7309 121.824 93.4057C121.758 93.2088 121.816 92.9949 121.875 92.7954C122.071 92.1237 122.268 91.4515 122.465 90.7794C122.392 90.7292 122.319 90.6779 122.247 90.6237C120.455 89.2831 119.64 86.9474 119.743 84.7392C119.847 82.5317 120.757 80.4316 121.879 78.515Z" fill="#EAC1A4"/>
<path d="M122.118 80.673C120.314 82.3713 120.147 85.0901 120.028 87.4258C119.922 89.497 119.608 90.7339 117.367 90.15C116.104 89.8212 113.851 89.2607 113.316 87.9039C112.912 86.8762 114.396 85.1136 115.182 84.5152C115.783 84.0584 116.682 84.1332 117.27 83.6606C117.513 83.4658 117.678 83.1955 117.828 82.9256C118.439 81.8235 118.88 80.63 119.129 79.3993C119.299 78.5635 119.384 77.7006 119.721 76.915C120.211 75.7764 121.677 74.9124 122.627 74.1247C124.395 72.6591 128.408 71.5414 129.861 74.1587C130.192 74.7549 130.187 75.4704 130.14 76.1475C130.113 76.5519 130.07 76.9667 129.882 77.3273C129.131 78.7658 127.671 78.3199 126.386 78.5255C124.803 78.7795 123.27 79.589 122.118 80.673Z" fill="#3B455A"/>
<path d="M132.521 86.4737C132.061 87.5288 130.915 88.3751 131.026 89.5173C131.076 90.0264 131.378 90.4719 131.583 90.9421C132.144 92.2259 131.948 93.7981 131.088 94.9114C133.197 95.9004 135.306 96.8898 137.414 97.8788C137.732 98.028 138.068 98.1809 138.42 98.1599C139.172 98.1155 139.624 97.3451 139.937 96.6733C140.554 95.3501 141.187 93.9188 140.911 92.489C140.784 91.8259 140.466 91.2094 140.34 90.546C139.738 87.3557 143.636 84.3135 142.442 81.2876C141.909 79.9373 140.515 79.1376 139.571 78.0243C137.925 76.0832 137.691 73.23 135.92 71.3976C132.576 67.9374 126.015 70.7703 126.519 75.5762C126.93 79.495 134.374 82.2239 132.521 86.4737Z" fill="#3B455A"/>
<path d="M115.846 91.0385C115.846 91.0385 98.6625 131.68 102.457 142.047C106.252 152.414 108.018 156.43 108.018 156.43L81.7064 157.508C81.7064 157.508 98.501 98.1342 115.846 91.0385Z" fill="#8C9498"/>
<path d="M275.675 162.462L264.016 150.312L263.647 150.294C263.024 148.84 262.402 147.386 261.779 145.932C258.494 138.256 255.21 130.58 251.925 122.904C249.036 116.153 246.736 104.746 237.693 104.239L151.745 99.4239C142.198 98.8891 133.175 104.083 128.562 112.768L112.501 143.008L111.07 142.939L81.7574 150.234C71.3698 154.522 64.3756 164.246 63.7328 175.293L62.7665 191.893L280.991 204.118L282.365 180.501C282.753 173.84 280.333 167.317 275.675 162.462Z" fill="#E31837"/>
<path d="M192.552 143.914L249.895 147.127L238.705 114.897C238.148 113.292 236.717 112.192 235.067 112.099L194.536 109.828L192.552 143.914Z" fill="#D7E8F4"/>
<path d="M184.727 109.279L151.88 107.439C144.919 107.049 138.339 110.837 134.976 117.169L122.845 140.009L182.744 143.365L184.727 109.279Z" fill="#D7E8F4"/>
<g opacity="0.2">
<path d="M239.837 122.606C240.576 123.049 241.315 123.495 242.053 123.939L238.992 115.12C238.434 113.515 237.003 112.415 235.353 112.322L221.312 111.535C227.463 115.264 233.668 118.908 239.837 122.606Z" fill="#FFFDF1"/>
<path d="M240.511 130.185C230.312 124.002 219.611 117.036 209.53 110.669L196.346 110.137C204.931 118.247 215.945 125.643 225.669 132.293C231.514 136.291 237.498 140.094 243.649 143.623C245.665 144.779 247.784 145.844 249.908 146.919L245.064 132.967C243.549 132.034 242.032 131.107 240.511 130.185Z" fill="#FFFDF1"/>
<path d="M173.203 129.096C168.94 126.038 164.504 123.19 160.034 120.434C155.507 117.642 150.917 114.837 146.141 112.471C144.566 111.691 142.97 110.958 141.38 110.219C138.751 111.895 136.521 114.259 134.976 117.169L134.858 117.391C139.616 121.07 144.41 124.708 149.133 128.412C156.119 133.891 163.931 138.181 171.553 142.738L182.744 143.365L183.103 137.189C179.806 134.487 176.674 131.586 173.203 129.096Z" fill="#FFFDF1"/>
</g>
<path opacity="0.1" d="M145.379 196.521C145.627 195.569 145.785 194.587 145.843 193.58C146.421 183.661 137.231 175.079 125.319 174.412C120.667 174.151 116.292 175.14 112.647 177.028C119.905 178.957 126.168 182.925 131.175 187.944C133.725 190.501 135.671 193.192 137.127 196.007L145.379 196.521Z" fill="#000100"/>
<path opacity="0.1" d="M258.379 202.851C258.622 201.9 258.777 200.917 258.836 199.91C259.413 189.991 250.452 181.422 238.822 180.77C234.28 180.516 230.006 181.511 226.445 183.403C233.529 185.322 239.639 189.282 244.521 194.294C247.008 196.847 248.903 199.535 250.322 202.348L258.379 202.851Z" fill="#000100"/>
<path d="M119.821 211.876C130.434 211.841 139.009 203.364 138.975 192.942C138.94 182.519 130.309 174.099 119.696 174.134C109.083 174.169 100.508 182.646 100.542 193.069C100.576 203.491 109.208 211.911 119.821 211.876Z" fill="#3B455A"/>
<path d="M119.8 203.712C125.824 203.692 130.691 198.881 130.672 192.965C130.652 187.05 125.753 182.27 119.73 182.29C113.706 182.31 108.839 187.122 108.858 193.037C108.878 198.953 113.777 203.732 119.8 203.712Z" fill="#FFFDF1"/>
<path opacity="0.1" d="M121.239 200.559C123.327 200.52 125.467 199.917 127.022 198.547C126.268 200.379 124.55 201.797 122.584 202.211C121.917 202.352 121.23 202.383 120.547 202.39C119.823 202.397 119.096 202.377 118.387 202.236C116.477 201.856 114.781 200.556 113.941 198.83C114.217 199.39 116.329 199.892 116.854 200.016C118.288 200.354 119.759 200.586 121.239 200.559Z" fill="#000100"/>
<path d="M233.185 218.228C243.798 218.193 252.374 209.716 252.339 199.294C252.305 188.871 243.674 180.451 233.061 180.486C222.448 180.521 213.872 188.998 213.907 199.42C213.941 209.843 222.572 218.263 233.185 218.228Z" fill="#3B455A"/>
<path d="M233.151 210.074C239.175 210.055 244.043 205.244 244.024 199.328C244.005 193.413 239.106 188.633 233.083 188.652C227.059 188.671 222.191 193.482 222.21 199.398C222.229 205.314 227.128 210.093 233.151 210.074Z" fill="#FFFDF1"/>
<path opacity="0.1" d="M234.602 206.91C236.691 206.871 238.83 206.268 240.385 204.898C239.631 206.729 237.914 208.147 235.948 208.562C235.28 208.703 234.593 208.734 233.91 208.741C233.186 208.748 232.459 208.728 231.75 208.587C229.84 208.207 228.144 206.907 227.305 205.181C227.58 205.74 229.693 206.242 230.217 206.366C231.652 206.704 233.123 206.937 234.602 206.91Z" fill="#000100"/>
<path opacity="0.5" d="M174.778 157.001L168.835 156.668C167.596 156.599 166.649 155.557 166.719 154.342V154.339C166.79 153.124 167.852 152.195 169.091 152.265L175.034 152.597C176.273 152.667 177.22 153.708 177.15 154.923V154.926C177.079 156.141 176.017 157.07 174.778 157.001Z" fill="#29313F"/>
<path d="M239.586 126.853L237.121 129.052L234.188 128.871L233.833 129.461L234.556 129.919L232.078 130.452L230.81 132.043L231.586 134.62L233.887 136.237L236.414 135.211L238.394 132.679L241.901 129.811L239.586 126.853Z" fill="#EAC1A4"/>
<path d="M237.225 128.158C241.221 125.102 245.219 122.045 249.215 118.989C250.292 118.166 251.514 117.541 252.586 116.709C254.153 115.493 254.568 115.129 254.04 113.367C252.511 108.261 249.267 103.713 247.79 98.6694C249.479 97.697 250.994 96.5129 252.812 95.7194C255.78 94.424 256.46 96.5303 257.668 98.6727C259.101 101.214 260.458 103.8 261.716 106.429C262.759 108.608 267.949 117.754 265.001 119.927C262.892 121.492 239.832 133.414 240.066 133.885C239.972 133.696 237.225 128.158 237.225 128.158Z" fill="#3B455A"/>
<path d="M97.0466 50.8555C74.3122 61.9878 59.2434 54.0805 57.1758 52.874C57.1758 52.874 57.0999 52.7208 57.0529 52.8013C56.9723 52.7526 56.9807 52.9228 56.9807 52.9228C55.7553 54.9535 46.3932 68.9766 21.0001 69.8915C21.0001 69.8915 28.3549 113.278 46.8894 127.089C66.686 141.84 80.7864 144.269 80.8374 144.205C80.9133 144.237 92.2389 135.557 102.271 113.226C111.655 92.3339 97.0466 50.8555 97.0466 50.8555Z" fill="#3B455A"/>
<path d="M94.6621 56.1044C74.0091 66.1187 60.3846 59.1311 58.5153 58.064C58.5153 58.064 58.4474 57.9278 58.4044 57.9997C58.3314 57.9567 58.3383 58.1085 58.3383 58.1085C57.2192 59.9235 48.6748 72.4604 25.655 73.3782C25.655 73.3782 32.1393 112.02 48.8808 124.255C66.7623 137.324 79.7837 140.446 79.8304 140.389C79.899 140.417 89.9495 131.62 99.1352 111.676C107.729 93.0162 94.6621 56.1044 94.6621 56.1044Z" fill="#ED7476"/>
<g opacity="0.06">
<path d="M59.2998 61.8368C59.2998 61.8368 59.2926 61.6778 59.3689 61.723C59.414 61.6475 59.4852 61.7902 59.4852 61.7902C61.4047 62.8862 75.1633 69.9414 96.0909 60.3275C94.9819 56.5015 94.1469 54.142 94.1469 54.142C73.4938 64.1563 59.8693 57.1686 58.0001 56.1015C58.0001 56.1015 57.9322 55.9653 57.8892 56.0372C57.8162 55.9942 57.823 56.146 57.823 56.146C56.7039 57.961 48.1596 70.4979 25.1397 71.4157C25.1397 71.4157 25.5535 73.8797 26.4409 77.7595C49.5179 76.3661 58.15 63.7013 59.2998 61.8368Z" fill="black"/>
</g>
<path opacity="0.34" d="M90.9226 68.2293C75.336 75.8617 62.9397 70.5448 61.5218 69.7177C61.5218 69.7177 61.4697 69.6126 61.4376 69.6679C61.3823 69.6346 61.3881 69.751 61.3881 69.751C60.5479 71.1432 52.3653 81.5894 34.9557 82.2166C34.9557 82.2166 41.7623 111.13 54.4694 120.599C68.0419 130.712 77.7089 132.377 77.744 132.333C77.796 132.355 85.561 126.404 92.4384 111.095C98.8726 96.7709 90.9226 68.2293 90.9226 68.2293Z" fill="white"/>
<path d="M305.046 99.439L302.84 98.2687L302.242 96.1801L301.726 96.0796L301.575 96.6972L300.573 95.1033L299.105 94.6154L297.431 95.7967L296.832 97.8021L298.204 99.3079L300.53 100.057L303.479 101.788L305.046 99.439Z" fill="#EAC1A4"/>
<path d="M303.794 97.0271L316.783 105.931L330.071 91.9415L331.655 107.811L318.705 116.166L301.427 101.225L303.794 97.0271Z" fill="#93AA9D"/>
<path d="M350.615 213.204L350.837 215.346L346.868 218.018L344.552 216.14L346.426 213.733L350.394 211.062L350.615 213.204Z" fill="#22252D"/>
<path d="M350.516 147.706L351.189 154.212L345.238 176.566L350.763 212.486L346.696 213.861L335.97 178.791L334.269 168.589L334.33 146.991L350.516 147.706Z" fill="#EAC1A4"/>
<path d="M319.233 154.957L327.789 215.147H331.677L332.377 176.566L339.455 149.485L319.233 154.957Z" fill="#EAC1A4"/>
<path d="M331.655 214.672V216.833L327.45 218.996L325.347 216.833L327.45 214.672H331.655Z" fill="#22252D"/>
<path d="M328.787 93.1686C329.095 92.6747 329.507 92.2541 330.071 91.9415C333.935 89.803 340.339 91.6864 344.531 91.6864C345.769 104.481 349.195 116.674 351.407 129.236C353.757 142.577 356.402 155.868 359.341 169.096C359.508 169.845 347.674 169.467 346.558 169.486C335.173 169.674 320.27 169.636 309.284 166.259C316.295 147.799 318.855 127.937 324.376 108.997C325.345 105.672 326.496 102.397 327.369 99.0445C327.875 97.1015 327.797 94.7564 328.787 93.1686Z" fill="#F98F79"/>
<path d="M333.953 74.2902C331.071 75.0631 328.802 77.6788 328.486 80.5931C326.911 79.1539 326.107 76.9446 326.397 74.8528C326.688 72.7609 328.064 70.8422 329.973 69.868C331.76 70.7981 333.145 72.4437 333.738 74.34L333.953 74.2902Z" fill="#3B455A"/>
<path d="M328.091 78.0774C329.58 70.3667 339.402 71.699 342.22 77.9434C343.822 81.4943 342.143 86.5206 338.938 88.9915C338.869 89.6741 338.778 91.5574 338.247 92.0138C337.67 92.5081 335.855 92.0369 335.144 91.8754C334.946 91.8306 334.74 91.7749 334.597 91.6344C334.418 91.4584 334.388 90.9872 334.385 90.465C333.863 90.4304 333.328 90.3303 332.783 90.155C330.499 89.4193 328.844 87.3448 328.16 85.0839C327.476 82.8233 327.643 80.3944 328.091 78.0774Z" fill="#EAC1A4"/>
<path d="M342.613 108.685C342.52 108.679 342.444 108.672 342.389 108.663C340.656 108.371 337.876 107.823 337.072 106.032C336.247 104.198 337.712 100.869 337.954 98.9627C338.321 96.0648 338.443 93.1422 338.585 90.2272C338.713 87.5995 337.756 85.0098 336.355 82.7665C334.953 80.5233 333.119 78.576 331.314 76.6305C330.563 75.8215 329.786 74.9561 329.556 73.885C329.303 72.7009 329.785 71.4507 330.582 70.526C331.807 69.1034 333.262 68.3959 335.113 68.3525C341.609 68.2004 346.493 71.9696 348.336 78.1923C350.976 87.1092 347.678 95.6174 348.169 104.49C348.253 106.005 348.764 107.495 349.63 108.753C349.4 108.419 344.015 108.763 342.613 108.685Z" fill="#3B455A"/>
<path d="M338.286 120.598L335.673 121.436L333.529 120.328L333.058 120.654L333.445 121.238L331.396 120.818L329.894 121.596L329.59 123.792L330.765 125.771L333.021 125.836L335.382 124.587L339.009 123.591L338.286 120.598Z" fill="#FFAF76"/>
<path d="M345.185 117.831C346.286 117.101 347.043 116.063 347.141 114.535C347.231 113.126 346.895 111.73 346.647 110.34C345.86 105.927 345.964 101.363 346.951 96.9888C347.933 92.636 353.11 98.109 353.754 100.073C354.467 102.249 354.266 104.619 354.44 106.869C354.674 109.891 354.784 112.921 354.772 115.951C354.764 117.868 355.245 122.396 353.187 123.493C352.631 123.79 351.992 123.894 351.367 123.993C350.385 124.15 338.659 125.6 338.475 125.032L336.855 120.019C339.295 119.529 342.949 119.313 345.185 117.831Z" fill="#FB7F66"/>
<path d="M321.164 169.446L259.638 160.158L272.275 79.6298L333.801 88.9178L321.164 169.446Z" fill="#3B455A"/>
<path opacity="0.26" d="M264.771 157.391L265.692 157.53L319.765 167.386L330.295 91.0139L327.658 91.3453L264.771 157.391Z" fill="black"/>
<path d="M318.603 165.518L263.283 157.167L274.975 82.6629L330.296 91.014L318.603 165.518Z" fill="#F4F4F2"/>
<path d="M310.836 80.8237L310.463 80.7673L310.502 80.5209C310.866 78.1985 308.957 75.9827 306.237 75.5722L302.655 75.0313C299.935 74.6208 297.435 76.1706 297.07 78.493L297.032 78.7394L296.659 78.6831C293.939 78.2726 291.439 79.8224 291.074 82.1447L290.337 86.8429L314.363 90.4698L315.1 85.7715C315.465 83.4499 313.555 81.2341 310.836 80.8237ZM306.897 80.3282L300.567 79.3725C299.92 79.2749 299.472 78.6758 299.572 78.0409C299.671 77.4064 300.282 76.967 300.929 77.0646L307.259 78.0203C307.907 78.1179 308.354 78.717 308.255 79.3519C308.155 79.9864 307.544 80.4258 306.897 80.3282Z" fill="#DFE5E5"/>
<path opacity="0.12" d="M314.363 90.4705L290.337 86.8434L290.684 84.6316L314.71 88.2584L314.363 90.4705Z" fill="black"/>
<path d="M319.313 118.352L277.74 112.076L277.912 110.98L319.485 117.256L319.313 118.352Z" fill="#CDCED0"/>
<path d="M318.044 126.438L276.471 120.162L276.643 119.066L318.216 125.341L318.044 126.438Z" fill="#CDCED0"/>
<path d="M316.775 134.524L275.202 128.248L275.375 127.152L316.947 133.428L316.775 134.524Z" fill="#CDCED0"/>
<path d="M315.506 142.61L273.934 136.334L274.106 135.238L315.678 141.513L315.506 142.61Z" fill="#CDCED0"/>
<path d="M286.778 153.936L271.496 151.629L271.435 152.016L286.717 154.323L286.778 153.936Z" fill="#CDCED0"/>
<path d="M309.343 150.298C308.647 149.916 307.818 149.861 307.082 150.101C306.988 150.033 306.89 149.969 306.785 149.912C305.744 149.341 304.406 149.5 303.526 150.286C302.668 151.054 302.374 152.297 302.809 153.357C303.25 154.432 304.35 155.119 305.526 155.086C305.806 155.078 306.075 155.027 306.328 154.942C306.828 155.295 307.444 155.49 308.083 155.472C309.434 155.433 310.532 154.416 310.761 153.133C310.916 151.992 310.376 150.864 309.343 150.298ZM305.879 154.597C304.918 154.781 303.92 154.353 303.408 153.534C302.888 152.702 302.969 151.608 303.6 150.857C304.229 150.109 305.299 149.819 306.229 150.152C306.355 150.197 306.474 150.253 306.587 150.316C306.408 150.415 306.238 150.533 306.084 150.672C305.225 151.44 304.932 152.683 305.366 153.743C305.497 154.062 305.686 154.346 305.917 154.588C305.904 154.591 305.892 154.595 305.879 154.597ZM307.753 152.679C307.615 153.45 307.111 154.11 306.403 154.431C306.235 154.284 306.086 154.113 305.965 153.92C305.445 153.088 305.526 151.995 306.157 151.243C306.388 150.968 306.68 150.756 307.001 150.612C307.569 151.124 307.859 151.896 307.753 152.679ZM308.436 154.983C307.874 155.091 307.3 154.988 306.817 154.721C307.535 154.308 308.054 153.584 308.204 152.747C308.319 151.902 308.051 151.064 307.485 150.456C307.911 150.365 308.362 150.387 308.785 150.538C309.846 150.918 310.456 151.981 310.309 153.065C310.14 154.015 309.415 154.796 308.436 154.983Z" fill="#CDCED0"/>
<path d="M281.256 92.115L281.935 92.2176L281.068 97.7404L280.389 97.6378L281.256 92.115Z" fill="#202020"/>
<path d="M286.995 92.9815L287.673 93.0842L286.807 98.6073L286.066 98.4957L284.073 93.6872L283.382 98.0906L282.703 97.988L283.57 92.4652L284.31 92.5768L286.302 97.3928L286.995 92.9815Z" fill="#202020"/>
<path d="M291.853 96.8671C292.043 97.1179 292.102 97.4691 292.031 97.9201C291.96 98.3714 291.741 98.7179 291.375 98.9596C291.007 99.2014 290.52 99.2758 289.91 99.1837C289.301 99.0915 288.874 98.9007 288.63 98.6109C288.386 98.3211 288.264 97.9388 288.265 97.464L288.836 97.4492C288.829 98.13 289.196 98.526 289.936 98.6377C290.774 98.7642 291.245 98.5022 291.347 97.8518C291.391 97.5692 291.347 97.3484 291.214 97.1887C291.081 97.0293 290.842 96.8743 290.497 96.7244L290.01 96.5036C289.503 96.2824 289.158 96.0458 288.977 95.7939C288.796 95.5417 288.74 95.1905 288.811 94.7388C288.882 94.2875 289.094 93.9388 289.449 93.6927C289.803 93.447 290.275 93.3682 290.864 93.4571C291.452 93.546 291.861 93.7342 292.09 94.0215C292.318 94.3091 292.432 94.6903 292.431 95.1652L291.861 95.1796C291.867 94.4992 291.528 94.1071 290.845 94.0038C290.048 93.8835 289.598 94.1487 289.496 94.7995C289.451 95.082 289.489 95.3032 289.609 95.4633C289.729 95.6233 289.951 95.7744 290.276 95.9164L290.786 96.1404C291.308 96.3742 291.664 96.6167 291.853 96.8671Z" fill="#202020"/>
<path d="M297.099 94.5067L297.778 94.6093L297.198 98.3091C297.145 98.647 297.058 98.931 296.938 99.1605C296.818 99.3903 296.686 99.5626 296.545 99.6779C296.403 99.7935 296.231 99.8759 296.028 99.9251C295.825 99.9746 295.642 99.997 295.477 99.993C295.311 99.9887 295.121 99.9702 294.905 99.9377C294.689 99.9052 294.502 99.8665 294.343 99.8217C294.184 99.7769 294.017 99.7014 293.841 99.5952C293.666 99.4889 293.528 99.3596 293.428 99.2074C293.328 99.0557 293.256 98.8526 293.212 98.5978C293.168 98.3435 293.172 98.0472 293.225 97.7089L293.806 94.0095L294.485 94.1121L293.908 97.7892C293.816 98.3745 293.896 98.784 294.149 99.0181C294.274 99.1298 294.4 99.2111 294.529 99.2616C294.658 99.3122 294.814 99.3509 294.996 99.3787C295.179 99.4062 295.339 99.4152 295.478 99.4051C295.616 99.395 295.762 99.3549 295.915 99.2851C296.227 99.1413 296.429 98.7742 296.522 98.1841L297.099 94.5067Z" fill="#202020"/>
<path d="M299.298 94.8388L301.003 95.0961C301.337 95.1467 301.616 95.2377 301.84 95.3696C302.064 95.5015 302.222 95.6594 302.315 95.8441C302.487 96.1902 302.54 96.5704 302.475 96.9838C302.351 97.7755 301.948 98.2311 301.266 98.35C301.389 98.4718 301.486 98.6571 301.558 98.905L302.095 100.915L301.37 100.805L300.873 98.8945C300.819 98.7005 300.735 98.5614 300.622 98.4772C300.509 98.393 300.343 98.329 300.123 98.2857L299.467 98.1867L299.11 100.464L298.431 100.361L299.298 94.8388ZM299.55 97.6573L300.546 97.8076C300.921 97.8643 301.211 97.8011 301.416 97.6175C301.622 97.4343 301.748 97.1875 301.797 96.8771C301.846 96.5671 301.8 96.2943 301.661 96.0587C301.522 95.8235 301.264 95.6775 300.889 95.6208L299.894 95.4704L299.55 97.6573Z" fill="#202020"/>
<path d="M305.384 95.7578L306.287 95.894L307.263 101.695L306.592 101.594L306.306 99.8471L304.161 99.5233L303.352 101.105L302.681 101.004L305.384 95.7578ZM305.746 96.4165L304.414 99.0189L306.211 99.2903L305.746 96.4165Z" fill="#202020"/>
<path d="M312.504 96.8324L313.182 96.935L312.315 102.458L311.575 102.346L309.581 97.5377L308.891 101.941L308.212 101.838L309.078 96.3153L309.819 96.4269L311.811 101.243L312.504 96.8324Z" fill="#202020"/>
<path d="M316.669 97.9106C316.191 97.8384 315.813 97.9157 315.536 98.1422C315.289 98.3374 315.102 98.6915 314.974 99.2039C314.919 99.4178 314.867 99.6834 314.817 100.001C314.767 100.319 314.735 100.592 314.72 100.819C314.706 101.047 314.715 101.266 314.747 101.478C314.78 101.689 314.841 101.864 314.93 102.001C315.125 102.299 315.462 102.484 315.94 102.556C316.732 102.676 317.206 102.324 317.361 101.501L317.912 101.615C317.788 102.169 317.564 102.578 317.242 102.842C316.919 103.106 316.456 103.192 315.855 103.101C315.006 102.973 314.468 102.628 314.24 102.067C314.121 101.786 314.055 101.474 314.044 101.131C314.031 100.788 314.063 100.379 314.137 99.9024C314.212 99.4257 314.308 99.0257 314.424 98.7027C314.541 98.3793 314.699 98.1011 314.899 97.868C315.287 97.4051 315.906 97.2378 316.754 97.3657C317.315 97.4503 317.712 97.6382 317.945 97.9291C318.179 98.2196 318.29 98.6019 318.279 99.0752L317.716 99.0911C317.713 98.4086 317.364 98.0154 316.669 97.9106Z" fill="#202020"/>
<path d="M319.739 97.9247L322.732 98.3764L322.649 98.9061L320.335 98.5567L320.033 100.478L322.185 100.803L322.102 101.333L319.95 101.008L319.634 103.02L322.102 103.393L322.019 103.923L318.872 103.448L319.739 97.9247Z" fill="#202020"/>
<path d="M290.814 106.407L289.835 106.259L289.513 108.309L288.834 108.207L289.7 102.684L291.359 102.934C292.521 103.11 293.012 103.776 292.83 104.934C292.648 106.091 291.976 106.583 290.814 106.407ZM289.918 105.729L290.859 105.871C291.594 105.982 292.025 105.636 292.151 104.831C292.277 104.027 291.973 103.569 291.237 103.458L290.296 103.316L289.918 105.729Z" fill="#202020"/>
<path d="M297.233 108.724C297.031 108.972 296.77 109.145 296.449 109.244C296.128 109.343 295.751 109.359 295.316 109.294C294.882 109.228 294.528 109.102 294.254 108.916C293.981 108.731 293.787 108.488 293.674 108.19C293.56 107.891 293.496 107.576 293.482 107.243C293.469 106.911 293.492 106.551 293.553 106.166C293.614 105.78 293.683 105.454 293.761 105.19C293.84 104.926 293.949 104.675 294.089 104.438C294.229 104.201 294.391 104.011 294.577 103.869C294.989 103.559 295.537 103.456 296.221 103.559C297.085 103.69 297.634 104.062 297.869 104.676C297.986 104.972 298.051 105.287 298.065 105.619C298.079 105.951 298.052 106.333 297.984 106.765C297.916 107.196 297.825 107.568 297.71 107.881C297.594 108.195 297.436 108.475 297.233 108.724ZM295.452 108.756C295.719 108.797 295.966 108.774 296.193 108.687C296.42 108.6 296.605 108.454 296.747 108.251C296.89 108.048 297.005 107.818 297.093 107.56C297.18 107.302 297.251 107.002 297.305 106.659C297.359 106.316 297.383 106.008 297.379 105.737C297.374 105.465 297.335 105.21 297.262 104.972C297.107 104.483 296.731 104.194 296.135 104.104C295.657 104.032 295.273 104.127 294.985 104.388C294.629 104.711 294.381 105.314 294.243 106.196C294.105 107.079 294.156 107.727 294.396 108.14C294.591 108.475 294.943 108.68 295.452 108.756Z" fill="#202020"/>
<path d="M298.939 109.732L299.806 104.21L300.484 104.312L299.7 109.306L301.799 109.623L301.716 110.152L298.939 109.732Z" fill="#202020"/>
<path d="M303.523 104.77L304.202 104.873L303.335 110.396L302.656 110.293L303.523 104.77Z" fill="#202020"/>
<path d="M307.689 105.849C307.211 105.776 306.833 105.854 306.555 106.08C306.309 106.275 306.122 106.63 305.994 107.142C305.939 107.356 305.887 107.621 305.837 107.939C305.787 108.257 305.755 108.53 305.74 108.757C305.725 108.984 305.734 109.204 305.767 109.415C305.8 109.627 305.861 109.801 305.95 109.939C306.145 110.237 306.482 110.422 306.96 110.494C307.752 110.613 308.226 110.262 308.381 109.438L308.932 109.552C308.808 110.107 308.585 110.516 308.262 110.78C307.939 111.043 307.476 111.129 306.874 111.039C306.026 110.911 305.488 110.566 305.26 110.005C305.141 109.723 305.075 109.412 305.063 109.069C305.051 108.726 305.083 108.317 305.158 107.84C305.233 107.364 305.328 106.964 305.445 106.641C305.561 106.317 305.719 106.039 305.919 105.806C306.308 105.343 306.926 105.176 307.775 105.304C308.335 105.388 308.732 105.576 308.966 105.867C309.199 106.158 309.31 106.54 309.299 107.013L308.736 107.029C308.733 106.347 308.383 105.953 307.689 105.849Z" fill="#202020"/>
<path d="M311.535 111.634L310.856 111.531L311.158 109.61L309.987 105.746L310.681 105.851L311.599 109.01L313.443 106.268L314.137 106.373L311.836 109.712L311.535 111.634Z" fill="#202020"/>
</svg>
