<svg width="16" height="17" viewBox="0 0 16 17" fill="none" xmlns="http://www.w3.org/2000/svg">
<path d="M13.7402 15.0059H12.334C12.2221 15.0059 12.1148 14.9614 12.0357 14.8823C11.9566 14.8032 11.9121 14.6959 11.9121 14.584C11.9121 14.4721 11.9566 14.3648 12.0357 14.2857C12.1148 14.2066 12.2221 14.1621 12.334 14.1621H13.7402C13.9728 14.1621 14.1621 13.9728 14.1621 13.7402V7.27148C14.1621 7.03889 13.9728 6.84961 13.7402 6.84961H6.59789C6.38953 6.84982 6.18435 6.7985 6.00063 6.70021C5.8169 6.60192 5.66034 6.45972 5.54489 6.28627L4.92108 5.34998C4.88259 5.29216 4.83041 5.24475 4.76917 5.21197C4.70793 5.17919 4.63954 5.16206 4.57008 5.16211H1.36523C1.13264 5.16211 0.943359 5.35139 0.943359 5.58398V13.7402C0.943359 13.9728 1.13264 14.1621 1.36523 14.1621H4.45898C4.57087 14.1621 4.67818 14.2066 4.75729 14.2857C4.83641 14.3648 4.88086 14.4721 4.88086 14.584C4.88086 14.6959 4.83641 14.8032 4.75729 14.8823C4.67818 14.9614 4.57087 15.0059 4.45898 15.0059H1.36523C1.02968 15.0055 0.707984 14.872 0.470713 14.6348C0.233443 14.3975 0.0999816 14.0758 0.0996094 13.7402V5.58398C0.0996094 4.8862 0.667453 4.31836 1.36523 4.31836H4.57008C4.99392 4.31836 5.38767 4.52902 5.62308 4.8817L6.24689 5.81798C6.32564 5.93555 6.4567 6.00586 6.59789 6.00586H13.7402C14.438 6.00586 15.0059 6.5737 15.0059 7.27148V13.7402C15.0059 14.438 14.438 15.0059 13.7402 15.0059Z" fill="#E31837" stroke="#E31837" stroke-width="0.2"/>
<path d="M13.459 6.84961C13.3471 6.84961 13.2398 6.80516 13.1607 6.72604C13.0816 6.64693 13.0371 6.53962 13.0371 6.42773V1.36523C13.0371 1.13264 12.8478 0.943359 12.6152 0.943359H8.41927L8.33039 1.21027L9.21211 1.87148C9.27398 1.91786 9.32192 1.98034 9.35069 2.05211C9.37946 2.12389 9.38795 2.20218 9.37523 2.27845L9.09398 3.96567C9.07609 4.07267 9.01767 4.16865 8.93086 4.2337L7.80586 5.07745C7.74318 5.12446 7.66865 5.15309 7.59062 5.16012C7.51259 5.16716 7.43414 5.15233 7.36407 5.11729C7.29399 5.08225 7.23506 5.02839 7.19387 4.96175C7.15268 4.8951 7.13086 4.8183 7.13086 4.73995V3.2783L5.63123 2.27873C5.56169 2.23238 5.50748 2.16641 5.47548 2.0892C5.44348 2.01198 5.43514 1.92701 5.45152 1.84505L5.63152 0.943078H2.49023C2.25764 0.943078 2.06836 1.13236 2.06836 1.36495V4.73995C2.06836 4.85184 2.02391 4.95915 1.9448 5.03826C1.86568 5.11738 1.75837 5.16183 1.64648 5.16183C1.5346 5.16183 1.42729 5.11738 1.34817 5.03826C1.26906 4.95915 1.22461 4.85184 1.22461 4.73995V1.36523C1.22461 0.667453 1.79245 0.0996094 2.49023 0.0996094H6.14648C6.20884 0.0997481 6.2704 0.113691 6.32673 0.140437C6.38306 0.167184 6.43278 0.20607 6.4723 0.254304C6.51182 0.302539 6.54018 0.358926 6.55533 0.419417C6.57048 0.479908 6.57204 0.543002 6.55992 0.604172L6.33436 1.73367L7.78673 2.70173C7.84452 2.74026 7.89191 2.79245 7.92468 2.85368C7.95745 2.91491 7.9746 2.98328 7.97461 3.05273V3.89648L8.28961 3.66023L8.50055 2.39292L7.58086 1.70273C7.51001 1.64964 7.45767 1.57559 7.43127 1.49108C7.40487 1.40658 7.40574 1.3159 7.43377 1.23192L7.71502 0.388172C7.743 0.304155 7.79671 0.231073 7.86854 0.179283C7.94037 0.127492 8.02668 0.0996176 8.11523 0.0996094H12.6152C13.313 0.0996094 13.8809 0.667453 13.8809 1.36523V6.42773C13.8809 6.53962 13.8364 6.64693 13.7573 6.72604C13.6782 6.80516 13.5709 6.84961 13.459 6.84961ZM9.80273 16.1309H5.30273C4.96718 16.1305 4.64548 15.997 4.40821 15.7598C4.17094 15.5225 4.03748 15.2008 4.03711 14.8652V11.4902C4.03711 10.7925 4.60495 10.2246 5.30273 10.2246H9.80273C10.5005 10.2246 11.0684 10.7925 11.0684 11.4902V14.8652C11.0684 15.563 10.5005 16.1309 9.80273 16.1309ZM5.30273 11.0684C5.07014 11.0684 4.88086 11.2576 4.88086 11.4902V14.8652C4.88086 15.0978 5.07014 15.2871 5.30273 15.2871H9.80273C10.0353 15.2871 10.2246 15.0978 10.2246 14.8652V11.4902C10.2246 11.2576 10.0353 11.0684 9.80273 11.0684H5.30273Z" fill="#E31837" stroke="#E31837" stroke-width="0.2"/>
<path d="M5.72461 11.0684C5.61272 11.0684 5.50542 11.0239 5.4263 10.9448C5.34718 10.8657 5.30274 10.7584 5.30274 10.6465V9.66212C5.30229 9.36652 5.36019 9.07374 5.4731 8.80056C5.58602 8.52738 5.75174 8.27916 5.96076 8.07014C6.16978 7.86112 6.41799 7.6954 6.69117 7.58249C6.96436 7.46957 7.25714 7.41168 7.55274 7.41212C8.05975 7.41035 8.55238 7.58059 8.95013 7.89502C9.34788 8.20945 9.62724 8.64948 9.74255 9.14322C9.76828 9.25212 9.7497 9.36679 9.69089 9.46199C9.63208 9.5572 9.53786 9.62514 9.42896 9.65087C9.32005 9.67661 9.20538 9.65803 9.11018 9.59922C9.01498 9.54041 8.94703 9.44618 8.9213 9.33728C8.84919 9.02877 8.67458 8.75384 8.426 8.55742C8.17741 8.36099 7.86956 8.25469 7.55274 8.25587C7.17811 8.25587 6.8243 8.40212 6.55627 8.6679C6.2933 8.9319 6.14591 9.2895 6.14649 9.66212V10.6465C6.14649 10.7584 6.10204 10.8657 6.02292 10.9448C5.94381 11.0239 5.8365 11.0684 5.72461 11.0684ZM8.39649 14.4434C8.28849 14.4434 8.18049 14.4023 8.09836 14.3196L6.41086 12.6321C6.36941 12.5935 6.33617 12.5469 6.31311 12.4952C6.29005 12.4434 6.27765 12.3876 6.27665 12.3309C6.27565 12.2743 6.28607 12.218 6.30729 12.1655C6.32851 12.1129 6.36009 12.0652 6.40015 12.0252C6.44021 11.9851 6.48793 11.9535 6.54046 11.9323C6.59299 11.9111 6.64926 11.9007 6.70591 11.9017C6.76255 11.9027 6.81841 11.9151 6.87016 11.9381C6.92191 11.9612 6.96849 11.9944 7.00711 12.0359L8.69461 13.7234C8.75354 13.7824 8.79366 13.8575 8.8099 13.9393C8.82615 14.0211 8.8178 14.1059 8.7859 14.1829C8.754 14.2599 8.69998 14.3258 8.63067 14.3722C8.56136 14.4185 8.47987 14.4433 8.39649 14.4434Z" fill="#E31837" stroke="#E31837" stroke-width="0.2"/>
<path d="M6.70861 14.4441C6.62523 14.444 6.54374 14.4193 6.47443 14.3729C6.40512 14.3265 6.3511 14.2607 6.3192 14.1836C6.2873 14.1066 6.27895 14.0218 6.2952 13.94C6.31144 13.8583 6.35156 13.7831 6.41049 13.7241L8.09799 12.0366C8.13661 11.9952 8.18319 11.9619 8.23494 11.9389C8.28669 11.9158 8.34255 11.9034 8.3992 11.9024C8.45584 11.9014 8.51211 11.9118 8.56464 11.933C8.61717 11.9543 8.66489 11.9858 8.70495 12.0259C8.74501 12.066 8.77659 12.1137 8.79781 12.1662C8.81903 12.2187 8.82945 12.275 8.82845 12.3317C8.82745 12.3883 8.81505 12.4442 8.79199 12.4959C8.76893 12.5477 8.73569 12.5942 8.69424 12.6329L7.00674 14.3204C6.92461 14.4031 6.81661 14.4441 6.70861 14.4441Z" fill="#E31837" stroke="#E31837" stroke-width="0.2"/>
</svg>
