<svg width="18" height="20" viewBox="0 0 18 20" fill="none" xmlns="http://www.w3.org/2000/svg">
<path d="M5.85819 5.34209L5.82037 6.70197C5.8143 6.9253 5.86271 7.14675 5.96142 7.34718C6.06013 7.54761 6.20617 7.72098 6.38691 7.8523C6.56765 7.98363 6.77766 8.06896 6.99878 8.10092C7.2199 8.13287 7.44547 8.1105 7.656 8.03572L8.9375 7.57991L10.219 8.03572C10.4296 8.11107 10.6554 8.13374 10.8767 8.10175C11.0981 8.06975 11.3082 7.98406 11.4888 7.85216C11.6694 7.72076 11.8153 7.54738 11.9139 7.34699C12.0124 7.14659 12.0608 6.92521 12.0546 6.70197L12.0168 5.34209L12.8466 4.26341C13.123 3.90384 13.2048 3.43153 13.0632 2.99978C12.9942 2.78747 12.8745 2.59517 12.7145 2.43955C12.5544 2.28393 12.3589 2.16969 12.1447 2.10672L10.8405 1.72241L10.0719 0.600405C9.94545 0.41625 9.77608 0.265651 9.5784 0.161623C9.38073 0.0575948 9.1607 0.00326717 8.93732 0.00333486C8.71394 0.00340255 8.49394 0.0578635 8.29633 0.162011C8.09872 0.266159 7.92944 0.416861 7.80313 0.601093L7.0345 1.72309L5.72962 2.10809C5.51558 2.17116 5.32014 2.28545 5.16022 2.44106C5.00029 2.59667 4.88071 2.78892 4.81181 3.00116C4.74235 3.21366 4.72583 3.43991 4.76369 3.66025C4.80155 3.88058 4.89265 4.08834 5.02906 4.26547L5.85819 5.34347V5.34209ZM7.65737 2.97228C7.80931 2.92759 7.94131 2.83134 8.03069 2.70072L8.9375 1.37659L9.84431 2.70072C9.93369 2.83134 10.0657 2.92691 10.2176 2.97228L11.7569 3.42603L10.7779 4.69791C10.6811 4.82323 10.6305 4.9782 10.6349 5.13653L10.6789 6.74047L9.16712 6.20284C9.01815 6.14988 8.85547 6.14988 8.7065 6.20284L7.19469 6.74116L7.23869 5.13722C7.24296 4.9789 7.19245 4.82397 7.09569 4.69859L6.11669 3.42672L7.656 2.97297L7.65737 2.97228ZM15.8125 13.0648H12.375V11.6898C12.375 10.5527 11.4496 9.62728 10.3125 9.62728H7.5625C6.42537 9.62728 5.5 10.5527 5.5 11.6898V12.3773H2.0625C0.925375 12.3773 0 13.3027 0 14.4398V17.8773C0 19.0144 0.925375 19.9398 2.0625 19.9398H15.8125C16.9496 19.9398 17.875 19.0144 17.875 17.8773V15.1273C17.875 13.9902 16.9496 13.0648 15.8125 13.0648ZM1.375 17.8773V14.4398C1.375 14.061 1.683 13.7523 2.0625 13.7523H5.5V18.5648H2.0625C1.683 18.5648 1.375 18.2561 1.375 17.8773ZM11 18.5648H6.875V11.6898C6.875 11.311 7.183 11.0023 7.5625 11.0023H10.3125C10.692 11.0023 11 11.311 11 11.6898V18.5648ZM16.5 17.8773C16.5 18.2561 16.192 18.5648 15.8125 18.5648H12.375V14.4398H15.8125C16.192 14.4398 16.5 14.7485 16.5 15.1273V17.8773ZM2.64 1.28516L3.23537 1.62891C3.31351 1.67423 3.39983 1.70367 3.48938 1.71555C3.57893 1.72744 3.66994 1.72152 3.7572 1.69814C3.84445 1.67476 3.92623 1.63438 3.99784 1.57932C4.06945 1.52426 4.12949 1.4556 4.1745 1.37728C4.26566 1.21938 4.29037 1.03172 4.24318 0.855606C4.19599 0.679487 4.08078 0.529326 3.92288 0.438155L3.3275 0.0944052C3.16968 0.00467494 2.98277 -0.0189888 2.80757 0.028578C2.63236 0.0761448 2.48309 0.19108 2.39231 0.348303C2.30154 0.505525 2.27663 0.692271 2.32304 0.867787C2.36944 1.0433 2.48338 1.19334 2.64 1.28516ZM13.9521 7.81641L14.5475 8.16016C14.6256 8.20548 14.712 8.23492 14.8015 8.2468C14.8911 8.25869 14.9821 8.25277 15.0693 8.22939C15.1566 8.20601 15.2384 8.16563 15.31 8.11057C15.3816 8.05551 15.4416 7.98685 15.4866 7.90853C15.5778 7.75063 15.6025 7.56298 15.5553 7.38686C15.5081 7.21074 15.3929 7.06058 15.235 6.96941L14.6396 6.62566C14.4818 6.53592 14.2949 6.51226 14.1197 6.55983C13.9445 6.60739 13.7952 6.72233 13.7044 6.87955C13.6137 7.03678 13.5888 7.22352 13.6352 7.39904C13.6816 7.57455 13.7955 7.72459 13.9521 7.81641ZM2.0625 4.81478H2.75C2.93234 4.81478 3.1072 4.74235 3.23614 4.61342C3.36507 4.48448 3.4375 4.30962 3.4375 4.12728C3.4375 3.94494 3.36507 3.77008 3.23614 3.64114C3.1072 3.51221 2.93234 3.43978 2.75 3.43978H2.0625C1.88016 3.43978 1.7053 3.51221 1.57636 3.64114C1.44743 3.77008 1.375 3.94494 1.375 4.12728C1.375 4.30962 1.44743 4.48448 1.57636 4.61342C1.7053 4.74235 1.88016 4.81478 2.0625 4.81478ZM14.4375 4.12728C14.4375 4.30962 14.5099 4.48448 14.6389 4.61342C14.7678 4.74235 14.9427 4.81478 15.125 4.81478H15.8125C15.9948 4.81478 16.1697 4.74235 16.2986 4.61342C16.4276 4.48448 16.5 4.30962 16.5 4.12728C16.5 3.94494 16.4276 3.77008 16.2986 3.64114C16.1697 3.51221 15.9948 3.43978 15.8125 3.43978H15.125C14.9427 3.43978 14.7678 3.51221 14.6389 3.64114C14.5099 3.77008 14.4375 3.94494 14.4375 4.12728ZM14.2966 1.72103C14.4134 1.72103 14.5317 1.69147 14.6396 1.62891L15.235 1.28516C15.3138 1.24034 15.383 1.18038 15.4385 1.10872C15.4941 1.03707 15.5349 0.955131 15.5587 0.867631C15.5824 0.780131 15.5887 0.688796 15.577 0.598885C15.5653 0.508974 15.5359 0.422262 15.4906 0.343742C15.4453 0.265223 15.3848 0.196446 15.3128 0.141371C15.2408 0.0862963 15.1586 0.0460121 15.0709 0.0228373C14.9833 -0.000337494 14.8919 -0.00594495 14.8021 0.00633774C14.7122 0.0186204 14.6257 0.0485506 14.5475 0.0944052L13.9521 0.438155C13.8205 0.51351 13.7175 0.630326 13.6592 0.770374C13.6009 0.910421 13.5907 1.06582 13.63 1.21232C13.6693 1.35882 13.7561 1.48818 13.8766 1.5802C13.9972 1.67223 14.1449 1.72175 14.2966 1.72103ZM3.23537 6.62566L2.64 6.96941C2.50835 7.04476 2.40536 7.16158 2.34708 7.30162C2.28881 7.44167 2.27854 7.59707 2.31787 7.74357C2.3572 7.89007 2.44393 8.01943 2.56451 8.11145C2.6851 8.20348 2.83275 8.253 2.98444 8.25228C3.10131 8.25228 3.21956 8.22272 3.3275 8.16016L3.92288 7.81641C4.07949 7.72459 4.19344 7.57455 4.23984 7.39904C4.28624 7.22352 4.26134 7.03678 4.17056 6.87955C4.07979 6.72233 3.93051 6.60739 3.75531 6.55983C3.5801 6.51226 3.3932 6.53592 3.23537 6.62566Z" fill="#6B6C7E"/>
</svg>
