<svg width="28" height="28" viewBox="0 0 28 28" fill="none" xmlns="http://www.w3.org/2000/svg">
<path d="M23.625 24.7188H21.4375C21.2635 24.7188 21.0965 24.6496 20.9735 24.5265C20.8504 24.4035 20.7812 24.2365 20.7812 24.0625C20.7812 23.8885 20.8504 23.7215 20.9735 23.5985C21.0965 23.4754 21.2635 23.4062 21.4375 23.4062H23.625C23.9868 23.4062 24.2812 23.1118 24.2812 22.75V12.6875C24.2812 12.3257 23.9868 12.0312 23.625 12.0312H12.5147C12.1906 12.0316 11.8714 11.9517 11.5856 11.7989C11.2998 11.646 11.0563 11.4248 10.8767 11.1549L9.90631 9.6985C9.84645 9.60855 9.76527 9.5348 9.67001 9.48382C9.57475 9.43283 9.46836 9.40618 9.36031 9.40625H4.375C4.01319 9.40625 3.71875 9.70069 3.71875 10.0625V22.75C3.71875 23.1118 4.01319 23.4062 4.375 23.4062H9.1875C9.36155 23.4062 9.52847 23.4754 9.65154 23.5985C9.77461 23.7215 9.84375 23.8885 9.84375 24.0625C9.84375 24.2365 9.77461 24.4035 9.65154 24.5265C9.52847 24.6496 9.36155 24.7188 9.1875 24.7188H4.375C3.85303 24.7182 3.35261 24.5106 2.98352 24.1415C2.61444 23.7724 2.40683 23.272 2.40625 22.75V10.0625C2.40625 8.97706 3.28956 8.09375 4.375 8.09375H9.36031C10.0196 8.09375 10.6321 8.42144 10.9983 8.97006L11.9687 10.4265C12.0912 10.6094 12.2951 10.7188 12.5147 10.7188H23.625C24.7104 10.7188 25.5938 11.6021 25.5938 12.6875V22.75C25.5938 23.8354 24.7104 24.7188 23.625 24.7188Z" fill="#FF8A00" stroke="#FF8A00" stroke-width="0.3"/>
<path d="M23.1875 12.0312C23.0135 12.0312 22.8465 11.9621 22.7235 11.839C22.6004 11.716 22.5312 11.549 22.5312 11.375V3.5C22.5312 3.13819 22.2368 2.84375 21.875 2.84375H15.3479L15.2097 3.25894L16.5813 4.2875C16.6775 4.35963 16.7521 4.45683 16.7968 4.56848C16.8416 4.68012 16.8548 4.80192 16.835 4.92056L16.3975 7.54513C16.3697 7.71156 16.2788 7.86088 16.1438 7.96206L14.3938 9.27456C14.2963 9.34769 14.1803 9.39222 14.0589 9.40316C13.9376 9.41411 13.8155 9.39103 13.7065 9.33653C13.5975 9.28203 13.5058 9.19825 13.4418 9.09457C13.3777 8.9909 13.3438 8.87144 13.3438 8.74956V6.47587L11.011 4.921C10.9028 4.84889 10.8185 4.74627 10.7687 4.62616C10.7189 4.50606 10.706 4.37387 10.7314 4.24638L11.0114 2.84331H6.125C5.76319 2.84331 5.46875 3.13775 5.46875 3.49956V8.74956C5.46875 8.92361 5.39961 9.09053 5.27654 9.2136C5.15347 9.33667 4.98655 9.40581 4.8125 9.40581C4.63845 9.40581 4.47153 9.33667 4.34846 9.2136C4.22539 9.09053 4.15625 8.92361 4.15625 8.74956V3.5C4.15625 2.41456 5.03956 1.53125 6.125 1.53125H11.8125C11.9095 1.53147 12.0053 1.55315 12.0929 1.59476C12.1805 1.63637 12.2578 1.69686 12.3193 1.77189C12.3808 1.84692 12.4249 1.93463 12.4485 2.02873C12.472 2.12283 12.4745 2.22097 12.4556 2.31613L12.1047 4.07313L14.364 5.579C14.4539 5.63892 14.5276 5.72011 14.5786 5.81536C14.6296 5.91061 14.6562 6.01697 14.6562 6.125V7.4375L15.1462 7.07L15.4744 5.09863L14.0437 4.025C13.9335 3.94241 13.8521 3.82722 13.8111 3.69577C13.77 3.56431 13.7713 3.42327 13.8149 3.29262L14.2524 1.98013C14.296 1.84943 14.3795 1.73575 14.4913 1.65519C14.603 1.57462 14.7372 1.53126 14.875 1.53125H21.875C22.9604 1.53125 23.8438 2.41456 23.8438 3.5V11.375C23.8438 11.549 23.7746 11.716 23.6515 11.839C23.5285 11.9621 23.3615 12.0312 23.1875 12.0312ZM17.5 26.4688H10.5C9.97803 26.4682 9.47761 26.2606 9.10852 25.8915C8.73944 25.5224 8.53183 25.022 8.53125 24.5V19.25C8.53125 18.1646 9.41456 17.2812 10.5 17.2812H17.5C18.5854 17.2812 19.4688 18.1646 19.4688 19.25V24.5C19.4688 25.5854 18.5854 26.4688 17.5 26.4688ZM10.5 18.5938C10.1382 18.5938 9.84375 18.8882 9.84375 19.25V24.5C9.84375 24.8618 10.1382 25.1562 10.5 25.1562H17.5C17.8618 25.1562 18.1562 24.8618 18.1562 24.5V19.25C18.1562 18.8882 17.8618 18.5938 17.5 18.5938H10.5Z" fill="#FF8A00" stroke="#FF8A00" stroke-width="0.3"/>
<path d="M11.1563 18.5938C10.9822 18.5938 10.8153 18.5246 10.6922 18.4016C10.5691 18.2785 10.5 18.1116 10.5 17.9375V16.4063C10.4993 15.9465 10.5894 15.491 10.765 15.0661C10.9407 14.6411 11.1984 14.255 11.5236 13.9299C11.8487 13.6047 12.2348 13.3469 12.6598 13.1713C13.0847 12.9956 13.5402 12.9056 14 12.9063C14.7887 12.9035 15.555 13.1683 16.1737 13.6574C16.7925 14.1466 17.227 14.8311 17.4064 15.5991C17.4464 15.7685 17.4175 15.9469 17.326 16.095C17.2345 16.2431 17.088 16.3487 16.9186 16.3888C16.7492 16.4288 16.5708 16.3999 16.4227 16.3084C16.2746 16.2169 16.1689 16.0704 16.1289 15.901C16.0167 15.4211 15.7451 14.9934 15.3584 14.6878C14.9717 14.3823 14.4928 14.2169 14 14.2188C13.4173 14.2188 12.8669 14.4463 12.4499 14.8597C12.0409 15.2704 11.8116 15.8266 11.8125 16.4063V17.9375C11.8125 18.1116 11.7434 18.2785 11.6203 18.4016C11.4972 18.5246 11.3303 18.5938 11.1563 18.5938ZM15.3125 23.8438C15.1445 23.8438 14.9765 23.7799 14.8488 23.6513L12.2238 21.0263C12.1593 20.9662 12.1076 20.8937 12.0717 20.8132C12.0358 20.7327 12.0165 20.6458 12.015 20.5577C12.0134 20.4696 12.0296 20.3821 12.0626 20.3004C12.0957 20.2187 12.1448 20.1444 12.2071 20.0821C12.2694 20.0198 12.3436 19.9707 12.4254 19.9377C12.5071 19.9047 12.5946 19.8885 12.6827 19.89C12.7708 19.8916 12.8577 19.9108 12.9382 19.9467C13.0187 19.9826 13.0912 20.0343 13.1513 20.0988L15.7763 22.7238C15.8679 22.8155 15.9303 22.9324 15.9556 23.0597C15.9809 23.1869 15.9679 23.3187 15.9183 23.4386C15.8686 23.5584 15.7846 23.6609 15.6768 23.733C15.569 23.8051 15.4422 23.8437 15.3125 23.8438Z" fill="#FF8A00" stroke="#FF8A00" stroke-width="0.3"/>
<path d="M12.6879 23.8435C12.5582 23.8434 12.4314 23.8049 12.3236 23.7327C12.2158 23.6606 12.1318 23.5582 12.0821 23.4383C12.0325 23.3185 12.0195 23.1866 12.0448 23.0594C12.0701 22.9322 12.1325 22.8153 12.2241 22.7235L14.8491 20.0985C14.9092 20.034 14.9817 19.9823 15.0622 19.9465C15.1427 19.9106 15.2296 19.8913 15.3177 19.8898C15.4058 19.8882 15.4933 19.9044 15.575 19.9374C15.6568 19.9704 15.731 20.0195 15.7933 20.0819C15.8556 20.1442 15.9048 20.2184 15.9378 20.3001C15.9708 20.3818 15.987 20.4694 15.9854 20.5575C15.9839 20.6456 15.9646 20.7325 15.9287 20.813C15.8928 20.8935 15.8411 20.9659 15.7767 21.026L13.1516 23.651C13.0239 23.7796 12.8559 23.8435 12.6879 23.8435Z" fill="#FF8A00" stroke="#FF8A00" stroke-width="0.3"/>
</svg>
