<svg width="282" height="43" viewBox="0 0 282 43" fill="none" xmlns="http://www.w3.org/2000/svg">
<path d="M1.90149 41.3191V27.5982H5.93006V41.3191H1.90149Z" fill="#4D4D4F"/>
<path d="M8.97565 41.3191V27.5591H12.5691L20.3684 36.2607V27.5982H24.0103V41.3425H20.4087L12.6094 32.9302V41.3191H8.97565Z" fill="#4D4D4F"/>
<path d="M40.6322 28.1454L39.9473 30.9131C39.4367 30.7502 38.9142 30.6247 38.3842 30.5378C37.7316 30.4205 37.0145 30.3267 36.241 30.2564C35.4676 30.186 34.7102 30.1469 33.9689 30.1469C31.7613 30.1469 30.6574 30.5769 30.6574 31.4447C30.6553 31.5986 30.7 31.7497 30.786 31.8791C30.872 32.0084 30.9955 32.1102 31.1409 32.1718C31.6528 32.3957 32.1957 32.5458 32.7523 32.6174C33.5016 32.7504 34.4926 32.9067 35.7334 33.0865C36.8597 33.2346 37.9669 33.4966 39.0369 33.8684C39.7908 34.1223 40.4555 34.5775 40.9545 35.1818C41.3946 35.7592 41.6165 36.4659 41.5829 37.1833C41.5994 37.8667 41.409 38.5398 41.0352 39.1193C40.6615 39.6988 40.1207 40.1592 39.48 40.4434C37.5661 41.2557 35.4829 41.6225 33.3969 41.5145C32.5912 41.5145 31.6646 41.4676 30.7541 41.3816C29.8437 41.2956 28.9493 41.1627 28.1033 41.0064C27.3394 40.8684 26.5837 40.6909 25.8393 40.4747L26.5886 37.6914C27.3273 37.919 28.0776 38.1095 28.8365 38.2622C29.6422 38.4342 30.5124 38.5671 31.3826 38.6609C32.2033 38.7584 33.0293 38.808 33.8561 38.8094C34.7589 38.8588 35.6632 38.7448 36.523 38.4733C36.746 38.4129 36.9437 38.2861 37.0883 38.1107C37.2329 37.9353 37.317 37.7203 37.3288 37.496C37.3288 37.1676 37.1031 36.9253 36.6681 36.7142C36.0232 36.4916 35.3562 36.3344 34.678 36.2451L31.2617 35.7291C29.9539 35.5528 28.7022 35.099 27.5957 34.4C27.1894 34.0896 26.8659 33.6889 26.6528 33.2317C26.4396 32.7744 26.343 32.2742 26.371 31.7731C26.3501 31.117 26.5167 30.4682 26.8523 29.8983C27.1879 29.3284 27.6794 28.8598 28.2725 28.5442C29.5348 27.8093 31.4927 27.4418 34.1462 27.4418C35.4191 27.4331 36.6907 27.522 37.9491 27.7076C39.1094 27.8536 40.0037 27.9995 40.6322 28.1454Z" fill="#4D4D4F"/>
<path d="M43.283 36.2451V27.5982H47.239V36.0262C47.2015 36.5945 47.3921 37.1548 47.7708 37.5898C48.1556 37.9781 48.6482 38.2497 49.1889 38.3716C49.8454 38.5439 50.5231 38.6281 51.2031 38.6218C52.1661 38.66 53.1231 38.4582 53.9829 38.0354C54.3412 37.8344 54.6336 37.539 54.8261 37.1834C55.0186 36.8278 55.1033 36.4266 55.0706 36.0262V27.5982H59.0347V36.2451C59.0842 37.3344 58.7551 38.4082 58.1001 39.2942C57.4083 40.114 56.4705 40.7042 55.417 40.9829C54.032 41.3674 52.595 41.5466 51.1548 41.5145C49.7199 41.5461 48.2883 41.3669 46.9087 40.9829C45.8515 40.7024 44.9091 40.1128 44.2095 39.2942C43.5574 38.4072 43.2311 37.3335 43.283 36.2451Z" fill="#4D4D4F"/>
<path d="M77.7514 41.5145C76.8073 41.4968 75.8772 41.2892 75.0201 40.9047C73.9802 40.4584 72.9985 39.8941 72.0953 39.2238C71.0396 38.4583 70.0332 37.6306 69.082 36.7454H66.971H65.7463V41.3504H61.9514V27.5982C63.5628 27.5278 64.9325 27.4809 66.1008 27.4496C67.2691 27.4184 68.2924 27.4027 69.1786 27.4027C70.8017 27.3665 72.4237 27.5108 74.0129 27.8327C75.0123 28.0104 75.9285 28.4892 76.6315 29.2009C77.1913 29.9067 77.4767 30.7816 77.4372 31.6714C77.4803 32.2005 77.4007 32.7322 77.2041 33.2274C77.0075 33.7226 76.6989 34.1687 76.3012 34.5329C75.44 35.2086 74.4127 35.6558 73.32 35.8307C73.9324 36.2373 74.5205 36.6125 75.0926 36.98C75.6051 37.3104 76.1439 37.6006 76.704 37.8478C77.1415 38.0551 77.6194 38.1697 78.106 38.184H78.2993C78.3689 38.1921 78.4392 38.1921 78.5088 38.184V41.4989H78.1785L77.7514 41.5145ZM69.2914 34.2045C70.1527 34.2211 71.0136 34.1557 71.8617 34.0091C72.3665 33.9359 72.8331 33.7054 73.1911 33.3524C73.4511 32.9913 73.5905 32.5615 73.5905 32.121C73.5905 31.6805 73.4511 31.2507 73.1911 30.8896C72.8397 30.5421 72.3818 30.3144 71.8858 30.2407C71.03 30.0914 70.1608 30.0259 69.2914 30.0453H68.1312H67.1241C66.7696 30.0453 66.3103 30.0687 65.7463 30.1156V34.0951C66.4231 34.0951 67.0193 34.142 67.535 34.1498C68.0506 34.1576 68.6308 34.2045 69.2914 34.2045Z" fill="#4D4D4F"/>
<path d="M79.1453 41.3191L85.591 27.5356H90.0144L96.4601 41.3191H91.8514L90.7396 38.7704H84.5194L83.4237 41.3191H79.1453ZM85.4863 35.9636H89.7727L87.6295 30.4909L85.4863 35.9636Z" fill="#4D4D4F"/>
<path d="M98.0554 41.3191V27.5591H101.649L109.448 36.2607V27.5982H113.082V41.3425H109.489L101.689 32.9302V41.3191H98.0554Z" fill="#4D4D4F"/>
<path d="M115.427 34.7518C115.427 32.2031 116.197 30.3397 117.739 29.1618C119.286 27.9891 121.542 27.4027 124.523 27.4027C125.393 27.4027 126.135 27.4027 126.819 27.4653C127.441 27.5085 128.059 27.5842 128.673 27.692C129.245 27.8014 129.849 27.9343 130.477 28.1063L129.672 30.9131C128.785 30.7411 127.939 30.616 127.15 30.53C126.363 30.4433 125.572 30.3989 124.781 30.3971C122.949 30.3971 121.623 30.7333 120.801 31.4056C120.359 31.8278 120.019 32.34 119.806 32.9052C119.593 33.4703 119.511 34.0743 119.568 34.6736C119.514 35.2269 119.596 35.7848 119.808 36.3013C120.019 36.8178 120.354 37.2781 120.785 37.6445C121.937 38.3421 123.29 38.6601 124.644 38.5514C125.578 38.5494 126.512 38.4946 127.44 38.3873C128.361 38.2833 129.276 38.1293 130.179 37.926L130.904 40.6545C130.303 40.8265 129.674 40.9751 129.019 41.1002C128.292 41.2429 127.558 41.3447 126.819 41.4051C126.014 41.4754 125.087 41.5145 124.032 41.5145C122.432 41.5536 120.838 41.3262 119.318 40.8422C118.13 40.4532 117.11 39.6912 116.418 38.6765C115.705 37.4879 115.361 36.1253 115.427 34.7518Z" fill="#4D4D4F"/>
<path d="M133.185 41.3191V27.5982H146.761V30.5769H137.189V32.9224H146.181V35.69H137.189V38.3716H147.228V41.3347L133.185 41.3191Z" fill="#4D4D4F"/>
<path fill-rule="evenodd" clip-rule="evenodd" d="M35.5401 7.1849H46.2319C47.3804 7.16812 48.4891 7.59269 49.3162 8.366C50.1434 9.13932 50.6218 10.1986 50.6472 11.3129V20.7651H34.6457C33.9454 20.7756 33.2693 20.5167 32.765 20.045C32.2608 19.5733 31.9695 18.9271 31.9546 18.2476V14.964C31.9673 14.3308 32.2382 13.7284 32.708 13.2887C33.1777 12.8491 33.8079 12.6081 34.4604 12.6185H43.3233L42.3967 14.5418H35.8704C35.723 14.535 35.5784 14.5829 35.4662 14.6759C35.3539 14.7688 35.2824 14.8998 35.2661 15.0422V17.63C35.2824 17.7723 35.3539 17.9033 35.4662 17.9963C35.5784 18.0892 35.723 18.1372 35.8704 18.1304H47.1504V11.9384C47.1273 11.3591 46.87 10.8119 46.4342 10.4154C45.9984 10.0188 45.4191 9.80481 44.8219 9.81963H34.2429L35.5401 7.1849ZM123.444 2.24381V20.7651H107.845C107.145 20.7756 106.468 20.5167 105.964 20.045C105.46 19.5733 105.169 18.9271 105.154 18.2476V11.3129C105.179 10.1973 105.659 9.13675 106.488 8.36321C107.317 7.58967 108.427 7.16603 109.577 7.1849H118.44L117.127 9.81963H110.923C110.325 9.80481 109.746 10.0188 109.31 10.4154C108.875 10.8119 108.617 11.3591 108.594 11.9384V17.63C108.61 17.7723 108.682 17.9033 108.794 17.9963C108.906 18.0892 109.051 18.1372 109.198 18.1304H119.971V2.24381H123.444ZM68.6549 20.7651H72.1114V11.3129C72.0861 10.1959 71.6054 9.13417 70.7747 8.36041C69.9441 7.58665 68.8313 7.16394 67.68 7.1849H60.34L59.0347 9.81963H66.2861C66.8834 9.80481 67.4626 10.0188 67.8984 10.4154C68.3342 10.8119 68.5915 11.3591 68.6146 11.9384L68.6549 20.7651ZM54.2649 2.24381V20.7651H57.7214V2.24381H54.2649ZM25.4606 20.7651H28.9171V11.3129C28.8917 10.1986 28.4133 9.13932 27.5861 8.366C26.759 7.59269 25.6503 7.16812 24.5018 7.1849H1.86121V20.7651H5.31772V10.32C5.33395 10.1777 5.40548 10.0467 5.51775 9.9537C5.63002 9.86074 5.77459 9.81279 5.92201 9.81963H13.0606C13.2081 9.81279 13.3526 9.86074 13.4649 9.9537C13.5772 10.0467 13.6487 10.1777 13.6649 10.32V20.7651H17.1134V10.32C17.1296 10.1777 17.2011 10.0467 17.3134 9.9537C17.4257 9.86074 17.5702 9.81279 17.7177 9.81963H23.1321C23.7293 9.80481 24.3085 10.0188 24.7443 10.4154C25.1802 10.8119 25.4375 11.3591 25.4606 11.9384V20.7651ZM141.483 7.1849H132.798C131.65 7.16814 130.542 7.59296 129.716 8.36649C128.891 9.14002 128.414 10.1993 128.391 11.3129V20.7651H131.839V11.9384C131.862 11.3591 132.119 10.8119 132.555 10.4154C132.991 10.0188 133.57 9.80481 134.168 9.81963H140.194L141.483 7.1849ZM97.2739 7.1849C98.4216 7.16814 99.5295 7.59296 100.355 8.36649C101.181 9.14002 101.658 10.1993 101.681 11.3129V20.7651H98.2246V11.9384C98.2015 11.3563 97.942 10.8067 97.5027 10.4097C97.0634 10.0128 96.48 9.80061 95.88 9.81963H87.5812V20.7651H84.1246V7.19272L97.2739 7.1849ZM76.3817 8.0449L79.8382 6.13727V20.7651H76.3817V8.0449ZM79.8382 4.22181V2.21254H76.3817V6.12163L79.8382 4.22181ZM143.876 7.1849H154.568C155.717 7.16812 156.825 7.59269 157.653 8.366C158.48 9.13932 158.958 10.1986 158.984 11.3129V20.7651H142.99C142.29 20.7756 141.614 20.5167 141.109 20.045C140.605 19.5733 140.314 18.9271 140.299 18.2476V14.964C140.312 14.3308 140.583 13.7284 141.052 13.2887C141.522 12.8491 142.152 12.6081 142.805 12.6185H151.668L150.725 14.534H144.223C144.075 14.5272 143.931 14.5751 143.819 14.6681C143.706 14.761 143.635 14.892 143.619 15.0344V17.6222C143.635 17.7645 143.706 17.8955 143.819 17.9885C143.931 18.0814 144.075 18.1294 144.223 18.1225H155.503V11.9384C155.48 11.3591 155.222 10.8119 154.787 10.4154C154.351 10.0188 153.772 9.80481 153.174 9.81963H142.611L143.876 7.1849Z" fill="#E31837"/>
<path d="M157.727 41.2409V27.6764C159.338 27.5825 160.716 27.5122 161.9 27.4653C163.085 27.4184 164.14 27.4027 165.123 27.4027C166.509 27.3718 167.894 27.4792 169.256 27.7233C170.089 27.8439 170.864 28.2064 171.48 28.7631C171.948 29.2857 172.191 29.9634 172.157 30.6551C172.188 31.3517 171.963 32.0364 171.52 32.5862C170.98 33.1564 170.28 33.5613 169.506 33.7511C170.51 33.8722 171.45 34.2929 172.197 34.9551C172.518 35.2593 172.769 35.625 172.936 36.0289C173.102 36.4327 173.18 36.8658 173.164 37.3005C173.216 38.1798 172.961 39.0503 172.439 39.7711C171.798 40.4753 170.928 40.9445 169.973 41.1002C168.412 41.4027 166.82 41.5364 165.228 41.4989H163.753H162.569C162.198 41.4989 161.763 41.4989 161.368 41.4598L159.862 41.3816L157.727 41.2409ZM161.755 33.1256H166.146C166.684 33.1532 167.216 33.0165 167.669 32.7347C167.846 32.6164 167.989 32.4572 168.086 32.2715C168.183 32.0858 168.231 31.8796 168.225 31.6714C168.238 31.4331 168.177 31.1965 168.049 30.9927C167.921 30.789 167.732 30.6276 167.508 30.53C166.655 30.2408 165.75 30.1237 164.849 30.186H163.882L163.077 30.2251L161.779 30.2954L161.755 33.1256ZM161.755 38.5984C163.077 38.6765 164.108 38.7156 164.849 38.7156C165.682 38.7301 166.515 38.6778 167.339 38.5593C167.793 38.5149 168.223 38.3377 168.572 38.0511C168.807 37.7906 168.929 37.4512 168.91 37.1051C168.921 36.8778 168.867 36.6518 168.753 36.4529C168.639 36.2539 168.47 36.0899 168.265 35.9793C167.592 35.6922 166.856 35.5688 166.122 35.6196H161.755V38.5984Z" fill="#4D4D4F"/>
<path d="M191.14 41.5145C190.198 41.4967 189.271 41.289 188.416 40.9047C187.375 40.4568 186.391 39.8927 185.483 39.2238C184.432 38.4561 183.429 37.6286 182.478 36.7455H180.367H179.143V41.3504H175.348V27.5982C176.959 27.5278 178.329 27.4809 179.497 27.4496C180.665 27.4184 181.689 27.4027 182.575 27.4027C184.211 27.3635 185.847 27.5078 187.449 27.8327C188.448 28.0063 189.363 28.4858 190.06 29.2009C190.62 29.9067 190.905 30.7816 190.866 31.6715C190.908 32.1997 190.829 32.7305 190.634 33.2255C190.439 33.7204 190.133 34.167 189.738 34.5329C188.856 35.2198 187.802 35.6676 186.684 35.8307C187.288 36.2373 187.885 36.6125 188.457 36.98C188.968 37.312 189.507 37.6023 190.068 37.8478C190.505 38.0551 190.983 38.1697 191.47 38.184H191.663C191.733 38.1921 191.803 38.1921 191.873 38.184V41.4989H191.542L191.14 41.5145ZM182.655 34.2045C183.517 34.2211 184.378 34.1557 185.226 34.0091C185.73 33.9359 186.197 33.7054 186.555 33.3524C186.84 32.999 186.983 32.5573 186.958 32.1093C186.981 31.6725 186.847 31.2415 186.579 30.8896C186.228 30.5421 185.77 30.3144 185.274 30.2407C184.431 30.094 183.576 30.0285 182.72 30.0453H181.527H180.512C180.166 30.0453 179.707 30.0453 179.143 30.1156V34.0951C179.811 34.0951 180.407 34.142 180.931 34.1498C181.455 34.1576 182.027 34.2045 182.655 34.2045Z" fill="#4D4D4F"/>
<path d="M201.485 41.5145C199.907 41.5503 198.335 41.312 196.844 40.8109C195.62 40.3953 194.571 39.5981 193.863 38.5436C193.111 37.289 192.75 35.8497 192.824 34.4C192.755 32.985 193.096 31.5797 193.807 30.3424C194.499 29.3119 195.53 28.5379 196.731 28.1454C199.807 27.2073 203.106 27.2073 206.182 28.1454C207.391 28.5545 208.423 29.3444 209.115 30.3893C209.831 31.6079 210.178 32.9984 210.114 34.4C210.187 35.8585 209.829 37.3069 209.083 38.5749C208.384 39.6346 207.336 40.4336 206.11 40.8422C204.621 41.3281 203.055 41.5557 201.485 41.5145ZM201.485 38.7704C202.288 38.7846 203.087 38.6492 203.838 38.3716C204.515 38.1069 205.082 37.631 205.449 37.0191C205.881 36.2263 206.085 35.3348 206.037 34.4391C206.083 33.5469 205.883 32.6589 205.457 31.8669C205.091 31.2577 204.523 30.7865 203.846 30.53C203.094 30.246 202.292 30.1079 201.485 30.1234C200.691 30.1147 199.903 30.2445 199.156 30.5065C198.479 30.7631 197.911 31.2342 197.545 31.8434C197.104 32.639 196.898 33.5371 196.949 34.4391C196.898 35.3444 197.107 36.2456 197.553 37.0425C197.925 37.6471 198.491 38.1167 199.165 38.3794C199.901 38.648 200.682 38.7806 201.469 38.7704H201.485Z" fill="#4D4D4F"/>
<path d="M227.792 41.5145C226.972 41.5082 226.158 41.3871 225.374 41.1549C224.406 40.855 223.486 40.4233 222.643 39.8727L216.358 36.0105V41.3035H212.555V27.5982H216.358V32.0545L218.212 33.1725C219.072 32.712 219.906 32.2056 220.709 31.6558C221.579 31.0629 222.405 30.4124 223.183 29.7091C223.965 29.0035 224.664 28.217 225.27 27.3636L228.154 28.9898C227.362 30.2636 226.332 31.3826 225.117 32.2891C223.822 33.2773 222.423 34.129 220.943 34.83L223.36 36.2607C223.962 36.6342 224.587 36.9736 225.229 37.2771C225.69 37.5021 226.173 37.6803 226.672 37.8087C227.087 37.9136 227.515 37.9661 227.945 37.9651H228.372V41.4364H228.09L227.792 41.5145Z" fill="#4D4D4F"/>
<path d="M230.434 41.3191V27.5982H244.011V30.5769H234.414V32.9224H243.406V35.69H234.414V38.3716H244.462V41.3347L230.434 41.3191Z" fill="#4D4D4F"/>
<path d="M262.582 41.5145C261.638 41.4968 260.708 41.2892 259.851 40.9047C258.813 40.4548 257.832 39.8908 256.926 39.2238C255.872 38.4563 254.866 37.6287 253.913 36.7454H251.802H250.577V41.3504H246.782V27.5982C248.394 27.5278 249.771 27.4809 250.932 27.4496C252.092 27.4184 253.123 27.4027 254.018 27.4027C255.641 27.3659 257.263 27.5102 258.852 27.8327C259.853 28.0047 260.771 28.4844 261.47 29.2009C262.03 29.9067 262.316 30.7816 262.276 31.6714C262.319 32.2005 262.24 32.7322 262.043 33.2274C261.846 33.7226 261.538 34.1687 261.14 34.5329C260.262 35.2211 259.211 35.6692 258.094 35.8307C258.701 36.2373 259.29 36.6204 259.859 36.98C260.371 37.3104 260.91 37.6006 261.47 37.8478C261.911 38.0544 262.391 38.1689 262.88 38.184H263.066C263.138 38.1921 263.211 38.1921 263.283 38.184V41.4989H262.945L262.582 41.5145ZM254.098 34.2045C254.957 34.2209 255.815 34.1554 256.66 34.0091C257.167 33.9332 257.635 33.7033 257.998 33.3524C258.28 32.9974 258.422 32.5568 258.401 32.1093C258.425 31.671 258.288 31.2386 258.014 30.8896C257.666 30.5422 257.21 30.3144 256.717 30.2407C255.871 30.094 255.013 30.0286 254.155 30.0453H252.994H251.987C251.638 30.0453 251.179 30.0687 250.609 30.1156V34.0951C251.286 34.0951 251.882 34.142 252.398 34.1498C252.914 34.1576 253.462 34.2045 254.098 34.2045Z" fill="#4D4D4F"/>
<path d="M278.971 28.1455L278.278 30.9131C277.767 30.7502 277.245 30.6247 276.715 30.5378C276.062 30.4205 275.345 30.3267 274.571 30.2564C273.798 30.186 273.04 30.1469 272.299 30.1469C270.092 30.1469 268.988 30.5769 268.988 31.4447C268.986 31.5986 269.03 31.7497 269.116 31.8791C269.202 32.0084 269.326 32.1103 269.471 32.1718C269.984 32.3945 270.526 32.5446 271.083 32.6175C271.832 32.7504 272.823 32.9067 274.064 33.0865C275.19 33.2346 276.297 33.4966 277.367 33.8684C278.119 34.11 278.789 34.5483 279.301 35.1349C279.732 35.7161 279.951 36.4207 279.921 37.1364C279.947 37.8285 279.758 38.5122 279.381 39.1C279.003 39.6878 278.454 40.1528 277.802 40.4356C275.889 41.2488 273.805 41.6156 271.719 41.5067C270.873 41.5067 269.987 41.4598 269.076 41.3738C268.166 41.2878 267.28 41.1549 266.426 40.9985C265.664 40.8616 264.911 40.6841 264.17 40.4669L264.895 37.6836C265.634 37.9103 266.384 38.1008 267.143 38.2544C267.948 38.4264 268.827 38.5593 269.689 38.6531C270.509 38.7503 271.335 38.7999 272.162 38.8016C273.068 38.8509 273.975 38.7369 274.837 38.4655C275.06 38.4051 275.258 38.2783 275.402 38.1029C275.547 37.9275 275.631 37.7125 275.643 37.4882C275.643 37.1598 275.425 36.9175 274.982 36.7064C274.338 36.4828 273.671 36.3256 272.992 36.2373L269.6 35.6822C268.293 35.5213 267.039 35.0836 265.926 34.4C265.52 34.0896 265.196 33.6889 264.983 33.2317C264.77 32.7744 264.673 32.2742 264.701 31.7731C264.68 31.117 264.847 30.4682 265.183 29.8983C265.518 29.3284 266.01 28.8598 266.603 28.5442C267.87 27.8093 269.831 27.4418 272.485 27.4418C273.755 27.4335 275.024 27.5224 276.279 27.7076C277.44 27.8405 278.334 28.0047 278.971 28.1455Z" fill="#4D4D4F"/>
</svg>
