<svg width="578" height="430" viewBox="0 0 578 430" fill="none" xmlns="http://www.w3.org/2000/svg">
<path opacity="0.3" d="M387.021 361.161C388.899 360.052 390.758 358.907 392.596 357.725C416.022 342.652 436.125 320.446 442.763 293.365C449.402 266.284 439.902 234.379 416.115 219.886C395.434 207.285 368.955 209.645 345.662 216.247C322.369 222.849 299.931 233.284 275.852 235.783C247.334 238.742 216.757 230.626 190.857 242.943C162.111 256.613 149.153 293.968 158.467 324.443C162.736 338.412 170.89 350.718 181.424 360.774L387.021 361.161Z" fill="#E9E9EA"/>
<path opacity="0.6" d="M208.106 361.044L208.019 360.989C206.182 359.821 204.364 358.614 202.616 357.401C177.08 339.705 159.804 315.814 153.969 290.128C147.106 259.914 158.024 227.542 179.929 213.155C196.999 201.944 220.03 200.644 248.38 209.291C255.752 211.54 263.151 214.257 270.306 216.886C285.004 222.286 300.202 227.869 315.84 229.611C325.519 230.687 335.607 230.337 345.364 229.995C363.308 229.367 381.862 228.719 398.179 237.075C425.001 250.809 439.121 289.095 429.656 322.421C425.571 336.807 417.26 348.189 401.869 360.478L401.773 360.554L401.651 360.555L208.106 361.044ZM214.459 204.354C201.261 204.354 189.843 207.486 180.315 213.743C158.646 227.975 147.855 260.033 154.655 289.972C160.45 315.485 177.625 339.227 203.016 356.823C204.729 358.011 206.51 359.193 208.309 360.34L401.526 359.851C416.733 347.688 424.946 336.432 428.98 322.228C438.358 289.209 424.396 251.29 397.859 237.701C381.704 229.43 363.243 230.078 345.388 230.698C335.607 231.041 325.493 231.395 315.762 230.31C300.04 228.559 284.801 222.96 270.065 217.547C262.918 214.922 255.529 212.207 248.175 209.964C235.911 206.223 224.653 204.354 214.459 204.354Z" fill="#9698A3"/>
<path d="M473.942 345.972C467.034 345.972 461.414 340.714 461.414 334.252C461.414 327.789 467.034 322.531 473.942 322.531C480.85 322.531 486.47 327.789 486.47 334.252C486.47 340.714 480.85 345.972 473.942 345.972ZM473.942 326.9C469.44 326.9 465.777 330.198 465.777 334.251C465.777 338.305 469.44 341.602 473.942 341.602C478.444 341.602 482.108 338.305 482.108 334.251C482.108 330.198 478.444 326.9 473.942 326.9Z" fill="#565866"/>
<path d="M469.526 360.482H442.11L437.423 312.842H474.213L469.526 360.482Z" fill="white"/>
<path d="M469.951 360.95H441.685L436.906 312.371H474.73L469.951 360.95ZM442.535 360.011H469.101L473.696 313.31H437.941L442.535 360.011Z" fill="#565866"/>
<path d="M464.757 356.521H446.88L443.823 326.656H467.813L464.757 356.521Z" fill="#E2E2E4"/>
<path d="M132.166 170.904H127.085V169.965H132.166C133.319 169.965 134.446 169.762 135.515 169.363L135.843 170.242C134.669 170.681 133.432 170.904 132.166 170.904ZM122.004 170.904H116.923V169.965H122.004V170.904ZM111.842 170.904H106.76V169.965H111.842V170.904ZM101.679 170.904H96.598V169.965H101.679V170.904ZM91.5167 170.904H86.4359V169.965H91.5167V170.904ZM81.3544 170.904H76.2735V169.965H81.3544V170.904ZM71.192 170.904H66.1107V169.965H71.192V170.904ZM61.0299 170.904H55.9486V169.965H61.0299V170.904ZM50.8675 170.904H45.7862V169.965H50.8675V170.904ZM40.7051 170.904H35.6238V169.965H40.7051V170.904ZM30.4653 170.093C28.8293 169.408 27.3795 168.308 26.2727 166.911L27.007 166.327C28.0155 167.601 29.3362 168.604 30.8265 169.227L30.4653 170.093ZM140.155 167.224L139.443 166.612C140.499 165.378 141.229 163.889 141.553 162.305L142.471 162.493C142.116 164.233 141.315 165.869 140.155 167.224ZM24.1401 162.095C24.0466 161.527 23.9996 160.946 24 160.369V156.937H24.937V160.369C24.9365 160.896 24.9795 161.424 25.0649 161.942L24.1401 162.095ZM142.685 157.325H141.748V152.236H142.685V157.325ZM24.937 151.848H24V146.76H24.937V151.848ZM142.685 147.147H141.748V142.058H142.685V147.147ZM24.937 141.671H24V136.582H24.937V141.671ZM142.685 136.969H141.748V131.88H142.685V136.969ZM24.937 131.493H24V126.404H24.937V131.493ZM142.685 126.791H141.748V121.703H142.685V126.791ZM24.937 121.316H24V116.227H24.937V121.316ZM142.685 116.614H141.748V111.525H142.685V116.614ZM24.937 111.138H24V106.049H24.937V111.138ZM142.685 106.436H141.748V101.347H142.685V106.436ZM24.937 100.96H24V95.8714H24.937V100.96ZM142.685 96.2583H141.748V91.1694H142.685V96.2583ZM24.937 90.7822H24V89.5344C24 88.1786 24.2533 86.8585 24.7538 85.6112L25.6234 85.9608C25.168 87.097 24.937 88.299 24.937 89.5344V90.7822ZM141.192 86.3065C140.649 84.7836 139.718 83.4105 138.501 82.3349L139.12 81.6303C140.457 82.8109 141.478 84.3186 142.075 85.9902L141.192 86.3065ZM28.465 82.0958L27.8718 81.3689C29.2514 80.2407 30.9038 79.4791 32.6501 79.1657L32.8156 80.0895C31.226 80.3748 29.7215 81.0686 28.465 82.0958ZM134.229 80.1616C133.556 80.0135 132.862 79.9384 132.166 79.9384H129.266V79H132.166C132.929 79 133.691 79.082 134.43 79.2446L134.229 80.1616ZM124.185 79.9384H119.104V79H124.185V79.9384ZM114.023 79.9384H108.942V79H114.023V79.9384ZM103.861 79.9384H98.7793V79H103.861V79.9384ZM93.698 79.9384H88.6169V79H93.6978V79.9384H93.698ZM83.5356 79.9384H78.4548V79H83.5356V79.9384ZM73.3733 79.9384H68.2924V79H73.3733V79.9384ZM63.2109 79.9384H58.1296V79H63.2109V79.9384ZM53.0488 79.9384H47.9675V79H53.0488V79.9384ZM42.8864 79.9384H37.8051V79H42.8864V79.9384Z" fill="#565866"/>
<path d="M162.886 194.253H54.0951C47.9113 194.253 42.8984 189.233 42.8984 183.04V104.122C42.8984 97.9287 47.9113 92.9082 54.0951 92.9082H162.886C169.069 92.9082 174.082 97.9287 174.082 104.122V183.04C174.082 189.233 169.069 194.253 162.886 194.253Z" fill="#C4C5CC"/>
<path d="M67.258 122.992H54.4558V184.483H67.258V122.992Z" fill="white"/>
<path d="M91.0747 133.814H78.2725V184.483H91.0747V133.814Z" fill="white"/>
<path d="M114.892 143.277H102.089V184.482H114.892V143.277Z" fill="white"/>
<path d="M138.708 149.953H125.906V184.482H138.708V149.953Z" fill="white"/>
<path d="M162.525 169.643H149.723V184.483H162.525V169.643Z" fill="white"/>
<path d="M140.248 106.879H76.7329V112.392H140.248V106.879Z" fill="white"/>
<path d="M278.386 74.1028C271.763 77.1734 262.947 82.1145 264.624 90.8983C266.269 99.5154 276.653 97.9602 282.714 95.9004C287.205 94.3749 291.541 92.3244 295.535 89.7602C298.128 88.0949 301.775 85.2184 300.89 81.6517C300.129 78.588 296.58 77.6925 293.853 78.2536C289.896 79.0678 285.38 81.48 282.281 84.0246C279.468 86.3338 277.277 89.9295 277.828 93.7006C278.332 97.1476 281.173 99.6046 284.335 100.686C288.275 102.034 293.62 101.757 297.582 100.553C299.989 99.8212 302.215 97.6375 300.64 95.0266C298.775 91.9359 294.906 92.6834 292.222 94.044C288.6 95.8808 284.312 98.2804 282.521 102.131C281.161 105.055 281.377 108.681 284.023 110.799C286.615 112.874 290.356 112.882 293.497 112.642C296.096 112.443 300.34 111.899 300.753 108.616C301.169 105.305 297.104 103.799 294.521 104.777C290.519 106.291 288.012 111.232 286.8 115.059C285.367 119.58 285.391 124.417 286.784 128.938C286.961 129.514 287.866 129.268 287.688 128.689C285.875 122.806 286.505 116.342 289.606 110.997C291.091 108.436 294.018 104.388 297.514 105.521C299.381 106.126 300.704 108.339 299.05 110.005C297.887 111.176 295.927 111.462 294.366 111.629C292.1 111.871 289.664 111.969 287.437 111.395C283.595 110.405 281.684 106.925 283.114 103.126C284.281 100.028 287.138 98.083 289.86 96.4563C292.447 94.9104 297.603 91.6751 299.831 95.5004C302.325 99.7852 294.21 100.24 291.983 100.408C288.71 100.655 285.245 100.537 282.381 98.733C279.351 96.8233 277.996 93.524 279.097 90.0652C280.204 86.586 283.089 84.2677 286.17 82.5629C288.573 81.2329 291.39 79.6828 294.102 79.1588C296.014 78.7895 298.427 79.0919 299.567 80.9094C300.93 83.0842 299.304 85.4584 297.73 86.9427C293.323 91.099 286.666 93.7251 280.972 95.479C275.041 97.3062 265.311 97.7012 265.396 88.9584C265.469 81.3971 272.937 77.6591 278.859 74.9132C279.406 74.6599 278.93 73.8506 278.386 74.1028Z" fill="#1B1B43"/>
<path d="M210.305 118.371C211.823 121.57 213.205 124.818 214.549 128.079L216.517 132.988L218.403 137.926L215.588 137.096L220.313 133.383C221.891 132.148 223.501 130.955 225.093 129.739L227.018 128.269L227.908 130.498C228.548 132.103 229.142 133.727 229.761 135.34C230.375 136.956 230.942 138.59 231.536 140.214C232.093 141.853 232.676 143.481 233.201 145.133C233.745 146.778 234.253 148.437 234.728 150.109L233.372 150.664C232.541 149.138 231.743 147.598 230.98 146.043C230.198 144.496 229.474 142.926 228.726 141.365C228.012 139.79 227.274 138.226 226.581 136.643C225.894 135.057 225.181 133.482 224.515 131.888L227.33 132.647C225.75 133.878 224.187 135.133 222.593 136.345L217.802 139.973L215.767 141.514L214.987 139.144L213.333 134.123L211.76 129.073C210.745 125.695 209.766 122.303 208.925 118.863L210.305 118.371Z" fill="#F22222"/>
<path d="M343.937 128.72C343.095 132.161 342.117 135.552 341.101 138.93L339.528 143.98L337.875 149.001L337.094 151.371L335.06 149.831L330.269 146.202C328.674 144.99 327.112 143.736 325.532 142.504L328.346 141.745C327.68 143.339 326.967 144.915 326.28 146.5C325.587 148.083 324.849 149.648 324.135 151.223C323.387 152.783 322.663 154.354 321.881 155.9C321.119 157.455 320.32 158.995 319.489 160.522L318.133 159.966C318.609 158.294 319.117 156.635 319.661 154.991C320.185 153.339 320.768 151.71 321.326 150.072C321.919 148.448 322.487 146.813 323.1 145.198C323.72 143.584 324.313 141.96 324.954 140.356L325.844 138.126L327.769 139.597C329.361 140.812 330.971 142.005 332.548 143.24L337.273 146.953L334.459 147.783L336.345 142.845L338.312 137.936C339.656 134.675 341.038 131.427 342.557 128.229L343.937 128.72Z" fill="#F22222"/>
<mask id="mask0_8452_64981" style="mask-type:luminance" maskUnits="userSpaceOnUse" x="370" y="67" width="161" height="94">
<path d="M370.469 151.605C370.469 156.717 374.607 160.862 379.712 160.862H521.603C526.708 160.862 530.847 156.717 530.847 151.605V67.6152H370.469V151.605V151.605Z" fill="white"/>
</mask>
<g mask="url(#mask0_8452_64981)">
<path d="M370.469 151.605C370.469 156.717 374.607 160.862 379.712 160.862H521.603C526.708 160.862 530.847 156.717 530.847 151.605V67.6152H370.469V151.605Z" fill="white"/>
</g>
<mask id="mask1_8452_64981" style="mask-type:luminance" maskUnits="userSpaceOnUse" x="370" y="67" width="161" height="94">
<path d="M370.469 151.605C370.469 156.717 374.607 160.862 379.712 160.862H521.603C526.708 160.862 530.847 156.717 530.847 151.605V67.6152H370.469V151.605V151.605Z" fill="white"/>
</mask>
<g mask="url(#mask1_8452_64981)">
<path opacity="0.6" d="M355.207 99.9601C355.964 93.1266 362.044 87.2769 368.892 86.7943C375.74 86.3116 382.579 91.2505 384.284 97.9106C387.544 96.8997 391.353 97.9884 393.589 100.57C395.825 103.152 396.363 107.082 394.903 110.172C401.72 111.249 406.213 119.712 403.293 125.975C407.925 124.744 413.079 125.655 417.009 128.4C420.94 131.145 423.574 135.674 424.021 140.453C425.868 134.009 432.442 129.262 439.13 129.541C445.818 129.82 451.974 135.099 453.28 141.674C473.608 110.714 526.98 119.672 542.187 154.013L520.123 210.154L389.227 213.14L330.189 145.951L355.207 99.9601Z" fill="#C4C5CC"/>
<path d="M352.745 117.339C357.534 113.756 362.719 110.488 368.528 109.074C374.337 107.661 380.898 108.333 385.603 112.026C390.309 115.718 392.499 122.779 389.651 128.042C393.702 127.68 397.872 129.865 399.883 133.406C401.893 136.947 401.638 141.654 399.256 144.955C403.355 142.9 408.367 142.766 412.57 144.6C416.772 146.435 420.086 150.202 421.373 154.609C427.224 149.695 437.15 150.902 441.657 157.075C451.373 147.815 466.222 142.709 478.543 148.016C485.689 151.095 491.155 157.263 494.856 164.117C498.556 170.97 500.68 178.545 502.776 186.048L391.612 196.118L345.097 181.187L352.745 117.339Z" fill="white"/>
<path d="M468.685 87.5962C465.383 86.2189 461.967 86.0496 459.15 86.8782C457.387 84.6755 454.681 83.2617 451.643 83.2617C446.328 83.2617 442.02 87.5765 442.02 92.8991C442.02 94.2845 442.318 95.5986 442.843 96.7893C440.969 98.0614 439.737 100.211 439.737 102.65C439.737 106.069 442.158 108.921 445.378 109.58C445.321 110.002 445.282 110.43 445.282 110.867C445.282 116.19 449.59 120.505 454.905 120.505C459.455 120.505 463.259 117.338 464.261 113.087C465.274 113.649 466.437 113.971 467.677 113.971C471.578 113.971 474.741 110.804 474.741 106.897C474.741 105.996 474.566 105.138 474.26 104.346C475.257 103.534 476.048 102.52 476.548 101.317C478.592 96.403 475.071 90.2604 468.685 87.5962Z" fill="#F0F1F5"/>
<path d="M429.3 82.3681C427.637 81.6746 425.917 81.5893 424.499 82.0066C423.611 80.8974 422.248 80.1855 420.718 80.1855C418.042 80.1855 415.873 82.3582 415.873 85.0383C415.873 85.736 416.023 86.3976 416.288 86.997C415.344 87.6374 414.723 88.7199 414.723 89.9478C414.723 91.6694 415.943 93.1056 417.564 93.4376C417.535 93.6502 417.516 93.8654 417.516 94.0856C417.516 96.7656 419.685 98.9383 422.361 98.9383C424.652 98.9383 426.567 97.3435 427.072 95.2034C427.582 95.4863 428.168 95.6482 428.792 95.6482C430.757 95.6482 432.349 94.0535 432.349 92.0862C432.349 91.6327 432.261 91.2006 432.107 90.8017C432.609 90.3929 433.007 89.8821 433.259 89.2764C434.288 86.8025 432.515 83.7096 429.3 82.3681Z" fill="#F0F1F5"/>
<path d="M401.205 79.4846C401.451 80.3684 401.323 81.3368 400.591 82.2438C398.87 84.3773 395.822 83.4279 395.056 81.0188C394.758 80.0791 394.617 79.0479 394.929 78.1122C396.033 74.8007 400.437 76.7314 401.205 79.4846Z" fill="#C4C5CC"/>
<path d="M429.978 116.165C430.135 116.726 430.053 117.341 429.589 117.917C428.495 119.272 426.56 118.669 426.073 117.139C425.884 116.542 425.794 115.887 425.993 115.293C426.693 113.19 429.49 114.416 429.978 116.165Z" fill="#C4C5CC"/>
<path d="M496.881 89.8833C497.038 90.4446 496.957 91.0597 496.492 91.6356C495.399 92.9905 493.463 92.3877 492.977 90.8577C492.787 90.261 492.698 89.6062 492.896 89.0119C493.597 86.9086 496.394 88.135 496.881 89.8833Z" fill="#C4C5CC"/>
</g>
<path d="M521.603 161.332H379.712C374.357 161.332 370 156.968 370 151.605V67.1465H531.316V151.605C531.316 156.968 526.959 161.332 521.603 161.332ZM370.938 68.0849V151.605C370.938 156.451 374.874 160.393 379.712 160.393H521.603C526.442 160.393 530.378 156.451 530.378 151.605V68.0849H370.938Z" fill="#9698A3"/>
<path d="M521.603 31.4688H379.712C374.607 31.4688 370.469 35.6134 370.469 40.726V67.6146H530.847V40.7262C530.847 35.6134 526.708 31.4688 521.603 31.4688Z" fill="white"/>
<path d="M531.316 68.084H370V40.7266C370 35.3632 374.357 31 379.712 31H521.603C526.959 31 531.316 35.363 531.316 40.7266V68.084H531.316ZM370.938 67.1457H530.378V40.7266C530.378 35.881 526.441 31.9384 521.603 31.9384H379.712C374.873 31.9384 370.938 35.881 370.938 40.7266L370.938 67.1457Z" fill="#9698A3"/>
<path d="M392.234 56.2694C395.944 56.2694 398.951 53.2574 398.951 49.5419C398.951 45.8264 395.944 42.8145 392.234 42.8145C388.524 42.8145 385.516 45.8264 385.516 49.5419C385.516 53.2574 388.524 56.2694 392.234 56.2694Z" fill="#C4C5CC"/>
<path d="M490.495 55.4864H415.823C412.544 55.4864 409.886 52.8247 409.886 49.541C409.886 46.2576 412.544 43.5957 415.823 43.5957H490.495C493.773 43.5957 496.431 46.2574 496.431 49.541C496.431 52.8244 493.774 55.4864 490.495 55.4864Z" fill="white"/>
<path d="M490.495 55.956H415.823C412.291 55.956 409.417 53.0786 409.417 49.5415C409.417 46.0042 412.291 43.127 415.823 43.127H490.495C494.027 43.127 496.9 46.0044 496.9 49.5415C496.9 53.0788 494.027 55.956 490.495 55.956ZM415.823 44.0651C412.808 44.0651 410.355 46.522 410.355 49.5413C410.355 52.5606 412.808 55.0174 415.823 55.0174H490.495C493.51 55.0174 495.962 52.5606 495.962 49.5413C495.962 46.522 493.51 44.0651 490.495 44.0651H415.823Z" fill="#9698A3"/>
<path d="M485.808 111.547C485.808 111.547 472.346 98.8581 458.885 98.5938L468.651 105.203L450.438 101.766L467.331 110.225L447.535 111.547C458.141 113.43 467.512 118.308 475.25 127.144L485.808 111.547Z" fill="#9698A3"/>
<path opacity="0.6" d="M484.648 117.28C484.648 117.28 478.984 107.793 471.885 106.346L476.294 111.548L467.045 107.598L475.015 114.674L464.378 113.653C469.778 115.877 474.178 119.921 477.256 126.373L484.648 117.28Z" fill="white"/>
<path d="M534.446 140.893C527.248 128.278 531.731 111.579 524.805 107.297L511.056 124.348L534.446 140.893Z" fill="#E31837"/>
<path d="M524.805 107.298L523.026 107.106C521.131 106.903 519.24 107.521 517.829 108.805L506.204 119.388L511.056 124.349L524.805 107.298Z" fill="#9698A3"/>
<path d="M514.098 166.128C500.268 161.737 484.912 169.642 479.274 163.762L493.024 146.711L514.098 166.128Z" fill="#E31837"/>
<path d="M479.274 163.763L478.713 162.061C478.115 160.249 478.321 158.267 479.277 156.616L487.16 143.006L493.024 146.712L479.274 163.763Z" fill="#9698A3"/>
<path d="M548.731 173.378L543.73 159.32L533.956 171.441L548.731 173.378Z" fill="#1B1B43"/>
<path d="M480.056 132.687C490.143 154.295 508.72 171.183 533.96 171.438L543.73 159.322C538.167 134.664 517.771 120.032 494.556 114.705L480.056 132.687Z" fill="#9698A3"/>
<path d="M494.556 114.704L489.195 106.789L471.197 129.109L480.056 132.687L494.556 114.704Z" fill="#E31837"/>
<path d="M474.803 113.588C475.509 112.712 476.79 112.575 477.664 113.283L496 128.112C496.874 128.819 497.01 130.102 496.304 130.978C495.598 131.853 494.317 131.99 493.443 131.283L475.108 116.453C474.233 115.746 474.097 114.463 474.803 113.588Z" fill="#1B1B43"/>
<path d="M533.123 154.1C533.25 149.381 529.533 145.453 524.822 145.326C520.11 145.199 516.188 148.922 516.062 153.64C515.935 158.359 519.651 162.287 524.363 162.414C529.074 162.54 532.996 158.818 533.123 154.1Z" fill="white"/>
<path d="M525.15 159.015C528.013 158.71 530.087 156.138 529.782 153.27C529.477 150.402 526.909 148.325 524.046 148.631C521.182 148.936 519.108 151.508 519.413 154.376C519.718 157.244 522.287 159.321 525.15 159.015Z" fill="#1B1B43"/>
<path d="M526.716 154.04C526.306 153.709 526.242 153.107 526.573 152.697C526.904 152.287 527.505 152.222 527.915 152.554C528.324 152.885 528.388 153.487 528.057 153.897C527.727 154.308 527.126 154.372 526.716 154.04Z" fill="white"/>
<path d="M319.248 225.698L286.676 223.717L244.179 234.963C229.276 238.905 217.175 249.795 211.682 264.213L185.128 333.857L237.308 287.55L251.68 360.458L349.161 360.145L348.848 258.919L319.248 225.698Z" fill="#E31837"/>
<path d="M293.262 263.492C287.359 263.492 281.847 261.19 278.201 257.121L278.898 256.494C282.8 260.848 288.968 263.081 295.389 262.449C302.271 261.78 308.285 257.925 311.89 251.873L312.695 252.355C308.936 258.665 302.661 262.686 295.48 263.384C294.737 263.456 293.995 263.492 293.262 263.492Z" fill="#C20522"/>
<path d="M297.315 250.753C291.072 253.776 283.405 250.791 280.265 244.107L279.206 241.844L268.464 218.986L261.894 204.99L293.64 189.623L307.466 219.043C313.146 231.143 308.619 245.28 297.315 250.753Z" fill="#FFDBC7"/>
<path d="M296.668 213.082C293.875 226.712 286.892 236.053 279.206 241.845L268.464 218.986L296.668 213.082Z" fill="#FFD6BF"/>
<path d="M300.391 196.025C300.391 212.486 291.124 223.769 279.37 229.586C267.273 235.572 254.642 212.574 248.609 197.199C242.347 181.24 259.586 169.271 274.019 169.271C288.451 169.272 300.391 179.565 300.391 196.025Z" fill="#FFDBC7"/>
<path d="M301.045 186.637C299.639 169.74 296.21 153.767 280.581 157.85C274.644 149.558 249.805 149.714 243.713 169.427C239.783 182.145 227.154 188.358 227.154 188.358C242.307 196.337 256.276 193.349 275.738 178.502C281.83 187.419 299.171 188.045 299.171 188.045L301.045 186.637Z" fill="#101014"/>
<path d="M305.891 194.571C306.575 189.236 303.752 184.478 299.588 183.943C295.423 183.408 291.493 187.299 290.81 192.635C290.127 197.97 292.949 202.729 297.114 203.263C301.278 203.798 305.208 199.907 305.891 194.571Z" fill="#FFDBC7"/>
<path d="M299.871 189.588C298.862 190.422 298.53 191.551 298.541 192.759C298.548 193.357 298.643 193.963 298.817 194.54C299 195.117 299.246 195.662 299.662 196.141L299.383 196.616C298.611 196.362 298.035 195.711 297.68 195.024C297.318 194.326 297.142 193.548 297.142 192.762C297.147 191.981 297.323 191.17 297.759 190.477C298.18 189.782 298.885 189.243 299.642 189.088L299.871 189.588Z" fill="#101014"/>
<path d="M273.698 202.418C275.004 202.331 275.984 201.073 275.887 199.607C275.789 198.142 274.652 197.024 273.346 197.11C272.04 197.197 271.06 198.456 271.157 199.921C271.255 201.387 272.392 202.505 273.698 202.418Z" fill="#101014"/>
<path d="M261.973 206.794C263.081 206.364 263.59 205.009 263.109 203.765C262.629 202.522 261.342 201.862 260.234 202.291C259.126 202.72 258.618 204.076 259.098 205.319C259.578 206.563 260.865 207.223 261.973 206.794Z" fill="#101014"/>
<path d="M279.944 192.91C279.993 193.654 276.046 193.415 274.35 193.773C272.902 194.08 270.697 195.492 269.702 194.082C268.806 192.81 271.059 191.367 273.851 191.182C276.643 190.996 279.894 192.165 279.944 192.91Z" fill="#101014"/>
<path d="M254.504 201.091C254.947 201.701 256.963 199.604 258.12 199.066C259.109 198.607 261.213 198.652 260.866 197.061C260.554 195.626 258.405 195.581 256.755 196.785C255.105 197.989 254.06 200.482 254.504 201.091Z" fill="#101014"/>
<path d="M270.307 217.841C271.21 216.753 272.5 216.047 273.807 215.606C275.128 215.172 276.486 214.982 277.858 215.083L277.959 215.624C276.714 216.215 275.453 216.545 274.24 216.939C273.016 217.318 271.866 217.769 270.636 218.282L270.307 217.841Z" fill="#101014"/>
<path d="M266.754 206.052C266.823 207.075 266.671 208.164 266.144 209.159C265.89 209.655 265.524 210.103 265.154 210.476C264.79 210.85 264.421 211.162 264.334 211.386C264.306 211.5 264.256 211.588 264.281 211.756C264.275 211.859 264.303 211.864 264.297 211.881C264.301 211.906 264.34 211.94 264.364 211.984C264.538 212.181 264.951 212.381 265.364 212.534C266.217 212.838 267.181 213.043 268.131 213.269L268.118 213.819C267.094 213.957 266.077 213.951 265.022 213.722C264.496 213.591 263.95 213.439 263.395 212.955C263.267 212.81 263.128 212.656 263.04 212.454C262.949 212.238 262.891 212.01 262.893 211.86C262.844 211.535 262.911 211.123 263.071 210.783C263.435 210.112 263.891 209.816 264.227 209.501C264.578 209.197 264.862 208.887 265.119 208.535C265.625 207.829 265.943 206.941 266.207 205.998L266.754 206.052Z" fill="#FFC9AC"/>
<path opacity="0.2" d="M292.308 203.683C292.348 200.367 289.697 197.647 286.387 197.607C283.077 197.566 280.361 200.221 280.32 203.536C280.28 206.851 282.931 209.572 286.241 209.612C289.551 209.653 292.267 206.998 292.308 203.683Z" fill="#FFBA94"/>
<path d="M373.546 259.707C364.285 240.201 345.174 227.284 323.644 225.97L319.248 225.697L351.671 299.64L387.16 286.446L373.546 259.707Z" fill="#E31837"/>
<path d="M260.272 211.516C259.921 206.118 260.858 193.446 257.578 194.854C254.297 196.262 253.477 214.566 253.477 214.566C253.477 214.566 253.008 184.057 249.493 185.465C245.978 186.873 245.978 208.933 238.246 232.401L194.816 324.259C189.592 335.309 196.173 348.327 208.158 350.65C216.949 352.354 225.71 347.575 229.052 339.256C240.301 311.264 260.962 250.856 262.967 239.091C264.607 229.469 264.184 225.308 263.55 222.834C262.502 218.746 260.547 215.728 260.272 211.516Z" fill="#FFDBC7"/>
<path d="M238.518 230.371C239.847 226.752 240.716 222.97 241.525 219.191C242.322 215.405 242.992 211.592 243.681 207.78L245.718 196.331C246.076 194.424 246.448 192.518 246.894 190.619C247.118 189.67 247.359 188.722 247.659 187.78C247.813 187.309 247.978 186.839 248.193 186.37C248.298 186.136 248.425 185.902 248.581 185.667C248.75 185.446 248.932 185.165 249.388 185.023L249.353 185.032C249.488 185.006 249.633 184.99 249.771 184.988C249.902 185.009 250.031 185.058 250.155 185.107C250.353 185.225 250.542 185.377 250.646 185.526C250.901 185.827 251.044 186.133 251.185 186.44C251.454 187.053 251.648 187.669 251.809 188.288C252.138 189.525 252.368 190.768 252.568 192.014C252.96 194.507 253.227 197.008 253.436 199.512C253.842 204.521 254.059 209.541 254.01 214.571L252.943 214.548C253.061 211.708 253.274 208.889 253.595 206.068C253.936 203.252 254.33 200.431 255.215 197.669C255.457 196.982 255.723 196.296 256.13 195.64C256.345 195.316 256.585 194.99 256.942 194.725C257.279 194.44 257.806 194.303 258.288 194.369C258.401 194.395 258.508 194.436 258.617 194.473C258.73 194.522 258.82 194.52 258.962 194.645C259.027 194.696 259.089 194.752 259.146 194.81C259.197 194.865 259.214 194.908 259.249 194.959C259.305 195.054 259.382 195.16 259.414 195.25C259.58 195.621 259.687 195.979 259.777 196.336C259.961 197.05 260.067 197.758 260.17 198.467C260.536 201.303 260.633 204.142 260.609 206.978C260.6 208.409 260.51 209.796 260.633 211.171C260.745 212.551 260.997 213.918 261.352 215.263C261.71 216.608 262.164 217.931 262.659 219.244C263.167 220.544 263.675 221.92 263.959 223.321C264.564 226.13 264.63 229.016 264.371 231.844C264.109 234.676 263.557 237.467 262.819 240.199L262.412 240.093C263.095 237.366 263.589 234.591 263.796 231.797C264 229.008 263.879 226.188 263.244 223.484C262.938 222.121 262.469 220.84 261.94 219.518C261.431 218.196 260.959 216.85 260.583 215.47C260.208 214.089 259.938 212.674 259.813 211.24C259.676 209.801 259.759 208.363 259.758 206.973C259.765 204.168 259.649 201.352 259.274 198.593C259.17 197.908 259.062 197.218 258.888 196.566C258.805 196.24 258.703 195.922 258.58 195.649C258.552 195.572 258.513 195.54 258.484 195.482C258.45 195.408 258.426 195.403 258.426 195.403C258.45 195.386 258.351 195.368 258.303 195.349C258.245 195.331 258.187 195.303 258.13 195.288C257.715 195.222 257.263 195.589 256.929 196.146C256.594 196.692 256.346 197.329 256.124 197.973C255.3 200.596 254.918 203.401 254.602 206.181C254.301 208.969 254.107 211.782 254.01 214.581L252.943 214.558C252.99 209.571 252.827 204.569 252.446 199.592C252.253 197.104 252.001 194.62 251.63 192.162C251.44 190.935 251.22 189.711 250.912 188.526C250.762 187.932 250.579 187.349 250.348 186.815C250.234 186.554 250.1 186.287 249.948 186.112C249.876 186.001 249.798 185.968 249.741 185.917C249.717 185.919 249.7 185.902 249.681 185.892C249.664 185.907 249.653 185.907 249.633 185.896L249.598 185.906C249.581 185.904 249.428 186.017 249.321 186.184C249.209 186.353 249.101 186.543 249.007 186.751C248.815 187.161 248.654 187.606 248.506 188.054C248.212 188.956 247.969 189.887 247.743 190.821C247.292 192.693 246.91 194.589 246.542 196.488L244.439 207.917C243.747 211.732 242.989 215.537 242.129 219.323C241.252 223.101 240.317 226.883 238.911 230.522L238.518 230.371Z" fill="#FFCEB3"/>
<path d="M404.131 338.045C403.971 348.859 399.266 356.416 393.37 360.771L381.401 360.584L378.439 360.537H378.373L364.304 328.461L364.276 328.385L351.669 299.642L387.156 286.443L400.4 318.998C403.118 326.198 404.215 332.544 404.131 338.045Z" fill="#FFDBC7"/>
<path d="M394.308 325.1L301.151 335.538L289.03 331.616C283.543 329.84 277.534 330.933 273.028 334.537C262.458 342.992 245.274 358.576 249.728 359.831C257.226 361.943 267.019 357.991 275.811 355.78C280.667 354.559 285.798 355.136 290.254 357.422L296.349 360.548L389.152 360.535L394.308 325.1Z" fill="#FFDBC7"/>
<path d="M251.946 358.18C254.46 356.707 257.012 355.31 259.573 353.929C262.127 352.534 264.725 351.226 267.298 349.871C268.567 349.204 269.926 348.519 271.344 348.026C272.762 347.538 274.228 347.183 275.715 347.018C277.202 346.851 278.701 346.834 280.182 346.968C281.66 347.131 283.123 347.417 284.52 347.898L284.376 348.429C282.965 348.153 281.545 347.966 280.121 347.95C278.701 347.903 277.28 348 275.888 348.237C274.495 348.471 273.124 348.822 271.806 349.32C270.475 349.788 269.247 350.453 267.931 351.114C265.323 352.402 262.74 353.739 260.112 354.989C257.492 356.252 254.863 357.499 252.196 358.671L251.946 358.18Z" fill="#C40623"/>
<path d="M253.302 353.519C254.993 351.915 256.763 350.408 258.569 348.942C260.369 347.467 262.225 346.062 264.124 344.712C266.034 343.378 267.968 342.069 270.023 340.937C272.086 339.852 274.187 338.668 276.652 338.438L276.698 338.986C275.633 339.267 274.595 339.683 273.604 340.26C272.59 340.767 271.619 341.386 270.65 341.994C268.712 343.22 266.822 344.542 264.93 345.858C263.036 347.176 261.178 348.549 259.291 349.886C257.416 351.239 255.547 352.608 253.652 353.944L253.302 353.519Z" fill="#C40623"/>
<path d="M376.624 327.389L364.126 327.695L364.161 329.102L376.659 328.796L376.624 327.389Z" fill="#FFD3BB"/>
<path d="M343.021 280.912L342.179 281.326L351.252 299.829L352.094 299.415L343.021 280.912Z" fill="#EBEBFF"/>
<path opacity="0.2" d="M404.131 338.044C403.971 348.858 399.266 356.415 393.37 360.771L381.401 360.583C381.392 360.564 381.392 360.555 381.392 360.536C380.951 358.968 380.717 357.316 380.717 355.608C380.717 347.844 385.535 341.217 392.349 338.551C394.411 337.744 396.651 337.303 398.994 337.303C400.775 337.303 402.5 337.556 404.131 338.044Z" fill="#FFB58C"/>
<path d="M255.742 349.217H202.315V360.481H255.742V349.217Z" fill="#1B1B43"/>
<path d="M220.436 360.482H135.61L111.24 275.527H196.066L220.436 360.482Z" fill="#DCDDE0"/>
<path d="M135.272 360.578L110.773 275.174H137.016V275.878H111.707L135.948 360.383L135.272 360.578Z" fill="#1B1B43"/>
<path d="M211.351 329.422L195.803 275.878H156.7V275.174H196.33L212.026 329.226L211.351 329.422Z" fill="#1B1B43"/>
<path d="M221.549 70.364C222.655 66.6371 220.536 62.7173 216.815 61.6088C213.094 60.5003 209.18 62.6228 208.073 66.3497C206.966 70.0765 209.085 73.9963 212.807 75.1048C216.528 76.2133 220.442 74.0908 221.549 70.364Z" fill="#F0F1F5"/>
<path d="M74.5912 238.494C75.7411 233.616 72.7254 228.729 67.8555 227.577C62.9856 226.426 58.1056 229.446 56.9557 234.323C55.8057 239.2 58.8214 244.088 63.6913 245.24C68.5612 246.391 73.4412 243.371 74.5912 238.494Z" fill="#F0F1F5"/>
<path d="M509.597 261.268C513.479 261.268 516.627 258.116 516.627 254.228C516.627 250.339 513.479 247.188 509.597 247.188C505.715 247.188 502.567 250.339 502.567 254.228C502.567 258.116 505.715 261.268 509.597 261.268Z" fill="#F0F1F5"/>
<path d="M500.817 258.836L500.8 257.897C501.935 257.875 503.05 257.679 504.116 257.314L504.419 258.201C503.262 258.599 502.05 258.812 500.817 258.836ZM497.193 258.345C496.017 257.993 494.906 257.461 493.893 256.763L494.424 255.99C495.356 256.631 496.379 257.122 497.462 257.445L497.193 258.345ZM507.654 256.492L507.094 255.739C508.002 255.061 508.795 254.25 509.453 253.331L510.215 253.877C509.502 254.875 508.64 255.756 507.654 256.492ZM491.231 254.249C490.476 253.276 489.88 252.197 489.459 251.043L490.34 250.722C490.727 251.784 491.276 252.778 491.971 253.674L491.231 254.249ZM511.858 250.604L510.965 250.317C511.309 249.243 511.483 248.121 511.483 246.983C511.484 246.694 511.473 246.408 511.451 246.126L512.385 246.051C512.409 246.36 512.422 246.671 512.421 246.985C512.421 248.218 512.231 249.437 511.858 250.604ZM488.757 247.451C488.75 247.297 488.748 247.142 488.747 246.986C488.747 245.905 488.892 244.838 489.176 243.811L490.079 244.061C489.817 245.007 489.685 245.99 489.685 246.983C489.686 247.126 489.688 247.27 489.693 247.413L488.757 247.451ZM510.672 242.843C510.244 241.797 509.657 240.828 508.927 239.959L509.645 239.355C510.437 240.298 511.075 241.351 511.539 242.487L510.672 242.843ZM491.472 240.991L490.69 240.475C491.365 239.448 492.191 238.534 493.146 237.762L493.736 238.492C492.856 239.203 492.095 240.044 491.472 240.991ZM506.387 237.742C505.43 237.137 504.39 236.687 503.294 236.408L503.527 235.498C504.717 235.803 505.848 236.291 506.887 236.948L506.387 237.742ZM496.649 236.8L496.312 235.925C497.455 235.481 498.657 235.22 499.887 235.148L499.94 236.086C498.809 236.152 497.702 236.392 496.649 236.8Z" fill="#9698A3"/>
<path d="M343.224 89.0107C340.381 89.0107 338.069 86.6948 338.069 83.8479C338.069 81.0012 340.381 78.6855 343.224 78.6855C346.067 78.6855 348.379 81.0012 348.379 83.8479C348.379 86.6948 346.067 89.0107 343.224 89.0107ZM343.224 79.6237C340.898 79.6237 339.006 81.5185 339.006 83.8477C339.006 86.1768 340.898 88.0721 343.224 88.0721C345.55 88.0721 347.442 86.1768 347.442 83.8477C347.442 81.5188 345.55 79.6237 343.224 79.6237Z" fill="#9698A3"/>
<path d="M522.562 359.754H60.7817V361.163H522.562V359.754Z" fill="#1B1B43"/>
<path d="M204.584 399V382.152H207.128L215.216 394.8V382.2H217.616V399.048H215.072L207.008 386.52V399H204.584ZM219.918 392.52C219.918 391.4 220.014 390.424 220.206 389.592C220.414 388.76 220.742 388.072 221.19 387.528C221.638 386.968 222.238 386.544 222.99 386.256C223.742 385.968 224.67 385.824 225.774 385.824C226.878 385.824 227.806 385.968 228.558 386.256C229.31 386.544 229.91 386.968 230.358 387.528C230.806 388.072 231.126 388.76 231.318 389.592C231.526 390.424 231.63 391.4 231.63 392.52C231.63 393.656 231.518 394.648 231.294 395.496C231.086 396.344 230.75 397.048 230.286 397.608C229.822 398.152 229.214 398.56 228.462 398.832C227.726 399.104 226.83 399.24 225.774 399.24C224.718 399.24 223.814 399.104 223.062 398.832C222.326 398.56 221.726 398.152 221.262 397.608C220.798 397.048 220.454 396.344 220.23 395.496C220.022 394.648 219.918 393.656 219.918 392.52ZM222.582 392.52C222.582 393.688 222.686 394.616 222.894 395.304C223.118 395.992 223.462 396.488 223.926 396.792C224.406 397.096 225.022 397.248 225.774 397.248C226.526 397.248 227.134 397.096 227.598 396.792C228.062 396.488 228.398 395.992 228.606 395.304C228.83 394.616 228.942 393.688 228.942 392.52C228.942 391.352 228.846 390.432 228.654 389.76C228.462 389.072 228.126 388.584 227.646 388.296C227.182 387.992 226.558 387.84 225.774 387.84C224.974 387.84 224.342 387.992 223.878 388.296C223.414 388.584 223.078 389.072 222.87 389.76C222.678 390.432 222.582 391.352 222.582 392.52ZM246.299 399.24C245.611 399.24 244.939 399.232 244.283 399.216C243.627 399.2 242.979 399.176 242.339 399.144C241.699 399.112 241.067 399.08 240.443 399.048V382.2C241.131 382.136 241.787 382.088 242.411 382.056C243.035 382.024 243.643 382 244.235 381.984C244.843 381.968 245.467 381.96 246.107 381.96C247.963 381.96 249.467 382.264 250.619 382.872C251.787 383.464 252.643 384.4 253.187 385.68C253.731 386.944 254.003 388.592 254.003 390.624C254.003 392.608 253.715 394.24 253.139 395.52C252.563 396.784 251.707 397.72 250.571 398.328C249.435 398.936 248.011 399.24 246.299 399.24ZM246.371 397.08C247.443 397.08 248.331 396.872 249.035 396.456C249.755 396.024 250.291 395.336 250.643 394.392C251.011 393.448 251.195 392.2 251.195 390.648C251.195 389.032 251.019 387.752 250.667 386.808C250.315 385.864 249.779 385.184 249.059 384.768C248.339 384.336 247.403 384.12 246.251 384.12C245.963 384.12 245.635 384.128 245.267 384.144C244.899 384.16 244.531 384.176 244.163 384.192C243.811 384.208 243.475 384.224 243.155 384.24V396.96C243.395 396.976 243.651 396.992 243.923 397.008C244.211 397.024 244.499 397.04 244.787 397.056C245.075 397.056 245.355 397.064 245.627 397.08C245.899 397.08 246.147 397.08 246.371 397.08ZM255.445 395.76C255.445 394.976 255.597 394.336 255.901 393.84C256.221 393.328 256.701 392.928 257.341 392.64C257.981 392.336 258.781 392.104 259.741 391.944C260.701 391.768 261.813 391.632 263.077 391.536V390.048C263.077 389.392 262.845 388.896 262.381 388.56C261.933 388.224 261.269 388.056 260.389 388.056C260.069 388.056 259.701 388.072 259.285 388.104C258.885 388.136 258.461 388.192 258.013 388.272C257.565 388.352 257.109 388.464 256.645 388.608L256.213 386.52C256.901 386.296 257.629 386.128 258.397 386.016C259.165 385.888 259.885 385.824 260.557 385.824C261.725 385.824 262.685 385.984 263.437 386.304C264.205 386.608 264.773 387.072 265.141 387.696C265.525 388.32 265.717 389.096 265.717 390.024V395.736C265.717 396.216 265.789 396.544 265.933 396.72C266.077 396.88 266.261 396.96 266.485 396.96C266.565 396.96 266.661 396.952 266.773 396.936C266.885 396.92 266.997 396.888 267.109 396.84L267.349 398.76C267.093 398.904 266.813 399.016 266.509 399.096C266.205 399.192 265.877 399.24 265.525 399.24C264.917 399.24 264.429 399.104 264.061 398.832C263.709 398.544 263.469 398.112 263.341 397.536C262.941 397.84 262.509 398.128 262.045 398.4C261.597 398.656 261.101 398.856 260.557 399C260.029 399.16 259.445 399.24 258.805 399.24C258.293 399.24 257.829 399.16 257.413 399C257.013 398.856 256.661 398.64 256.357 398.352C256.069 398.048 255.845 397.68 255.685 397.248C255.525 396.816 255.445 396.32 255.445 395.76ZM258.085 395.568C258.085 396.192 258.237 396.656 258.541 396.96C258.845 397.264 259.253 397.416 259.765 397.416C260.149 397.416 260.541 397.36 260.941 397.248C261.341 397.12 261.725 396.952 262.093 396.744C262.477 396.52 262.805 396.256 263.077 395.952V393.024C262.309 393.088 261.621 393.168 261.013 393.264C260.405 393.36 259.877 393.504 259.429 393.696C258.997 393.872 258.661 394.112 258.421 394.416C258.197 394.72 258.085 395.104 258.085 395.568ZM273.006 399.24C272.19 399.24 271.51 399.088 270.966 398.784C270.422 398.48 270.014 398.016 269.742 397.392C269.486 396.752 269.358 395.952 269.358 394.992V388.008H267.246V386.28L269.358 386.064L269.694 383.112H271.95V386.064H275.934V388.008H271.95V394.8C271.95 395.584 272.102 396.152 272.406 396.504C272.71 396.856 273.198 397.032 273.87 397.032C274.206 397.032 274.55 397 274.902 396.936C275.27 396.856 275.646 396.768 276.03 396.672L276.39 398.664C275.782 398.872 275.19 399.016 274.614 399.096C274.038 399.192 273.502 399.24 273.006 399.24ZM277.101 395.76C277.101 394.976 277.253 394.336 277.557 393.84C277.877 393.328 278.357 392.928 278.997 392.64C279.637 392.336 280.437 392.104 281.397 391.944C282.357 391.768 283.469 391.632 284.733 391.536V390.048C284.733 389.392 284.501 388.896 284.037 388.56C283.589 388.224 282.925 388.056 282.045 388.056C281.725 388.056 281.357 388.072 280.941 388.104C280.541 388.136 280.117 388.192 279.669 388.272C279.221 388.352 278.765 388.464 278.301 388.608L277.869 386.52C278.557 386.296 279.285 386.128 280.053 386.016C280.821 385.888 281.541 385.824 282.213 385.824C283.381 385.824 284.341 385.984 285.093 386.304C285.861 386.608 286.429 387.072 286.797 387.696C287.181 388.32 287.373 389.096 287.373 390.024V395.736C287.373 396.216 287.445 396.544 287.589 396.72C287.733 396.88 287.917 396.96 288.141 396.96C288.221 396.96 288.317 396.952 288.429 396.936C288.541 396.92 288.653 396.888 288.765 396.84L289.005 398.76C288.749 398.904 288.469 399.016 288.165 399.096C287.861 399.192 287.533 399.24 287.181 399.24C286.573 399.24 286.085 399.104 285.717 398.832C285.365 398.544 285.125 398.112 284.997 397.536C284.597 397.84 284.165 398.128 283.701 398.4C283.253 398.656 282.757 398.856 282.213 399C281.685 399.16 281.101 399.24 280.461 399.24C279.949 399.24 279.485 399.16 279.069 399C278.669 398.856 278.317 398.64 278.013 398.352C277.725 398.048 277.501 397.68 277.341 397.248C277.181 396.816 277.101 396.32 277.101 395.76ZM279.741 395.568C279.741 396.192 279.893 396.656 280.197 396.96C280.501 397.264 280.909 397.416 281.421 397.416C281.805 397.416 282.197 397.36 282.597 397.248C282.997 397.12 283.381 396.952 283.749 396.744C284.133 396.52 284.461 396.256 284.733 395.952V393.024C283.965 393.088 283.277 393.168 282.669 393.264C282.061 393.36 281.533 393.504 281.085 393.696C280.653 393.872 280.317 394.112 280.077 394.416C279.853 394.72 279.741 395.104 279.741 395.568ZM297.092 399V382.2H308.132V384.624H299.804V390.168H307.028V392.496H299.828V399H297.092ZM308.746 392.52C308.746 391.4 308.842 390.424 309.034 389.592C309.242 388.76 309.57 388.072 310.018 387.528C310.466 386.968 311.066 386.544 311.818 386.256C312.57 385.968 313.498 385.824 314.602 385.824C315.706 385.824 316.634 385.968 317.386 386.256C318.138 386.544 318.738 386.968 319.186 387.528C319.634 388.072 319.954 388.76 320.146 389.592C320.354 390.424 320.458 391.4 320.458 392.52C320.458 393.656 320.346 394.648 320.122 395.496C319.914 396.344 319.578 397.048 319.114 397.608C318.65 398.152 318.042 398.56 317.29 398.832C316.554 399.104 315.658 399.24 314.602 399.24C313.546 399.24 312.642 399.104 311.89 398.832C311.154 398.56 310.554 398.152 310.09 397.608C309.626 397.048 309.282 396.344 309.058 395.496C308.85 394.648 308.746 393.656 308.746 392.52ZM311.41 392.52C311.41 393.688 311.514 394.616 311.722 395.304C311.946 395.992 312.29 396.488 312.754 396.792C313.234 397.096 313.85 397.248 314.602 397.248C315.354 397.248 315.962 397.096 316.426 396.792C316.89 396.488 317.226 395.992 317.434 395.304C317.658 394.616 317.77 393.688 317.77 392.52C317.77 391.352 317.674 390.432 317.482 389.76C317.29 389.072 316.954 388.584 316.474 388.296C316.01 387.992 315.386 387.84 314.602 387.84C313.802 387.84 313.17 387.992 312.706 388.296C312.242 388.584 311.906 389.072 311.698 389.76C311.506 390.432 311.41 391.352 311.41 392.52ZM326.234 399.24C325.498 399.24 324.858 399.112 324.314 398.856C323.77 398.584 323.346 398.176 323.042 397.632C322.754 397.088 322.61 396.408 322.61 395.592V386.064H325.202V395.04C325.202 395.68 325.378 396.176 325.73 396.528C326.082 396.88 326.594 397.056 327.266 397.056C327.618 397.056 327.962 397.016 328.298 396.936C328.634 396.856 328.962 396.752 329.282 396.624C329.618 396.48 329.962 396.312 330.314 396.12V386.064H332.906V395.808C332.906 396.112 332.938 396.352 333.002 396.528C333.082 396.704 333.186 396.832 333.314 396.912C333.442 396.976 333.578 397.008 333.722 397.008C333.93 397.008 334.13 396.968 334.322 396.888L334.586 398.76C334.426 398.856 334.242 398.936 334.034 399C333.826 399.08 333.61 399.136 333.386 399.168C333.162 399.216 332.93 399.24 332.69 399.24C332.194 399.24 331.77 399.128 331.418 398.904C331.066 398.664 330.802 398.32 330.626 397.872C330.162 398.144 329.69 398.384 329.21 398.592C328.746 398.8 328.274 398.96 327.794 399.072C327.314 399.184 326.794 399.24 326.234 399.24ZM336.064 399V386.064H338.416V387.192C338.944 386.904 339.448 386.664 339.928 386.472C340.408 386.264 340.896 386.104 341.392 385.992C341.888 385.88 342.408 385.824 342.952 385.824C343.752 385.824 344.416 385.968 344.944 386.256C345.488 386.544 345.896 386.952 346.168 387.48C346.456 388.008 346.6 388.656 346.6 389.424V399H343.984V390.216C343.984 389.496 343.808 388.952 343.456 388.584C343.104 388.216 342.576 388.032 341.872 388.032C341.504 388.032 341.144 388.072 340.792 388.152C340.44 388.232 340.088 388.344 339.736 388.488C339.384 388.616 339.024 388.776 338.656 388.968V399H336.064ZM357.537 399.024L357.225 397.92C356.521 398.368 355.841 398.704 355.185 398.928C354.529 399.136 353.849 399.24 353.145 399.24C351.753 399.24 350.673 398.688 349.905 397.584C349.153 396.48 348.777 394.888 348.777 392.808C348.777 391.208 348.985 389.896 349.401 388.872C349.833 387.848 350.489 387.088 351.369 386.592C352.265 386.08 353.377 385.824 354.705 385.824C355.089 385.824 355.497 385.848 355.929 385.896C356.361 385.928 356.785 385.984 357.201 386.064V381.24H359.817V399.024H357.537ZM357.201 396.024V388.08C356.753 387.968 356.337 387.888 355.953 387.84C355.585 387.792 355.241 387.768 354.921 387.768C354.137 387.768 353.489 387.928 352.977 388.248C352.465 388.552 352.089 389.056 351.849 389.76C351.609 390.464 351.489 391.408 351.489 392.592C351.489 393.584 351.593 394.416 351.801 395.088C352.009 395.744 352.305 396.24 352.689 396.576C353.089 396.896 353.569 397.056 354.129 397.056C354.449 397.056 354.769 397.024 355.089 396.96C355.425 396.88 355.761 396.768 356.097 396.624C356.433 396.464 356.801 396.264 357.201 396.024Z" fill="#101014"/>
</svg>
