<svg width="21" height="21" viewBox="0 0 21 21" fill="none" xmlns="http://www.w3.org/2000/svg">
<path d="M8.59668 15.3369C8.84626 15.3369 9.04883 15.1343 9.04883 14.8848C9.04883 14.6352 8.84626 14.4326 8.59668 14.4326C8.34709 14.4326 8.14453 14.6352 8.14453 14.8848C8.14453 15.1343 8.34709 15.3369 8.59668 15.3369Z" fill="#005FEB"/>
<path d="M0.26532 15.6725L5.0531 20.4599C5.09014 20.497 5.13411 20.5264 5.18251 20.5464C5.23091 20.5665 5.28279 20.5768 5.33518 20.5768C5.38757 20.5768 5.43945 20.5665 5.48785 20.5464C5.53625 20.5264 5.58022 20.497 5.61726 20.4599L8.25054 17.8268C8.2876 17.7898 8.31699 17.7458 8.33705 17.6974C8.3571 17.649 8.36742 17.5972 8.36742 17.5448C8.36742 17.4924 8.3571 17.4405 8.33705 17.3921C8.31699 17.3437 8.2876 17.2997 8.25054 17.2627L8.13364 17.1458H13.885C14.3901 17.1458 14.8721 16.9565 15.2438 16.6114L20.0841 12.0754C20.5474 11.6451 20.701 10.9616 20.4659 10.3747C20.3825 10.1653 20.254 9.97683 20.0895 9.82269C19.925 9.66856 19.7287 9.55251 19.5143 9.48279C19.3001 9.41247 19.0731 9.39015 18.8493 9.41744C18.6255 9.44472 18.4105 9.52093 18.2195 9.64066C18.217 9.64221 17.1449 10.3457 17.1449 10.3457C17.1376 8.18308 15.8304 5.87693 14.0311 4.83873C14.1362 4.71782 14.2161 4.57708 14.266 4.42482C14.4719 3.79846 14.1296 3.12056 13.5023 2.91346C13.4827 2.90692 13.463 2.90114 13.4434 2.89507L14.4705 1.05023C14.4997 0.997863 14.5166 0.939585 14.5202 0.879738C14.5237 0.819891 14.5137 0.760018 14.4909 0.704577C14.4681 0.649099 14.4332 0.599473 14.3886 0.559401C14.3439 0.519328 14.2909 0.489843 14.2333 0.473144C13.4969 0.259026 12.7315 0.150391 11.9583 0.150391C11.1853 0.150391 10.4197 0.259026 9.68328 0.472984C9.62568 0.489702 9.57259 0.519195 9.52796 0.559267C9.48334 0.599339 9.44832 0.64896 9.42553 0.704435C9.40273 0.75991 9.39274 0.819811 9.3963 0.879681C9.39986 0.939551 9.41688 0.997847 9.44609 1.05023L10.4731 2.89507C10.4532 2.90129 10.4332 2.90724 10.4133 2.91378C9.78694 3.12056 9.44485 3.7983 9.65073 4.4251C9.70092 4.57724 9.7811 4.71778 9.88653 4.83841C8.06039 5.89205 6.77152 8.22186 6.77152 10.3636C6.77152 10.422 6.77291 10.4797 6.77479 10.5369C6.06021 10.7318 5.39583 11.087 4.83709 11.5762L3.62455 12.637L3.46276 12.4753C3.42572 12.4382 3.38175 12.4088 3.33335 12.3888C3.28495 12.3687 3.23307 12.3584 3.18068 12.3584C3.12829 12.3584 3.07641 12.3687 3.02801 12.3888C2.97961 12.4088 2.93564 12.4382 2.8986 12.4753L0.26532 15.1084C0.228265 15.1454 0.19887 15.1894 0.178815 15.2378C0.15876 15.2862 0.148438 15.338 0.148438 15.3904C0.148437 15.4428 0.15876 15.4947 0.178815 15.5431C0.19887 15.5915 0.228265 15.6354 0.26532 15.6725ZM10.3955 1.11522C10.9068 1.00423 11.4304 0.948298 11.9583 0.948298C12.4861 0.948298 13.0098 1.00423 13.5212 1.11522L12.632 2.71207C12.1851 2.64958 11.7316 2.64958 11.2847 2.71207L10.3955 1.11522ZM10.6624 3.67179C11.4811 3.4039 12.3736 3.38363 13.2531 3.67147C13.4624 3.74049 13.5767 3.96678 13.5079 4.17563C13.4833 4.25163 13.4362 4.3184 13.3729 4.3672C13.3097 4.416 13.2331 4.44455 13.1533 4.44912C12.3666 4.19897 11.5494 4.19853 10.763 4.44832C10.5991 4.43806 10.4597 4.33083 10.4086 4.17575C10.3399 3.96662 10.4541 3.74033 10.6624 3.67179ZM10.883 5.24966C11.5749 5.00047 12.2916 4.99456 12.9852 5.23286C14.8389 5.87019 16.3471 8.17187 16.3471 10.3636C16.3471 10.5494 16.3354 10.7264 16.3123 10.8919L14.3945 12.15C14.0977 11.7823 13.6477 11.5605 13.1552 11.5605H12.3573V11.0929C12.8217 10.9282 13.1552 10.4847 13.1552 9.96465C13.1552 9.30466 12.6183 8.76779 11.9583 8.76779C11.7384 8.76779 11.5593 8.5889 11.5593 8.36883C11.5593 8.14877 11.7384 7.96988 11.9583 7.96988C12.0996 7.96988 12.2488 8.04205 12.3898 8.17841C12.5482 8.33161 12.8008 8.32738 12.954 8.16924C13.1072 8.01085 13.103 7.75824 12.9447 7.60504C12.7422 7.40899 12.5396 7.29824 12.3573 7.23772V6.77302C12.3573 6.55268 12.1786 6.37407 11.9583 6.37407C11.7379 6.37407 11.5593 6.55268 11.5593 6.77302V7.24055C11.095 7.40528 10.7613 7.8488 10.7613 8.36883C10.7613 9.02882 11.2982 9.56569 11.9583 9.56569C12.1784 9.56569 12.3573 9.74459 12.3573 9.96465C12.3573 10.1847 12.1784 10.3636 11.9583 10.3636C11.7878 10.3636 11.6039 10.2564 11.4402 10.0618C11.2984 9.89312 11.0467 9.87129 10.8781 10.0131C10.7094 10.1549 10.6876 10.4066 10.8294 10.5752C11.0427 10.8289 11.2936 11.0057 11.5593 11.0948V11.5605H11.4265C11.2305 11.5605 11.1424 11.4327 11.0043 11.3434C10.1613 10.7116 9.11713 10.3636 8.06382 10.3636C7.89912 10.3636 7.73406 10.3722 7.5698 10.3889C7.5698 10.3804 7.56948 10.3722 7.56948 10.3636C7.56948 8.20255 9.056 5.90857 10.883 5.24966ZM5.36267 12.1765C6.11228 11.5201 7.07554 11.1615 8.06382 11.1615C8.94561 11.1615 9.81977 11.4527 10.5252 11.9816C10.6269 12.0411 10.9103 12.3584 11.4263 12.3584H13.1552C13.6094 12.3584 13.9532 12.7276 13.9532 13.1563C13.9532 13.5962 13.5952 13.9542 13.1552 13.9542H10.3624C10.142 13.9542 9.96337 14.1328 9.96337 14.3531C9.96337 14.5735 10.142 14.7521 10.3624 14.7521H13.1552C14.0352 14.7521 14.7511 14.0362 14.7511 13.1563C14.7511 13.0648 14.743 12.9746 14.7278 12.8857L18.6458 10.3153C18.7376 10.2584 18.8407 10.2223 18.9479 10.2095C19.0552 10.1967 19.1639 10.2075 19.2665 10.2411C19.3698 10.2747 19.4644 10.3307 19.5436 10.405C19.6229 10.4793 19.6848 10.5702 19.725 10.6711C19.8402 10.9584 19.7679 11.2803 19.5397 11.492L14.6996 16.0279C14.4783 16.2339 14.1872 16.3482 13.8849 16.3479H7.33572L4.19014 13.2024L5.36267 12.1765ZM3.18072 13.3215L7.4043 17.5448L5.33518 19.6137L1.11156 15.3904L3.18072 13.3215Z" fill="#005FEB" stroke="#005FEB" stroke-width="0.3"/>
</svg>
