<svg width="531" height="388" viewBox="0 0 531 388" fill="none" xmlns="http://www.w3.org/2000/svg">
<path d="M132.728 361.844L132.084 364.308C131.748 364.177 131.356 364.065 130.908 363.972C130.46 363.86 129.993 363.767 129.508 363.692C129.022 363.617 128.537 363.561 128.052 363.524C127.566 363.487 127.109 363.468 126.68 363.468C125.354 363.468 124.3 363.701 123.516 364.168C122.732 364.635 122.34 365.297 122.34 366.156C122.34 366.585 122.433 366.968 122.62 367.304C122.825 367.621 123.133 367.92 123.544 368.2C123.973 368.48 124.533 368.76 125.224 369.04C125.914 369.301 126.745 369.581 127.716 369.88C128.761 370.197 129.657 370.543 130.404 370.916C131.15 371.289 131.766 371.7 132.252 372.148C132.737 372.577 133.092 373.081 133.316 373.66C133.54 374.22 133.652 374.873 133.652 375.62C133.652 376.796 133.344 377.795 132.728 378.616C132.112 379.419 131.216 380.035 130.04 380.464C128.864 380.893 127.417 381.108 125.7 381.108C125.14 381.108 124.542 381.08 123.908 381.024C123.273 380.968 122.629 380.893 121.976 380.8C121.341 380.688 120.725 380.557 120.128 380.408C119.549 380.259 119.026 380.1 118.56 379.932L119.232 377.496C119.68 377.664 120.184 377.813 120.744 377.944C121.304 378.075 121.882 378.196 122.48 378.308C123.077 378.401 123.665 378.476 124.244 378.532C124.822 378.588 125.364 378.616 125.868 378.616C126.876 378.616 127.716 378.513 128.388 378.308C129.06 378.084 129.573 377.767 129.928 377.356C130.282 376.945 130.46 376.451 130.46 375.872C130.46 375.443 130.338 375.06 130.096 374.724C129.853 374.388 129.489 374.089 129.004 373.828C128.537 373.548 127.93 373.268 127.184 372.988C126.437 372.708 125.56 372.4 124.552 372.064C123.6 371.747 122.778 371.401 122.088 371.028C121.416 370.655 120.856 370.244 120.408 369.796C119.978 369.348 119.652 368.844 119.428 368.284C119.222 367.724 119.12 367.08 119.12 366.352C119.12 365.568 119.278 364.849 119.596 364.196C119.913 363.524 120.38 362.945 120.996 362.46C121.63 361.975 122.424 361.601 123.376 361.34C124.328 361.079 125.429 360.948 126.68 360.948C127.408 360.948 128.145 360.995 128.892 361.088C129.638 361.163 130.348 361.265 131.02 361.396C131.71 361.527 132.28 361.676 132.728 361.844ZM142.135 381.108C141.034 381.108 140.063 380.968 139.223 380.688C138.402 380.389 137.693 379.941 137.095 379.344C136.517 378.747 136.078 377.981 135.779 377.048C135.481 376.096 135.331 374.976 135.331 373.688C135.331 372.176 135.509 370.897 135.863 369.852C136.237 368.788 136.741 367.939 137.375 367.304C138.029 366.651 138.785 366.184 139.643 365.904C140.521 365.605 141.473 365.456 142.499 365.456C144.515 365.456 145.999 365.979 146.951 367.024C147.922 368.069 148.407 369.768 148.407 372.12C148.407 372.251 148.398 372.437 148.379 372.68C148.379 372.904 148.379 373.128 148.379 373.352C147.95 373.389 147.399 373.436 146.727 373.492C146.074 373.548 145.318 373.604 144.459 373.66C143.601 373.716 142.667 373.763 141.659 373.8C140.651 373.837 139.597 373.865 138.495 373.884C138.477 373.959 138.467 374.043 138.467 374.136C138.467 374.211 138.467 374.295 138.467 374.388C138.467 375.415 138.626 376.245 138.943 376.88C139.261 377.496 139.727 377.953 140.343 378.252C140.959 378.532 141.734 378.672 142.667 378.672C143.227 378.672 143.806 378.644 144.403 378.588C145.019 378.513 145.617 378.429 146.195 378.336C146.774 378.224 147.325 378.103 147.847 377.972L148.239 380.24C147.679 380.408 147.073 380.567 146.419 380.716C145.785 380.847 145.113 380.94 144.403 380.996C143.694 381.071 142.938 381.108 142.135 381.108ZM138.523 371.84C139.307 371.84 140.054 371.831 140.763 371.812C141.491 371.775 142.163 371.737 142.779 371.7C143.395 371.663 143.918 371.635 144.347 371.616C144.795 371.579 145.131 371.551 145.355 371.532C145.337 370.599 145.215 369.852 144.991 369.292C144.767 368.732 144.431 368.331 143.983 368.088C143.535 367.827 142.966 367.696 142.275 367.696C141.846 367.696 141.426 367.761 141.015 367.892C140.605 368.004 140.222 368.219 139.867 368.536C139.531 368.835 139.242 369.255 138.999 369.796C138.757 370.319 138.598 371 138.523 371.84ZM149.928 377.048C149.928 376.133 150.106 375.387 150.46 374.808C150.834 374.211 151.394 373.744 152.14 373.408C152.887 373.053 153.82 372.783 154.94 372.596C156.06 372.391 157.358 372.232 158.832 372.12V370.384C158.832 369.619 158.562 369.04 158.02 368.648C157.498 368.256 156.723 368.06 155.696 368.06C155.323 368.06 154.894 368.079 154.408 368.116C153.942 368.153 153.447 368.219 152.924 368.312C152.402 368.405 151.87 368.536 151.328 368.704L150.824 366.268C151.627 366.007 152.476 365.811 153.372 365.68C154.268 365.531 155.108 365.456 155.892 365.456C157.255 365.456 158.375 365.643 159.252 366.016C160.148 366.371 160.811 366.912 161.24 367.64C161.688 368.368 161.912 369.273 161.912 370.356V377.02C161.912 377.58 161.996 377.963 162.164 378.168C162.332 378.355 162.547 378.448 162.808 378.448C162.902 378.448 163.014 378.439 163.144 378.42C163.275 378.401 163.406 378.364 163.536 378.308L163.816 380.548C163.518 380.716 163.191 380.847 162.836 380.94C162.482 381.052 162.099 381.108 161.688 381.108C160.979 381.108 160.41 380.949 159.98 380.632C159.57 380.296 159.29 379.792 159.14 379.12C158.674 379.475 158.17 379.811 157.628 380.128C157.106 380.427 156.527 380.66 155.892 380.828C155.276 381.015 154.595 381.108 153.848 381.108C153.251 381.108 152.71 381.015 152.224 380.828C151.758 380.66 151.347 380.408 150.992 380.072C150.656 379.717 150.395 379.288 150.208 378.784C150.022 378.28 149.928 377.701 149.928 377.048ZM153.008 376.824C153.008 377.552 153.186 378.093 153.54 378.448C153.895 378.803 154.371 378.98 154.968 378.98C155.416 378.98 155.874 378.915 156.34 378.784C156.807 378.635 157.255 378.439 157.684 378.196C158.132 377.935 158.515 377.627 158.832 377.272V373.856C157.936 373.931 157.134 374.024 156.424 374.136C155.715 374.248 155.099 374.416 154.576 374.64C154.072 374.845 153.68 375.125 153.4 375.48C153.139 375.835 153.008 376.283 153.008 376.824ZM168.361 365.736V367.584C168.902 367.08 169.406 366.679 169.873 366.38C170.358 366.063 170.843 365.829 171.329 365.68C171.814 365.531 172.327 365.456 172.869 365.456C173.223 365.456 173.578 365.484 173.933 365.54C174.306 365.596 174.651 365.671 174.969 365.764L174.465 368.536C174.129 368.443 173.783 368.377 173.429 368.34C173.093 368.284 172.766 368.256 172.449 368.256C171.851 368.256 171.235 368.377 170.601 368.62C169.985 368.863 169.322 369.273 168.613 369.852V380.828H165.617V365.736H168.361ZM175.117 373.52C175.117 371.709 175.397 370.216 175.957 369.04C176.517 367.845 177.338 366.949 178.421 366.352C179.522 365.755 180.857 365.456 182.425 365.456C182.947 365.456 183.479 365.484 184.021 365.54C184.581 365.577 185.122 365.643 185.645 365.736C186.167 365.811 186.643 365.913 187.073 366.044L186.625 368.564C186.214 368.471 185.785 368.396 185.337 368.34C184.889 368.265 184.441 368.209 183.993 368.172C183.563 368.135 183.143 368.116 182.733 368.116C181.762 368.116 180.941 368.312 180.269 368.704C179.615 369.096 179.111 369.684 178.757 370.468C178.421 371.252 178.253 372.26 178.253 373.492C178.253 374.612 178.43 375.545 178.785 376.292C179.139 377.02 179.653 377.571 180.325 377.944C180.997 378.299 181.809 378.476 182.761 378.476C183.19 378.476 183.629 378.457 184.077 378.42C184.543 378.383 185.01 378.327 185.477 378.252C185.962 378.177 186.429 378.093 186.877 378L187.325 380.436C186.615 380.623 185.785 380.781 184.833 380.912C183.899 381.043 182.994 381.108 182.117 381.108C179.802 381.108 178.057 380.492 176.881 379.26C175.705 378.009 175.117 376.096 175.117 373.52ZM189.542 380.828V360.108H192.622V366.996C193.182 366.66 193.723 366.38 194.246 366.156C194.768 365.932 195.3 365.764 195.842 365.652C196.402 365.521 196.99 365.456 197.606 365.456C198.52 365.456 199.295 365.624 199.93 365.96C200.564 366.277 201.04 366.753 201.358 367.388C201.694 368.004 201.862 368.769 201.862 369.684V380.828H198.81V370.58C198.81 369.74 198.604 369.115 198.194 368.704C197.783 368.275 197.167 368.06 196.346 368.06C195.916 368.06 195.487 368.107 195.058 368.2C194.647 368.293 194.246 368.424 193.854 368.592C193.462 368.741 193.051 368.928 192.622 369.152V380.828H189.542ZM217.858 381.108C216.906 381.108 216.113 380.931 215.478 380.576C214.843 380.221 214.367 379.68 214.05 378.952C213.751 378.205 213.602 377.272 213.602 376.152V368.004H211.138V365.988L213.602 365.736L213.994 362.292H216.626V365.736H221.274V368.004H216.626V375.928C216.626 376.843 216.803 377.505 217.158 377.916C217.513 378.327 218.082 378.532 218.866 378.532C219.258 378.532 219.659 378.495 220.07 378.42C220.499 378.327 220.938 378.224 221.386 378.112L221.806 380.436C221.097 380.679 220.406 380.847 219.734 380.94C219.062 381.052 218.437 381.108 217.858 381.108ZM222.585 373.268C222.585 371.961 222.697 370.823 222.921 369.852C223.164 368.881 223.547 368.079 224.069 367.444C224.592 366.791 225.292 366.296 226.169 365.96C227.047 365.624 228.129 365.456 229.417 365.456C230.705 365.456 231.788 365.624 232.665 365.96C233.543 366.296 234.243 366.791 234.765 367.444C235.288 368.079 235.661 368.881 235.885 369.852C236.128 370.823 236.249 371.961 236.249 373.268C236.249 374.593 236.119 375.751 235.857 376.74C235.615 377.729 235.223 378.551 234.681 379.204C234.14 379.839 233.431 380.315 232.553 380.632C231.695 380.949 230.649 381.108 229.417 381.108C228.185 381.108 227.131 380.949 226.253 380.632C225.395 380.315 224.695 379.839 224.153 379.204C223.612 378.551 223.211 377.729 222.949 376.74C222.707 375.751 222.585 374.593 222.585 373.268ZM225.693 373.268C225.693 374.631 225.815 375.713 226.057 376.516C226.319 377.319 226.72 377.897 227.261 378.252C227.821 378.607 228.54 378.784 229.417 378.784C230.295 378.784 231.004 378.607 231.545 378.252C232.087 377.897 232.479 377.319 232.721 376.516C232.983 375.713 233.113 374.631 233.113 373.268C233.113 371.905 233.001 370.832 232.777 370.048C232.553 369.245 232.161 368.676 231.601 368.34C231.06 367.985 230.332 367.808 229.417 367.808C228.484 367.808 227.747 367.985 227.205 368.34C226.664 368.676 226.272 369.245 226.029 370.048C225.805 370.832 225.693 371.905 225.693 373.268ZM251.215 380.828L244.551 361.284L247.939 361.172L253.063 377.86L258.075 361.172L261.463 361.284L254.855 380.828H251.215ZM264.636 363.16C263.983 363.16 263.516 363.039 263.236 362.796C262.956 362.553 262.816 362.143 262.816 361.564C262.816 361.004 262.956 360.603 263.236 360.36C263.516 360.099 263.983 359.968 264.636 359.968C265.29 359.968 265.756 360.099 266.036 360.36C266.316 360.603 266.456 361.004 266.456 361.564C266.456 362.143 266.316 362.553 266.036 362.796C265.756 363.039 265.29 363.16 264.636 363.16ZM263.124 380.828V365.736H266.148V380.828H263.124ZM275.491 381.108C274.39 381.108 273.419 380.968 272.579 380.688C271.758 380.389 271.048 379.941 270.451 379.344C269.872 378.747 269.434 377.981 269.135 377.048C268.836 376.096 268.687 374.976 268.687 373.688C268.687 372.176 268.864 370.897 269.219 369.852C269.592 368.788 270.096 367.939 270.731 367.304C271.384 366.651 272.14 366.184 272.999 365.904C273.876 365.605 274.828 365.456 275.855 365.456C277.871 365.456 279.355 365.979 280.307 367.024C281.278 368.069 281.763 369.768 281.763 372.12C281.763 372.251 281.754 372.437 281.735 372.68C281.735 372.904 281.735 373.128 281.735 373.352C281.306 373.389 280.755 373.436 280.083 373.492C279.43 373.548 278.674 373.604 277.815 373.66C276.956 373.716 276.023 373.763 275.015 373.8C274.007 373.837 272.952 373.865 271.851 373.884C271.832 373.959 271.823 374.043 271.823 374.136C271.823 374.211 271.823 374.295 271.823 374.388C271.823 375.415 271.982 376.245 272.299 376.88C272.616 377.496 273.083 377.953 273.699 378.252C274.315 378.532 275.09 378.672 276.023 378.672C276.583 378.672 277.162 378.644 277.759 378.588C278.375 378.513 278.972 378.429 279.551 378.336C280.13 378.224 280.68 378.103 281.203 377.972L281.595 380.24C281.035 380.408 280.428 380.567 279.775 380.716C279.14 380.847 278.468 380.94 277.759 380.996C277.05 381.071 276.294 381.108 275.491 381.108ZM271.879 371.84C272.663 371.84 273.41 371.831 274.119 371.812C274.847 371.775 275.519 371.737 276.135 371.7C276.751 371.663 277.274 371.635 277.703 371.616C278.151 371.579 278.487 371.551 278.711 371.532C278.692 370.599 278.571 369.852 278.347 369.292C278.123 368.732 277.787 368.331 277.339 368.088C276.891 367.827 276.322 367.696 275.631 367.696C275.202 367.696 274.782 367.761 274.371 367.892C273.96 368.004 273.578 368.219 273.223 368.536C272.887 368.835 272.598 369.255 272.355 369.796C272.112 370.319 271.954 371 271.879 371.84ZM286.562 380.828L282.726 365.82L285.75 365.708L288.438 377.888L291.35 365.736H294.57L297.51 377.888L300.198 365.708L303.194 365.82L299.246 380.828H295.858L292.918 369.32L290.034 380.828H286.562ZM328.382 381.108C327.878 381.108 327.374 381.015 326.87 380.828C326.366 380.66 325.853 380.389 325.33 380.016C324.826 379.624 324.303 379.139 323.762 378.56C323.221 377.963 322.642 377.253 322.026 376.432C321.429 375.592 320.794 374.631 320.122 373.548C319.954 373.567 319.73 373.576 319.45 373.576C319.17 373.576 318.946 373.576 318.778 373.576C318.349 373.576 317.882 373.576 317.378 373.576C316.893 373.576 316.417 373.567 315.95 373.548V380.828H312.786V361.2C313.701 361.144 314.541 361.097 315.306 361.06C316.071 361.023 316.781 360.995 317.434 360.976C318.106 360.957 318.759 360.948 319.394 360.948C320.869 360.948 322.119 361.051 323.146 361.256C324.191 361.461 325.041 361.797 325.694 362.264C326.347 362.731 326.823 363.337 327.122 364.084C327.439 364.831 327.598 365.736 327.598 366.8C327.598 367.939 327.421 368.909 327.066 369.712C326.73 370.496 326.235 371.14 325.582 371.644C324.929 372.129 324.145 372.512 323.23 372.792C323.846 373.707 324.415 374.5 324.938 375.172C325.479 375.825 325.974 376.367 326.422 376.796C326.87 377.207 327.281 377.524 327.654 377.748C328.046 377.953 328.41 378.056 328.746 378.056C328.783 378.056 328.849 378.056 328.942 378.056C329.035 378.037 329.11 378.019 329.166 378L329.194 381.024C329.101 381.043 328.989 381.061 328.858 381.08C328.727 381.099 328.569 381.108 328.382 381.108ZM319.366 370.972C320.206 370.972 320.934 370.907 321.55 370.776C322.185 370.645 322.707 370.44 323.118 370.16C323.529 369.861 323.827 369.479 324.014 369.012C324.219 368.527 324.322 367.929 324.322 367.22C324.322 366.305 324.173 365.577 323.874 365.036C323.594 364.476 323.099 364.075 322.39 363.832C321.681 363.589 320.71 363.468 319.478 363.468C319.123 363.468 318.815 363.468 318.554 363.468C318.293 363.468 318.031 363.477 317.77 363.496C317.527 363.515 317.257 363.533 316.958 363.552C316.678 363.552 316.342 363.571 315.95 363.608V370.888C316.286 370.907 316.594 370.925 316.874 370.944C317.154 370.944 317.434 370.953 317.714 370.972C317.994 370.972 318.265 370.972 318.526 370.972C318.806 370.972 319.086 370.972 319.366 370.972ZM336.878 381.108C335.776 381.108 334.806 380.968 333.966 380.688C333.144 380.389 332.435 379.941 331.838 379.344C331.259 378.747 330.82 377.981 330.522 377.048C330.223 376.096 330.074 374.976 330.074 373.688C330.074 372.176 330.251 370.897 330.606 369.852C330.979 368.788 331.483 367.939 332.118 367.304C332.771 366.651 333.527 366.184 334.386 365.904C335.263 365.605 336.215 365.456 337.242 365.456C339.258 365.456 340.742 365.979 341.694 367.024C342.664 368.069 343.15 369.768 343.15 372.12C343.15 372.251 343.14 372.437 343.122 372.68C343.122 372.904 343.122 373.128 343.122 373.352C342.692 373.389 342.142 373.436 341.47 373.492C340.816 373.548 340.06 373.604 339.202 373.66C338.343 373.716 337.41 373.763 336.402 373.8C335.394 373.837 334.339 373.865 333.238 373.884C333.219 373.959 333.21 374.043 333.21 374.136C333.21 374.211 333.21 374.295 333.21 374.388C333.21 375.415 333.368 376.245 333.686 376.88C334.003 377.496 334.47 377.953 335.086 378.252C335.702 378.532 336.476 378.672 337.41 378.672C337.97 378.672 338.548 378.644 339.146 378.588C339.762 378.513 340.359 378.429 340.938 378.336C341.516 378.224 342.067 378.103 342.59 377.972L342.982 380.24C342.422 380.408 341.815 380.567 341.162 380.716C340.527 380.847 339.855 380.94 339.146 380.996C338.436 381.071 337.68 381.108 336.878 381.108ZM333.266 371.84C334.05 371.84 334.796 371.831 335.506 371.812C336.234 371.775 336.906 371.737 337.522 371.7C338.138 371.663 338.66 371.635 339.09 371.616C339.538 371.579 339.874 371.551 340.098 371.532C340.079 370.599 339.958 369.852 339.734 369.292C339.51 368.732 339.174 368.331 338.726 368.088C338.278 367.827 337.708 367.696 337.018 367.696C336.588 367.696 336.168 367.761 335.758 367.892C335.347 368.004 334.964 368.219 334.61 368.536C334.274 368.835 333.984 369.255 333.742 369.796C333.499 370.319 333.34 371 333.266 371.84ZM344.976 373.52C344.976 371.709 345.256 370.216 345.816 369.04C346.376 367.845 347.197 366.949 348.28 366.352C349.381 365.755 350.716 365.456 352.284 365.456C352.807 365.456 353.339 365.484 353.88 365.54C354.44 365.577 354.981 365.643 355.504 365.736C356.027 365.811 356.503 365.913 356.932 366.044L356.484 368.564C356.073 368.471 355.644 368.396 355.196 368.34C354.748 368.265 354.3 368.209 353.852 368.172C353.423 368.135 353.003 368.116 352.592 368.116C351.621 368.116 350.8 368.312 350.128 368.704C349.475 369.096 348.971 369.684 348.616 370.468C348.28 371.252 348.112 372.26 348.112 373.492C348.112 374.612 348.289 375.545 348.644 376.292C348.999 377.02 349.512 377.571 350.184 377.944C350.856 378.299 351.668 378.476 352.62 378.476C353.049 378.476 353.488 378.457 353.936 378.42C354.403 378.383 354.869 378.327 355.336 378.252C355.821 378.177 356.288 378.093 356.736 378L357.184 380.436C356.475 380.623 355.644 380.781 354.692 380.912C353.759 381.043 352.853 381.108 351.976 381.108C349.661 381.108 347.916 380.492 346.74 379.26C345.564 378.009 344.976 376.096 344.976 373.52ZM358.456 373.268C358.456 371.961 358.568 370.823 358.792 369.852C359.035 368.881 359.418 368.079 359.94 367.444C360.463 366.791 361.163 366.296 362.04 365.96C362.918 365.624 364 365.456 365.288 365.456C366.576 365.456 367.659 365.624 368.536 365.96C369.414 366.296 370.114 366.791 370.636 367.444C371.159 368.079 371.532 368.881 371.756 369.852C371.999 370.823 372.12 371.961 372.12 373.268C372.12 374.593 371.99 375.751 371.728 376.74C371.486 377.729 371.094 378.551 370.552 379.204C370.011 379.839 369.302 380.315 368.424 380.632C367.566 380.949 366.52 381.108 365.288 381.108C364.056 381.108 363.002 380.949 362.124 380.632C361.266 380.315 360.566 379.839 360.024 379.204C359.483 378.551 359.082 377.729 358.82 376.74C358.578 375.751 358.456 374.593 358.456 373.268ZM361.564 373.268C361.564 374.631 361.686 375.713 361.928 376.516C362.19 377.319 362.591 377.897 363.132 378.252C363.692 378.607 364.411 378.784 365.288 378.784C366.166 378.784 366.875 378.607 367.416 378.252C367.958 377.897 368.35 377.319 368.592 376.516C368.854 375.713 368.984 374.631 368.984 373.268C368.984 371.905 368.872 370.832 368.648 370.048C368.424 369.245 368.032 368.676 367.472 368.34C366.931 367.985 366.203 367.808 365.288 367.808C364.355 367.808 363.618 367.985 363.076 368.34C362.535 368.676 362.143 369.245 361.9 370.048C361.676 370.832 361.564 371.905 361.564 373.268ZM377.431 365.736V367.584C377.972 367.08 378.476 366.679 378.943 366.38C379.428 366.063 379.914 365.829 380.399 365.68C380.884 365.531 381.398 365.456 381.939 365.456C382.294 365.456 382.648 365.484 383.003 365.54C383.376 365.596 383.722 365.671 384.039 365.764L383.535 368.536C383.199 368.443 382.854 368.377 382.499 368.34C382.163 368.284 381.836 368.256 381.519 368.256C380.922 368.256 380.306 368.377 379.671 368.62C379.055 368.863 378.392 369.273 377.683 369.852V380.828H374.687V365.736H377.431ZM394.407 380.856L394.043 379.568C393.222 380.091 392.428 380.483 391.663 380.744C390.898 380.987 390.104 381.108 389.283 381.108C387.659 381.108 386.399 380.464 385.503 379.176C384.626 377.888 384.187 376.031 384.187 373.604C384.187 371.737 384.43 370.207 384.915 369.012C385.419 367.817 386.184 366.931 387.211 366.352C388.256 365.755 389.554 365.456 391.103 365.456C391.551 365.456 392.027 365.484 392.531 365.54C393.035 365.577 393.53 365.643 394.015 365.736V360.108H397.067V380.856H394.407ZM394.015 377.356V368.088C393.492 367.957 393.007 367.864 392.559 367.808C392.13 367.752 391.728 367.724 391.355 367.724C390.44 367.724 389.684 367.911 389.087 368.284C388.49 368.639 388.051 369.227 387.771 370.048C387.491 370.869 387.351 371.971 387.351 373.352C387.351 374.509 387.472 375.48 387.715 376.264C387.958 377.029 388.303 377.608 388.751 378C389.218 378.373 389.778 378.56 390.431 378.56C390.804 378.56 391.178 378.523 391.551 378.448C391.943 378.355 392.335 378.224 392.727 378.056C393.119 377.869 393.548 377.636 394.015 377.356ZM399.273 380.24L399.665 377.972C399.982 378.084 400.346 378.196 400.757 378.308C401.167 378.401 401.587 378.485 402.017 378.56C402.465 378.635 402.913 378.691 403.361 378.728C403.809 378.765 404.238 378.784 404.649 378.784C405.675 378.784 406.431 378.616 406.917 378.28C407.421 377.944 407.673 377.459 407.673 376.824C407.673 376.469 407.589 376.171 407.421 375.928C407.271 375.685 407.029 375.471 406.693 375.284C406.357 375.079 405.946 374.901 405.461 374.752C404.975 374.584 404.406 374.425 403.753 374.276C403.099 374.108 402.521 373.903 402.017 373.66C401.513 373.417 401.074 373.119 400.701 372.764C400.346 372.409 400.075 372.008 399.889 371.56C399.721 371.093 399.637 370.561 399.637 369.964C399.637 368.527 400.122 367.416 401.093 366.632C402.082 365.848 403.529 365.456 405.433 365.456C406.011 365.456 406.562 365.493 407.085 365.568C407.607 365.624 408.102 365.708 408.569 365.82C409.054 365.913 409.493 366.035 409.885 366.184L409.465 368.48C409.073 368.368 408.671 368.265 408.261 368.172C407.869 368.079 407.439 368.004 406.973 367.948C406.506 367.892 405.993 367.864 405.433 367.864C404.481 367.864 403.762 368.023 403.277 368.34C402.81 368.657 402.577 369.115 402.577 369.712C402.577 370.067 402.651 370.356 402.801 370.58C402.969 370.804 403.202 371 403.501 371.168C403.818 371.317 404.191 371.467 404.621 371.616C405.05 371.747 405.535 371.877 406.077 372.008C406.767 372.176 407.393 372.381 407.953 372.624C408.531 372.848 409.017 373.128 409.409 373.464C409.819 373.8 410.137 374.22 410.361 374.724C410.585 375.209 410.697 375.816 410.697 376.544C410.697 377.179 410.594 377.757 410.389 378.28C410.183 378.784 409.894 379.213 409.521 379.568C409.166 379.923 408.737 380.212 408.233 380.436C407.729 380.66 407.169 380.828 406.553 380.94C405.937 381.052 405.283 381.108 404.593 381.108C403.939 381.108 403.305 381.071 402.689 380.996C402.073 380.94 401.475 380.847 400.897 380.716C400.318 380.585 399.777 380.427 399.273 380.24Z" fill="#101014"/>
<path d="M25.4743 183.591C35.7249 183.591 44.0346 175.281 44.0346 165.031C44.0346 154.78 35.7249 146.471 25.4743 146.471C15.2238 146.471 6.91406 154.78 6.91406 165.031C6.91406 175.281 15.2238 183.591 25.4743 183.591Z" fill="#F6F5F5"/>
<path d="M464.966 100.354C480.118 100.354 492.402 88.0703 492.402 72.918C492.402 57.7658 480.118 45.4824 464.966 45.4824C449.814 45.4824 437.531 57.7658 437.531 72.918C437.531 88.0703 449.814 100.354 464.966 100.354Z" fill="#F6F5F5"/>
<path d="M36.9258 117.385C37.6351 112.9 34.5743 108.69 30.0893 107.98C25.6044 107.271 21.3937 110.332 20.6844 114.817C19.9751 119.302 23.0359 123.512 27.5208 124.222C32.0058 124.931 36.2165 121.87 36.9258 117.385Z" fill="#F6F5F5"/>
<path d="M489.386 128.257C493.582 126.519 495.574 121.709 493.836 117.514C492.098 113.319 487.289 111.327 483.093 113.064C478.898 114.802 476.906 119.612 478.644 123.807C480.382 128.002 485.191 129.994 489.386 128.257Z" fill="#F6F5F5"/>
<path d="M27.0349 331.713C8.26418 311.418 8.09173 275.909 16.2474 249.721C25.3284 220.56 46.6143 196.557 74.6475 183.866C75.3285 183.559 76.009 183.256 76.691 182.955L76.9435 183.878C76.2637 184.177 75.5848 184.48 74.9062 184.785C47.0824 197.381 25.963 221.18 16.9636 250.079C8.90822 275.944 9.05306 310.988 27.535 330.97L27.0349 331.713Z" fill="#DADADA"/>
<path d="M495.53 332.951L494.662 332.505C512.249 298.318 522.666 263.843 524.787 232.806C526.877 202.207 520.807 176.969 507.233 159.821C494.914 144.259 470.403 128.15 423.578 139.783L423.343 138.835C470.669 127.078 495.502 143.427 507.999 159.215C521.726 176.556 527.868 202.027 525.761 232.873C523.631 264.042 513.178 298.648 495.53 332.951Z" fill="#DADADA"/>
<path d="M116.362 59.9913L115.415 59.7142C115.481 59.4209 117.087 52.4218 122.456 43.1683C127.402 34.6441 136.61 22.575 152.392 13.4838C170.466 3.0727 193.214 -1.34391 220.006 0.353897C253.532 2.48039 368.465 38.6424 413.785 59.7226L413.358 60.7C368.138 39.6672 253.37 3.58835 219.952 1.46898C193.329 -0.220718 170.75 4.15879 152.832 14.481C137.241 23.4614 128.151 35.3738 123.27 43.7854C117.992 52.8827 116.378 59.9216 116.362 59.9913Z" fill="#DADADA"/>
<path d="M460.877 66.586V312.364C460.877 315.793 458.093 318.577 454.664 318.577H105.359C101.93 318.577 99.146 315.793 99.146 312.364V66.586C99.146 63.1571 101.93 60.373 105.359 60.373H454.664C458.093 60.373 460.877 63.1571 460.877 66.586Z" fill="#DCDDE0"/>
<path d="M449.888 80.9141H110.133V286.882H449.888V80.9141Z" fill="white"/>
<path d="M450.376 287.37H109.644V80.4258H450.376V287.37ZM110.621 286.393H449.399V81.4027H110.621V286.393Z" fill="#C4C5CC"/>
<path d="M449.888 68.1074H110.133V80.9149H449.888V68.1074Z" fill="white"/>
<path d="M450.376 81.4016H109.644V67.6172H450.376V81.4016ZM110.621 80.4247H449.399V68.5941H110.621V80.4247Z" fill="#C4C5CC"/>
<path d="M126.103 77.4688C124.472 77.4688 123.144 76.1414 123.144 74.51C123.144 72.8783 124.472 71.5508 126.103 71.5508C127.735 71.5508 129.062 72.8783 129.062 74.51C129.062 76.1414 127.735 77.4688 126.103 77.4688ZM126.103 72.5277C125.01 72.5277 124.121 73.4168 124.121 74.51C124.121 75.6028 125.01 76.4919 126.103 76.4919C127.196 76.4919 128.085 75.6028 128.085 74.51C128.086 73.4168 127.197 72.5277 126.103 72.5277Z" fill="#C4C5CC"/>
<path d="M135.985 77.4688C134.354 77.4688 133.026 76.1414 133.026 74.51C133.026 72.8783 134.354 71.5508 135.985 71.5508C137.616 71.5508 138.944 72.8783 138.944 74.51C138.944 76.1414 137.616 77.4688 135.985 77.4688ZM135.985 72.5277C134.892 72.5277 134.003 73.4168 134.003 74.51C134.003 75.6028 134.892 76.4919 135.985 76.4919C137.078 76.4919 137.967 75.6028 137.967 74.51C137.967 73.4168 137.078 72.5277 135.985 72.5277Z" fill="#C4C5CC"/>
<path d="M145.867 77.4688C144.235 77.4688 142.908 76.1414 142.908 74.51C142.908 72.8783 144.235 71.5508 145.867 71.5508C147.498 71.5508 148.825 72.8783 148.825 74.51C148.825 76.1414 147.498 77.4688 145.867 77.4688ZM145.867 72.5277C144.774 72.5277 143.885 73.4168 143.885 74.51C143.885 75.6028 144.774 76.4919 145.867 76.4919C146.959 76.4919 147.848 75.6028 147.848 74.51C147.848 73.4168 146.959 72.5277 145.867 72.5277Z" fill="#C4C5CC"/>
<path d="M478.71 314.699H81.3101V333.128H478.71V314.699Z" fill="#DCDDE0"/>
<path d="M479.259 333.677H80.7612V314.15H479.259V333.677ZM81.8583 332.58H478.162V315.248H81.8583V332.58Z" fill="#C4C5CC"/>
<path d="M297.506 305.945H262.514C260.33 305.945 258.544 304.159 258.544 301.975V299.605C258.544 297.421 260.33 295.635 262.514 295.635H297.506C299.69 295.635 301.476 297.421 301.476 299.605V301.975C301.476 304.159 299.69 305.945 297.506 305.945Z" fill="white"/>
<path d="M296.965 306.434H263.055C260.298 306.434 258.055 304.191 258.055 301.434V300.146C258.055 297.389 260.298 295.146 263.055 295.146H296.965C299.722 295.146 301.965 297.389 301.965 300.146V301.434C301.965 304.191 299.722 306.434 296.965 306.434ZM263.055 296.123C260.837 296.123 259.032 297.928 259.032 300.146V301.434C259.032 303.652 260.837 305.457 263.055 305.457H296.965C299.183 305.457 300.988 303.652 300.988 301.434V300.146C300.988 297.928 299.183 296.123 296.965 296.123H263.055Z" fill="#C4C5CC"/>
<path d="M401.724 171.722H158.296C149.499 171.722 142.342 164.565 142.342 155.768V154.702C142.342 145.905 149.499 138.748 158.296 138.748H401.724C410.521 138.748 417.678 145.905 417.678 154.702V155.768C417.678 164.565 410.521 171.722 401.724 171.722ZM158.296 139.725C150.038 139.725 143.319 146.444 143.319 154.702V155.769C143.319 164.027 150.038 170.746 158.296 170.746H401.724C409.982 170.746 416.701 164.027 416.701 155.769V154.702C416.701 146.444 409.982 139.725 401.724 139.725H158.296Z" fill="#C4C5CC"/>
<path d="M187.194 161.197H157.759C155.058 161.197 152.848 158.987 152.848 156.286V154.186C152.848 151.485 155.058 149.275 157.759 149.275H187.194C189.895 149.275 192.105 151.485 192.105 154.186V156.286C192.105 158.987 189.895 161.197 187.194 161.197Z" fill="#DCDDE0"/>
<path d="M234.888 161.197H209.156C206.419 161.197 204.18 158.958 204.18 156.221V154.251C204.18 151.514 206.419 149.275 209.156 149.275H234.888C237.625 149.275 239.864 151.514 239.864 154.251V156.221C239.864 158.958 237.625 161.197 234.888 161.197Z" fill="#DCDDE0"/>
<path d="M289.725 161.197H255.054C252.17 161.197 249.809 158.836 249.809 155.952V154.521C249.809 151.636 252.17 149.275 255.054 149.275H289.725C292.61 149.275 294.97 151.636 294.97 154.521V155.952C294.97 158.837 292.61 161.197 289.725 161.197Z" fill="#DCDDE0"/>
<path d="M365.811 161.133H314.293C311.408 161.133 309.047 158.772 309.047 155.887V154.456C309.047 151.571 311.408 149.211 314.293 149.211H365.811C368.696 149.211 371.056 151.571 371.056 154.456V155.887C371.056 158.772 368.696 161.133 365.811 161.133Z" fill="#DCDDE0"/>
<path d="M321.037 113.992H238.983V122.584H321.037V113.992Z" fill="#C4C5CC"/>
<path d="M267.066 224.027H252.526V251.867H267.066V224.027Z" fill="#E2E2E4"/>
<path d="M297.053 207.467H282.514V251.867H297.053V207.467Z" fill="#DCDDE0"/>
<path d="M327.04 197.719H312.501V251.868H327.04V197.719Z" fill="#E2E2E4"/>
<path d="M357.027 221.279H342.488V251.867H357.027V221.279Z" fill="#DCDDE0"/>
<path d="M387.014 203.609H372.475V251.866H387.014V203.609Z" fill="#E2E2E4"/>
<path d="M417.002 185.279H402.463V251.868H417.002V185.279Z" fill="#DCDDE0"/>
<path d="M220.556 183.588H138.502V188.827H220.556V183.588Z" fill="#E2E2E4"/>
<path d="M220.556 198.297H138.502V251.868H220.556V198.297Z" fill="#E2E2E4"/>
<path d="M183.247 218.208C180.156 216.988 176.979 217.947 174.711 220.164C172.644 222.184 172.353 225.039 171.38 227.588C173.39 228.137 175.197 229.327 177.387 228.986C180.233 228.542 180.307 225.888 181.92 224.079C183.302 222.53 184.957 221.531 186.933 221.265C186.085 220.015 185.049 218.92 183.247 218.208Z" fill="#C4C5CC"/>
<path d="M206.487 215.43C203.688 216.039 200.748 217.034 198.752 219.073C197.036 220.827 197.097 223.88 195.85 225.724C197.258 226.662 198.843 227.099 200.386 226.265C201.897 225.449 202.815 223.612 204.443 222.811C205.752 222.167 207.633 221.76 209.058 221.505C209.386 221.446 209.721 221.409 210.054 221.363V214.852C208.858 214.987 207.668 215.173 206.487 215.43Z" fill="#C4C5CC"/>
<path d="M209.057 221.506C207.633 221.761 205.752 222.168 204.442 222.812C202.814 223.613 201.897 225.45 200.386 226.266C198.842 227.1 197.258 226.663 195.85 225.725C195.295 225.356 194.767 224.911 194.282 224.432C192.356 222.534 191.753 221.461 188.708 221.215C188.087 221.165 187.499 221.191 186.933 221.267C184.957 221.533 183.302 222.531 181.92 224.081C180.307 225.889 180.233 228.544 177.387 228.987C175.197 229.328 173.39 228.139 171.38 227.59C170.578 227.371 169.746 227.251 168.842 227.375C166.723 227.667 165.382 228.939 163.905 229.904C162.876 230.575 161.781 231.1 160.309 231.035C157.024 230.89 152.788 228.997 149.004 228.876V243.507H210.053V221.364C209.721 221.409 209.385 221.447 209.057 221.506Z" fill="#E2E2E4"/>
<path d="M163.905 229.902C163.665 229.692 163.437 229.465 163.232 229.211C161.721 227.336 161.599 224.955 159.927 223.196C156.67 219.772 152.223 221.126 149.004 224.039V228.874C152.788 228.996 157.025 230.888 160.31 231.033C161.782 231.098 162.876 230.574 163.905 229.902Z" fill="#C4C5CC"/>
<path d="M86.1524 219.412L48.5796 226.779L57.155 171.525L80.2587 171.997C80.1112 172.969 79.9642 173.912 79.8757 174.885C79.0211 182.311 79.4631 189.767 80.4062 196.427C82.2917 209.51 86.1524 219.412 86.1524 219.412Z" fill="#FFCAAC"/>
<path d="M80.4055 196.426C65.9658 189.619 60.6025 175.327 60.6025 175.327L79.875 174.885C79.0204 182.311 79.463 189.766 80.4055 196.426Z" fill="#FFBF94"/>
<path d="M88.3527 140.083C89.8263 145.24 98.1755 177.901 82.9501 181.585C67.7247 185.268 52.0081 171.271 52.0081 171.271L57.1653 139.837L79.2669 133.207L88.3527 140.083Z" fill="#FFCAAC"/>
<path d="M68.1857 157.856C68.1857 157.856 72.1453 131.733 88.3531 140.082C87.7744 139.784 86.9333 137.176 86.5726 136.586C84.936 133.907 82.8351 131.472 80.2963 129.612C71.0718 122.851 55.5208 125.308 48.0795 133.084C40.7535 140.738 40.5294 154.342 44.3031 164.233C44.9133 165.831 45.6861 167.368 46.6116 168.807C47.4527 170.116 48.4495 171.204 49.5711 172.282C50.5349 173.209 57.7656 178.905 57.8412 174.524C58.0249 163.841 68.1857 157.856 68.1857 157.856Z" fill="#101014"/>
<path d="M71.7565 163.861C74.5135 161.606 74.4841 157.01 71.6909 153.595C68.8978 150.18 64.3985 149.239 61.6416 151.494C58.8846 153.748 58.914 158.345 61.7072 161.76C64.5003 165.175 68.9996 166.116 71.7565 163.861Z" fill="#FFCAAC"/>
<path d="M91.4184 162.364C93.3133 162.364 94.8495 160.696 94.8495 158.639C94.8495 156.582 93.3133 154.914 91.4184 154.914C89.5234 154.914 87.9873 156.582 87.9873 158.639C87.9873 160.696 89.5234 162.364 91.4184 162.364Z" fill="#FFCAAC"/>
<path d="M57.4979 283.568L38.9407 291.521C38.9407 291.521 54.235 330.471 58.7214 332.918C63.2077 335.365 60.9645 313.749 64.0235 307.224L67.898 291.929L57.4979 283.568Z" fill="#343952"/>
<path d="M56.0443 305.702L55.9087 307.652L63.9635 308.213L64.0992 306.263L56.0443 305.702Z" fill="#464D6E"/>
<path d="M52.8076 280.714L64.0235 307.224C64.0235 307.224 107.664 284.385 118.472 263.584L101.342 241.152L52.8076 280.714Z" fill="#565866"/>
<path d="M111.334 302.125C111.334 302.125 131.727 302.941 141.108 286.83L120.307 283.771L111.334 302.125Z" fill="#454759"/>
<path d="M143.232 304.91L120.227 313.038L118.37 306.473L115 294.585L134.176 285.51L135.524 288.401L143.232 304.91Z" fill="#FFCAAC"/>
<path d="M172.308 333.121L147.123 313.239L143.236 304.912L120.229 313.032L125.915 333.121H172.308Z" fill="#343952"/>
<path d="M146.343 312.654L141.143 319.281L142.679 320.487L147.879 313.86L146.343 312.654Z" fill="#464D6E"/>
<path d="M135.524 288.401L118.37 306.473L115 294.585L134.176 285.51L135.524 288.401Z" fill="#FFCAAC"/>
<path d="M141.112 286.827C130.269 289.562 120.354 294.671 111.337 302.124L95.8345 261.34C95.8345 261.34 64.5555 291.154 45.878 286.221C28.1285 281.532 35.875 252.158 35.875 252.158C60.2476 235.092 99.0192 212.175 116.007 230.325C116.095 230.403 116.163 230.472 116.231 230.55C119.709 234.369 123.636 241.921 127.328 250.282C134.694 266.938 141.112 286.827 141.112 286.827Z" fill="#565866"/>
<path d="M127.328 250.284C110.429 254.259 93.0408 235.484 93.0408 235.484L110.507 229.75L116.007 230.326C116.094 230.405 116.163 230.473 116.231 230.551C119.709 234.37 123.636 241.922 127.328 250.284Z" fill="#4C4E5F"/>
<path d="M110.881 302.299L95.6409 262.207C92.3363 265.347 74.3533 281.801 55.3931 286.799L55.144 285.855C75.7811 280.415 95.2953 261.189 95.49 260.995L96.0239 260.465L111.794 301.952L110.881 302.299Z" fill="#4D4E59"/>
<path d="M61.0093 186.553L54.1615 208.688L44.9496 238.463C44.9496 238.463 38.2289 240.876 32.2993 240.124C27.0633 239.459 22.4427 236.314 23.6932 226.809C26.4481 205.855 61.0093 186.553 61.0093 186.553Z" fill="#F22222"/>
<path d="M54.1618 208.689L44.9499 238.464C44.9499 238.464 38.2292 240.877 32.2996 240.125C37.2718 209.559 53.7221 196.537 53.7221 196.537L54.1618 208.689Z" fill="#DE1616"/>
<path d="M128.002 208.463L122.903 227.883L105.691 211.648L112.519 200.199L121.751 205.123L128.002 208.463Z" fill="#F22222"/>
<path d="M112.558 200.22L119.09 189.78L132.288 184.154L127.963 208.503L112.558 200.22Z" fill="#FFCAAC"/>
<path d="M176.679 180.242C173.211 179.412 170.086 179.549 167.262 180.584C165.397 181.268 163.658 182.352 162.056 183.817L155.677 169.028C157.894 168.637 159.916 167.973 161.743 167.006C164.39 165.609 166.598 163.587 168.317 160.842L176.679 180.242Z" fill="#101014"/>
<path d="M162.071 183.806L155.697 169.02L61.7864 213.599L65.1802 221.472L162.071 183.806L155.697 169.02L162.071 183.806Z" fill="#101014"/>
<path d="M176.679 180.242C173.211 179.412 170.086 179.549 167.262 180.584L161.743 167.006C164.39 165.609 166.598 163.587 168.317 160.842L176.679 180.242Z" fill="#222222"/>
<path d="M249.816 187.98C269.408 168.388 269.408 136.624 249.816 117.032C230.225 97.4399 198.46 97.44 178.868 117.032C159.276 136.624 159.276 168.388 178.868 187.98C198.46 207.572 230.225 207.572 249.816 187.98Z" fill="#101014"/>
<path d="M243.897 182.06C260.22 165.738 260.22 139.274 243.897 122.951C227.575 106.629 201.11 106.629 184.788 122.951C168.465 139.274 168.465 165.738 184.788 182.06C201.11 198.383 227.574 198.383 243.897 182.06Z" fill="white"/>
<path d="M176.243 135.33H252.438C252.273 134.964 252.108 134.597 251.934 134.238H176.764C176.588 134.601 176.409 134.962 176.243 135.33Z" fill="#C4C5CC"/>
<path d="M252.312 169.977H176.39C176.557 170.341 176.72 170.71 176.897 171.068H251.785C251.964 170.706 252.143 170.344 252.312 169.977Z" fill="#C4C5CC"/>
<path d="M183.132 153.078V152.229C183.132 148.801 180.327 145.996 176.899 145.996H173.065C172.374 150.35 172.364 154.841 173.105 159.311H176.899C180.327 159.311 183.132 156.506 183.132 153.078Z" fill="#DCDDE0"/>
<path d="M202.935 145.996C199.461 145.996 196.619 148.838 196.619 152.312V152.995C196.619 156.469 199.461 159.311 202.935 159.311H230.157C233.63 159.311 236.472 156.469 236.472 152.995V152.312C236.472 148.838 233.63 145.996 230.157 145.996H202.935Z" fill="#DCDDE0"/>
<path d="M255.641 145.996H254.237C250.576 145.996 247.58 148.992 247.58 152.653C247.58 156.315 250.576 159.311 254.237 159.311H255.578C256.3 154.96 256.349 150.47 255.641 145.996Z" fill="#DCDDE0"/>
<path d="M128.002 208.465L121.75 205.124L125.56 196.85C125.56 196.85 130.864 187.267 133.512 187.677C136.159 188.078 128.002 208.465 128.002 208.465Z" fill="#FFCAAC"/>
<path d="M105.695 211.645L104.397 213.824C101.815 210.275 96.1256 202.714 88.9678 196.706C82.5318 191.31 73.7996 182.917 66.1769 184.08C45.7681 187.175 35.8779 252.158 35.8779 252.158L88.6861 233.042L100.516 242.259C103.089 244.264 106.325 245.222 109.574 244.942C115.034 244.471 119.604 240.611 120.981 235.307L122.907 227.887L105.695 211.645Z" fill="#F22222"/>
<path d="M74.6755 219.97L74.0278 220.701L88.3553 233.398L89.0029 232.667L74.6755 219.97Z" fill="#DE1616"/>
<path d="M103.372 211.816L102.575 212.379L111.204 224.59L112.001 224.027L103.372 211.816Z" fill="#DE1616"/>
<path d="M530.056 332.566H0V333.421H530.056V332.566Z" fill="#102048"/>
<path d="M466.934 279.568H426.638V303.013H466.934V279.568Z" fill="#3A3D51"/>
<path d="M471.623 333.043L493.093 343.829L485.79 315.904L476.346 314.09L466.458 317.623L471.623 333.043Z" fill="#102048"/>
<path d="M476.35 314.092L471.622 333.043C471.622 333.043 451.235 330.357 431.259 325.922C422.047 323.89 412.923 321.477 405.929 318.781C402.246 317.364 399.149 315.87 396.942 314.317C381.419 303.376 386.958 278.182 413.284 282.49C423.483 284.161 434.482 288.703 444.407 293.851C448.93 296.186 453.218 298.657 457.106 301.031C468.457 307.947 476.35 314.092 476.35 314.092Z" fill="#E31837"/>
<path opacity="0.3" d="M457.106 301.029L431.258 325.92C422.047 323.888 412.923 321.475 405.928 318.779L444.407 293.85C448.93 296.184 453.218 298.656 457.106 301.029Z" fill="#102048"/>
<path d="M403.95 317.516L377.96 332.606L416.209 332.447L418.665 317.945L403.95 317.516Z" fill="#102048"/>
<path d="M426.72 314.186L418.665 317.945L416.209 332.446L416.731 332.444L432.734 332.658L438.319 325.677L426.72 314.186Z" fill="#FFCEAE"/>
<path d="M426.719 314.187C426.719 314.187 457.221 284.329 483.642 277.241C508.137 270.669 515.432 295.284 501.685 307.528C487.938 319.771 432.734 332.66 432.734 332.66L426.719 314.187Z" fill="#E31837"/>
<path d="M432.853 333.132L432.614 332.186C451.558 327.401 471.024 322.208 485.069 316.643L485.429 317.551C471.332 323.136 451.829 328.34 432.853 333.132Z" fill="#102048"/>
<path d="M445.151 196.738C442.407 196.962 439.819 197.638 437.535 199.262C435.628 200.619 434.167 202.497 433.229 204.635C431.774 207.95 432.11 211.653 430.995 215.05C429.92 218.32 427.289 220.007 424.837 222.194C422.478 224.298 420.781 227.779 421.622 230.976C421.855 231.863 422.286 232.685 422.858 233.4C423.296 233.949 424.633 235.529 425.387 235.532C425.387 235.532 466.872 235.716 466.872 235.716C466.872 235.716 474.582 228.496 465.71 220.051C463.248 217.708 460.49 215.299 459.238 212.008C458.464 209.974 458.076 207.83 457.493 205.743C456.75 203.081 455.112 200.364 452.903 198.674C450.678 196.972 447.889 196.515 445.151 196.738Z" fill="#102048"/>
<path d="M441.663 199.248C441.663 199.248 434.748 193.986 441.601 191.6C446.843 189.775 451.759 191.845 448.639 198.637L441.663 199.248Z" fill="#102048"/>
<path d="M443.474 225.635C443.474 225.635 404.488 232.24 396.755 259.144C389.022 286.048 436.081 287.791 436.081 287.791C436.081 287.791 482.299 286.209 490.516 278.798C498.732 271.387 502.92 233.851 447.985 225.957L443.474 225.635Z" fill="#343952"/>
<path d="M445.987 240.348C445.734 240.348 445.482 240.338 445.231 240.318C442.43 240.09 440.211 238.642 438.984 236.24L439.854 235.795C440.92 237.884 442.859 239.145 445.31 239.344C448.314 239.596 451.551 238.201 453.19 235.972L453.976 236.551C452.286 238.851 449.084 240.348 445.987 240.348Z" fill="#102048"/>
<path d="M410.607 256.723L409.993 257.482L430.385 273.968L430.999 273.208L410.607 256.723Z" fill="#102048"/>
<path d="M480.545 257.128L461.956 273.219L462.595 273.957L481.185 257.866L480.545 257.128Z" fill="#102048"/>
<path d="M465.912 289.591H425.333C423.969 289.591 422.863 288.485 422.863 287.121V258.821C422.863 257.457 423.969 256.352 425.333 256.352H465.912C467.276 256.352 468.382 257.457 468.382 258.821V287.121C468.382 288.485 467.276 289.591 465.912 289.591Z" fill="white"/>
<path d="M441.334 217.302L440.275 227.396C440.071 229.332 440.839 231.241 442.311 232.463C444.325 234.134 447.193 234.153 449.227 232.507L449.32 232.432C450.867 231.181 451.655 229.181 451.394 227.174L450.083 217.123L441.334 217.302Z" fill="#FFCEAE"/>
<path d="M441.143 219.379C444.232 225.436 447.72 225.559 450.382 219.532L444.906 218.828L441.143 219.379Z" fill="#102048"/>
<path d="M445.843 221.581C449.923 221.581 453.23 217.253 453.23 211.914C453.23 206.574 449.923 202.246 445.843 202.246C441.762 202.246 438.455 206.574 438.455 211.914C438.455 217.253 441.762 221.581 445.843 221.581Z" fill="#FFCEAE"/>
<path d="M454.451 210.322C454.451 210.322 447.047 210.2 444.6 204.204C444.6 204.204 440.623 205.611 439.582 210.751L436.768 211.73L436.707 203.653L442.948 199.676L448.516 199.798L453.411 203.898L454.451 210.322Z" fill="#102048"/>
<path d="M440.619 211.137C441.444 212.727 441.018 214.583 439.668 215.283C438.318 215.983 436.555 215.262 435.731 213.672C434.906 212.082 435.332 210.226 436.682 209.525C438.032 208.825 439.795 209.547 440.619 211.137Z" fill="#FFCEAE"/>
<path d="M451.334 211.137C450.509 212.727 450.935 214.583 452.285 215.283C453.635 215.983 455.398 215.262 456.222 213.672C457.047 212.082 456.621 210.226 455.271 209.525C453.921 208.825 452.158 209.547 451.334 211.137Z" fill="#FFCEAE"/>
</svg>
