<svg width="18" height="18" viewBox="0 0 18 18" fill="none" xmlns="http://www.w3.org/2000/svg">
<g clip-path="url(#clip0_879_21318)">
<path opacity="0.7" d="M11.5601 2.24138L11.7154 2.65613L11.8706 2.24138C11.9355 2.06817 12.0367 1.91089 12.1675 1.78015C12.2983 1.64941 12.4556 1.54825 12.6289 1.4835L13.0414 1.32825L12.6289 1.173C12.4558 1.10808 12.2986 1.0068 12.1679 0.876007C12.0372 0.745209 11.9361 0.587924 11.8714 0.41475L11.7161 0L11.5601 0.41475C11.4954 0.587924 11.3943 0.745209 11.2636 0.876007C11.1329 1.0068 10.9757 1.10808 10.8026 1.173L10.3879 1.32825L10.8026 1.4835C10.9757 1.54834 11.1329 1.64954 11.2636 1.78028C11.3942 1.91101 11.4954 2.06825 11.5601 2.24138ZM14.439 3.7665L14.5564 4.08075L14.6726 3.7665C14.7217 3.63512 14.7985 3.5158 14.8976 3.41663C14.9968 3.31745 15.1161 3.24072 15.2475 3.19162L15.5618 3.07387L15.2475 2.95613C15.1161 2.90703 14.9968 2.8303 14.8976 2.73112C14.7985 2.63195 14.7217 2.51263 14.6726 2.38125L14.5549 2.067L14.4375 2.38125C14.3883 2.51257 14.3115 2.63183 14.2124 2.73099C14.1132 2.83015 13.9939 2.90692 13.8626 2.95613L13.548 3.07387L13.8626 3.19162C13.9942 3.24065 14.1138 3.31733 14.2132 3.41651C14.3126 3.51568 14.3896 3.63503 14.439 3.7665ZM16.1959 2.0205L16.3133 2.33513L16.431 2.0205C16.4802 1.88918 16.557 1.76992 16.6561 1.67076C16.7553 1.5716 16.8746 1.49483 17.0059 1.44563L17.3201 1.32825L17.0059 1.2105C16.8745 1.1614 16.7552 1.08467 16.656 0.985497C16.5568 0.88632 16.4801 0.767008 16.431 0.635625L16.3133 0.321375L16.1959 0.635625C16.1467 0.766947 16.0699 0.886203 15.9707 0.985366C15.8716 1.08453 15.7523 1.1613 15.621 1.2105L15.3064 1.32825L15.621 1.44563C15.7522 1.49496 15.8714 1.57177 15.9706 1.67092C16.0697 1.77006 16.1465 1.88925 16.1959 2.0205ZM14.628 16.2761V17.0573C14.628 17.1073 14.6379 17.1569 14.6571 17.2032C14.6764 17.2495 14.7045 17.2915 14.74 17.3268C14.7755 17.3621 14.8177 17.3901 14.864 17.4091C14.9104 17.4281 14.96 17.4377 15.0101 17.4375H16.4726C16.5735 17.4375 16.6702 17.3974 16.7415 17.3261C16.8128 17.2548 16.8529 17.1581 16.8529 17.0573V15.5516C16.6115 15.7942 16.3222 15.9838 16.0036 16.1086C15.6849 16.2333 15.3438 16.2904 15.0019 16.2761H14.628ZM0.472125 15.5295V17.0573C0.472125 17.1581 0.512187 17.2548 0.583498 17.3261C0.654809 17.3974 0.751527 17.4375 0.852375 17.4375H2.31488C2.41572 17.4375 2.51244 17.3974 2.58375 17.3261C2.65506 17.2548 2.69513 17.1581 2.69513 17.0573V16.2761H2.3445C1.99736 16.2911 1.651 16.2323 1.32825 16.1036C1.0055 15.9749 0.71371 15.7792 0.472125 15.5295ZM0.483 14.0062C0.483 15.084 1.233 15.7121 2.3445 15.7121H15.0011C16.1111 15.7121 16.8626 15.084 16.8626 14.0062V13.695H0.483V14.0062ZM17.0351 7.06875L16.0976 6.906C16.0227 6.89293 15.9456 6.90551 15.8788 6.94172C15.812 6.97793 15.7593 7.03564 15.7294 7.1055L15.4376 7.76513L15.3191 7.58438L14.4971 5.64375C14.3645 5.32893 14.154 5.05304 13.8854 4.84205C13.6167 4.63107 13.2988 4.49193 12.9615 4.43775C11.5422 4.22226 10.1082 4.11756 8.67263 4.12462C7.23714 4.11792 5.8033 4.22298 4.38413 4.43887C4.04653 4.49279 3.72822 4.63181 3.45923 4.8428C3.19023 5.0538 2.9794 5.32984 2.84663 5.64488L2.0265 7.5825L1.90988 7.76062L1.61625 7.10363C1.5863 7.03376 1.53365 6.97605 1.46681 6.93985C1.39998 6.90364 1.32288 6.89105 1.248 6.90412L0.310125 7.06875C0.223487 7.08275 0.144675 7.12718 0.0878372 7.19405C0.0309995 7.26092 -0.000142697 7.34586 4.91583e-07 7.43362V7.61775C1.8128e-05 7.70225 0.0289225 7.78421 0.0819194 7.85003C0.134916 7.91585 0.208821 7.96158 0.291375 7.97962L1.57538 8.27325L0.960375 9.21075C0.649134 9.68541 0.483343 10.2407 0.483375 10.8083V13.1332H16.8626V10.8083C16.8625 10.2406 16.6966 9.68537 16.3853 9.21075L15.768 8.26875L17.0543 7.97888C17.1368 7.96083 17.2107 7.9151 17.2637 7.84928C17.3167 7.78346 17.3456 7.7015 17.3456 7.617V7.43287C17.3456 7.34519 17.3143 7.26038 17.2574 7.19366C17.2005 7.12693 17.1217 7.08265 17.0351 7.06875ZM3.366 5.86462C3.46075 5.6371 3.6122 5.43764 3.80593 5.28528C3.99965 5.13291 4.22918 5.03271 4.47263 4.99425C5.86256 4.78329 7.26679 4.68061 8.67263 4.68712C10.0785 4.68061 11.4827 4.78329 12.8726 4.99425C13.1159 5.03283 13.3452 5.13304 13.5388 5.28532C13.7324 5.43761 13.8837 5.63691 13.9785 5.86425L14.6104 7.3545H2.73413L3.366 5.86462ZM2.17313 11.3021C2.06289 11.2861 1.96002 11.2372 1.87784 11.162C1.79567 11.0868 1.73798 10.9886 1.71225 10.8802C1.67835 10.7538 1.66506 10.6228 1.67288 10.4921C1.70325 10.1546 1.80938 9.9885 2.02388 9.9885C2.02388 9.9885 3.49463 10.08 3.69338 10.1411C3.89213 10.2022 4.65488 11.6524 4.65488 11.6524L2.17313 11.3021ZM11.5946 11.8646L8.65463 12.0326L5.75063 11.8688L5.01 10.2979C5.01 10.2979 7.61888 10.5251 8.67225 10.5251C9.72563 10.5251 12.3353 10.2979 12.3353 10.2979L11.5946 11.8646ZM15.6326 10.8817C15.6069 10.9901 15.5492 11.0883 15.467 11.1635C15.3849 11.2387 15.282 11.2876 15.1718 11.3036L12.69 11.6539C12.69 11.6539 13.4531 10.2038 13.6519 10.1426C13.8506 10.0815 15.321 9.99 15.321 9.99C15.5359 9.99 15.6416 10.1576 15.672 10.4936C15.6798 10.6243 15.6665 10.7553 15.6326 10.8817Z" fill="#E31837"/>
</g>
<defs>
<clipPath id="clip0_879_21318">
<rect width="18" height="18" fill="white"/>
</clipPath>
</defs>
</svg>
