<svg width="18" height="18" viewBox="0 0 18 18" fill="none" xmlns="http://www.w3.org/2000/svg">
<g clip-path="url(#clip0_1124_24066)">
<g opacity="0.7">
<path d="M9.00021 6.43032C8.3645 6.43032 7.74306 6.24175 7.21448 5.88847C6.68591 5.53518 6.27393 5.03304 6.03065 4.44555C5.78738 3.85805 5.72372 3.21159 5.84774 2.58791C5.97177 1.96423 6.27789 1.39135 6.72741 0.9417C7.17693 0.492052 7.74965 0.185837 8.37315 0.0617798C8.99665 -0.0622778 9.64292 0.00139307 10.2302 0.244741C10.8176 0.488089 11.3196 0.900184 11.6727 1.42891C12.0259 1.95764 12.2144 2.57926 12.2144 3.21516C12.2131 4.06746 11.874 4.88445 11.2715 5.48712C10.669 6.08978 9.85226 6.42896 9.00021 6.43032ZM10.2859 2.89043H9.32163V1.92588C9.32163 1.84061 9.28777 1.75883 9.22749 1.69854C9.16721 1.63824 9.08546 1.60437 9.00021 1.60437C8.91497 1.60437 8.83321 1.63824 8.77293 1.69854C8.71265 1.75883 8.67879 1.84061 8.67879 1.92588V2.89043H7.71452C7.62927 2.89043 7.54752 2.9243 7.48724 2.9846C7.42696 3.0449 7.3931 3.12667 7.3931 3.21195C7.3931 3.29722 7.42696 3.379 7.48724 3.43929C7.54752 3.49959 7.62927 3.53346 7.71452 3.53346H8.67879V4.49801C8.67879 4.58328 8.71265 4.66506 8.77293 4.72535C8.83321 4.78565 8.91497 4.81952 9.00021 4.81952C9.08546 4.81952 9.16721 4.78565 9.22749 4.72535C9.28777 4.66506 9.32163 4.58328 9.32163 4.49801V3.53346H10.2859C10.3711 3.53346 10.4529 3.49959 10.5132 3.43929C10.5735 3.379 10.6073 3.29722 10.6073 3.21195C10.6073 3.12667 10.5735 3.0449 10.5132 2.9846C10.4529 2.9243 10.3711 2.89043 10.2859 2.89043ZM13.0051 14.0151L13.7139 16.0043L3.99976 16.071L4.95832 14.0151H13.0051Z" fill="#E31837"/>
<path d="M0.0484556 10.945C0.124991 10.654 0.286058 10.3921 0.511303 10.1926C1.14772 9.66214 1.86449 9.03197 2.21484 8.68152H1.19915C0.967703 8.68152 0.745738 8.58955 0.582082 8.42585C0.418426 8.26215 0.326485 8.04012 0.326485 7.8086C0.326485 7.57709 0.418426 7.35506 0.582082 7.19136C0.745738 7.02766 0.967703 6.93569 1.19915 6.93569C1.68128 6.96141 2.57805 6.82637 2.98304 7.13503C3.26911 6.41483 3.61303 5.53388 3.8766 4.85227C3.98728 4.58378 4.16908 4.35058 4.40243 4.17778C4.63578 4.00499 4.91183 3.89914 5.20086 3.87164C5.23536 4.08748 5.29024 4.29956 5.36479 4.50503H5.36157C5.17234 4.50348 4.98693 4.5583 4.82894 4.6625C4.67096 4.76671 4.54756 4.91559 4.47445 5.09019C4.39088 5.31846 3.05054 8.63651 3.02483 8.68152H14.975C14.9493 8.63651 13.6154 5.32811 13.5286 5.09983C13.4566 4.92305 13.3333 4.7719 13.1746 4.66588C13.0159 4.55986 12.8291 4.50384 12.6383 4.50503H12.635C12.7096 4.29956 12.7645 4.08748 12.799 3.87164C13.0891 3.89977 13.366 4.00656 13.5999 4.18049C13.8339 4.35443 14.0159 4.58892 14.1264 4.8587C14.3868 5.5371 14.7307 6.41483 15.0168 7.13503C15.4186 6.82316 16.3282 6.96463 16.8007 6.93569C17.0321 6.93569 17.2541 7.02766 17.4178 7.19136C17.5814 7.35506 17.6733 7.57709 17.6733 7.8086C17.6733 8.04012 17.5814 8.26215 17.4178 8.42585C17.2541 8.58955 17.0321 8.68152 16.8007 8.68152H15.785C16.1386 9.03519 16.8553 9.66536 17.5046 10.2087C17.7207 10.4059 17.8748 10.6617 17.9482 10.945C18.0414 11.0254 17.9771 14.2695 17.9932 14.4656C17.994 14.7785 17.9035 15.0848 17.7328 15.3469C17.562 15.6091 17.3185 15.8157 17.0321 15.9414C16.8289 16.0281 16.6102 16.073 16.3893 16.0732H13.6893L13.0593 14.3563C13.0368 14.2942 12.9957 14.2405 12.9417 14.2026C12.8876 14.1646 12.8232 14.1442 12.7572 14.1441H5.1684C5.10101 14.1439 5.03528 14.1649 4.98048 14.2041C4.92569 14.2434 4.88461 14.2988 4.86305 14.3627L4.27806 16.0732H1.61025C1.38928 16.073 1.17063 16.0281 0.967402 15.9414C0.680995 15.8153 0.437382 15.6087 0.26619 15.3467C0.0949989 15.0847 0.00360755 14.7786 0.00313345 14.4656C0.0224188 14.2598 -0.0383285 11.0318 0.0484556 10.945ZM13.0208 12.6908C13.0476 12.7425 13.0883 12.7858 13.1382 12.8159C13.1881 12.8459 13.2453 12.8616 13.3036 12.8612H15.425C15.8512 12.8611 16.2599 12.6916 16.5612 12.3902C16.8626 12.0887 17.0319 11.68 17.0321 11.2536C17.0319 11.1685 16.9979 11.0868 16.9377 11.0266C16.8775 10.9663 16.7959 10.9324 16.7107 10.9321H14.1618C14.1092 10.9323 14.0574 10.9453 14.011 10.97C13.9645 10.9946 13.9247 11.0302 13.895 11.0736L13.0368 12.3597C13.0037 12.4079 12.9847 12.4645 12.9818 12.523C12.979 12.5814 12.9925 12.6396 13.0208 12.6908ZM5.11376 11.4337L5.96874 12.7198C5.99842 12.7632 6.03821 12.7988 6.08469 12.8234C6.13116 12.8481 6.18292 12.861 6.23552 12.8612H11.7611C11.8137 12.861 11.8655 12.8481 11.9119 12.8234C11.9584 12.7988 11.9982 12.7632 12.0279 12.7198L12.8861 11.4337C12.9183 11.3852 12.9368 11.3289 12.9397 11.2707C12.9425 11.2126 12.9296 11.1547 12.9023 11.1033C12.8749 11.0519 12.8342 11.0088 12.7844 10.9787C12.7346 10.9486 12.6775 10.9325 12.6193 10.9321H5.38086C5.32273 10.9327 5.26582 10.9489 5.21614 10.9791C5.16645 11.0093 5.12581 11.0523 5.09851 11.1036C5.0712 11.155 5.05824 11.2127 5.06098 11.2708C5.06372 11.3289 5.08174 11.3852 5.11376 11.4337ZM2.57452 12.8612H4.69591C4.75378 12.86 4.81029 12.8434 4.8596 12.8131C4.90891 12.7828 4.94924 12.7399 4.97643 12.6888C5.00362 12.6376 5.01668 12.5802 5.01426 12.5223C5.01185 12.4645 4.99404 12.4083 4.96269 12.3597L4.10449 11.0736C4.0748 11.0302 4.03501 10.9946 3.98854 10.97C3.94207 10.9453 3.89031 10.9323 3.83771 10.9321H1.28882C1.20366 10.9324 1.12205 10.9663 1.06183 11.0266C1.0016 11.0868 0.967656 11.1685 0.967402 11.2536C0.967572 11.68 1.13695 12.0887 1.4383 12.3902C1.73966 12.6916 2.14833 12.8611 2.57452 12.8612ZM17.7328 15.3469L17.6727 17.0361C17.6719 17.2916 17.5701 17.5364 17.3895 17.717C17.2089 17.8976 16.9642 17.9993 16.7088 18H14.7815C14.5262 17.9993 14.2815 17.8975 14.101 17.7169C13.9204 17.5362 13.8186 17.2915 13.8179 17.0361L13.6893 16.0732H16.3893C16.8487 16.0747 17.3559 15.6098 17.7328 15.3469ZM4.27806 16.0732L4.18067 17.0361C4.1799 17.2915 4.07813 17.5362 3.89758 17.7169C3.71703 17.8975 3.47237 17.9993 3.21704 18H1.28979C1.0344 17.9993 0.789657 17.8976 0.609038 17.717C0.428419 17.5364 0.326606 17.2916 0.325842 17.0361V15.4319C0.702919 15.6944 1.15085 16.074 1.61025 16.0732H4.27806Z" fill="#E31837"/>
</g>
</g>
<defs>
<clipPath id="clip0_1124_24066">
<rect width="18" height="18" fill="white"/>
</clipPath>
</defs>
</svg>
