<svg width="16" height="21" viewBox="0 0 16 21" fill="none" xmlns="http://www.w3.org/2000/svg">
<path d="M5.92116 20.1506C5.86194 20.1508 5.80356 20.1366 5.75096 20.1094C5.69835 20.0822 5.65307 20.0427 5.61894 19.9943C5.12938 19.3015 4.82808 18.4934 4.74453 17.6492C4.66098 16.8049 4.79803 15.9535 5.14228 15.1781C5.16201 15.1336 5.19034 15.0934 5.22564 15.0599C5.26093 15.0263 5.30251 15.0001 5.34797 14.9827C5.39343 14.9653 5.44188 14.957 5.49054 14.9584C5.53921 14.9598 5.58712 14.9707 5.63153 14.9907C5.8182 15.0747 5.9019 15.2929 5.81857 15.4803C5.52657 16.1379 5.41034 16.8601 5.48123 17.5761C5.55213 18.2921 5.80773 18.9775 6.22301 19.5651C6.26243 19.6205 6.28583 19.6857 6.29065 19.7536C6.29548 19.8214 6.28155 19.8893 6.25038 19.9498C6.21921 20.0102 6.17201 20.061 6.11395 20.0964C6.05588 20.1318 5.98918 20.1506 5.92116 20.1506ZM8.97152 20.1506C8.90493 20.1508 8.83953 20.133 8.78224 20.0991C8.72494 20.0652 8.67786 20.0164 8.646 19.9579C8.61413 19.8995 8.59864 19.8335 8.60118 19.7669C8.60372 19.7004 8.62418 19.6358 8.66041 19.5799C10.5004 16.7218 9.94892 12.8907 7.37708 10.6685C7.30272 10.6042 7.25693 10.5131 7.24978 10.4151C7.24262 10.3171 7.27469 10.2202 7.33893 10.1459C7.40318 10.0715 7.49432 10.0257 7.59233 10.0186C7.69033 10.0114 7.78717 10.0435 7.86153 10.1077C10.71 12.5699 11.3215 16.814 9.283 19.9803C9.24968 20.0326 9.20364 20.0757 9.14918 20.1055C9.09472 20.1353 9.0336 20.1508 8.97152 20.1506Z" fill="#E31837" stroke="#E31837" stroke-width="0.3"/>
<path d="M5.4784 15.7003C5.41666 15.7002 5.35592 15.6847 5.30169 15.6552C5.24746 15.6257 5.20148 15.5831 5.16791 15.5313C5.13435 15.4795 5.11427 15.4201 5.1095 15.3585C5.10474 15.297 5.11544 15.2352 5.14063 15.1788C5.53148 14.3076 5.73296 13.3633 5.73174 12.4085C5.73174 12.3102 5.77076 12.216 5.84021 12.1466C5.90967 12.0771 6.00388 12.0381 6.1021 12.0381C6.20033 12.0381 6.29454 12.0771 6.364 12.1466C6.43345 12.216 6.47247 12.3102 6.47247 12.4085C6.47372 13.4676 6.25028 14.515 5.81692 15.4814C5.78766 15.5467 5.74012 15.6021 5.68005 15.6409C5.61998 15.6798 5.54994 15.7004 5.4784 15.7003Z" fill="#E31837" stroke="#E31837" stroke-width="0.3"/>
<path d="M6.91212 15.6506C6.89953 15.6506 6.88693 15.6499 6.87397 15.6491C6.77621 15.6389 6.68647 15.5904 6.6244 15.5142C6.56234 15.438 6.53302 15.3403 6.54286 15.2425C6.63936 14.3107 6.37624 13.3773 5.80731 12.6332C5.77781 12.5945 5.75622 12.5504 5.74377 12.5034C5.73133 12.4563 5.72827 12.4073 5.73477 12.3591C5.74127 12.3109 5.7572 12.2644 5.78166 12.2223C5.80611 12.1803 5.83862 12.1434 5.87731 12.1139C5.916 12.0844 5.96012 12.0629 6.00716 12.0504C6.05419 12.038 6.10322 12.0349 6.15143 12.0414C6.19965 12.0479 6.24612 12.0638 6.28818 12.0883C6.33024 12.1128 6.36707 12.1453 6.39657 12.1839C7.07932 13.0779 7.39525 14.1987 7.27989 15.3176C7.2708 15.4089 7.22813 15.4935 7.16016 15.555C7.0922 15.6165 7.0038 15.6506 6.91212 15.6506Z" fill="#E31837" stroke="#E31837" stroke-width="0.3"/>
<path d="M6.91789 15.6507C6.84843 15.6508 6.78038 15.6312 6.72151 15.5944C6.66264 15.5575 6.61533 15.5048 6.585 15.4423C6.55467 15.3799 6.54254 15.3101 6.54999 15.241C6.55744 15.172 6.58418 15.1064 6.62715 15.0519C7.12191 14.4203 7.44263 13.6703 7.55738 12.8763C7.67214 12.0823 7.57692 11.2721 7.28122 10.5263C7.26278 10.4811 7.25349 10.4326 7.25388 10.3837C7.25427 10.3348 7.26432 10.2865 7.28347 10.2415C7.30262 10.1966 7.33048 10.1558 7.36544 10.1217C7.40041 10.0875 7.44179 10.0606 7.4872 10.0426C7.5326 10.0245 7.58114 10.0156 7.63002 10.0163C7.67889 10.0171 7.72712 10.0275 7.77194 10.047C7.81677 10.0665 7.85729 10.0947 7.89117 10.1299C7.92505 10.1651 7.95163 10.2067 7.96936 10.2522C8.31297 11.1186 8.42365 12.0598 8.29037 12.9822C8.1571 13.9046 7.78452 14.776 7.20974 15.5096C7.1364 15.6022 7.02788 15.6507 6.91789 15.6507ZM10.9779 7.60522C10.9086 7.60515 10.8408 7.58565 10.782 7.54895C10.7233 7.51225 10.676 7.45981 10.6456 7.3976C10.6151 7.33538 10.6028 7.26587 10.6098 7.19697C10.6169 7.12807 10.6432 7.06254 10.6856 7.00782C11.0074 6.595 11.2099 6.1019 11.2712 5.58209C11.3324 5.06227 11.2501 4.53562 11.0331 4.05931C11.0129 4.01509 11.0017 3.96733 11 3.91876C10.9984 3.87019 11.0063 3.82177 11.0234 3.77629C11.0405 3.7308 11.0665 3.68913 11.0997 3.65368C11.1329 3.61823 11.1728 3.58968 11.2171 3.56969C11.2613 3.54942 11.3091 3.5381 11.3577 3.53637C11.4063 3.53464 11.4548 3.54254 11.5003 3.55961C11.5459 3.57668 11.5876 3.60259 11.6231 3.63585C11.6586 3.66911 11.6871 3.70905 11.7071 3.75339C11.9803 4.35244 12.084 5.0149 12.0071 5.66878C11.9302 6.32266 11.6756 6.94296 11.2708 7.46226C11.2361 7.50686 11.1917 7.54293 11.1409 7.56771C11.0901 7.59249 11.0344 7.60532 10.9779 7.60522Z" fill="#E31837" stroke="#E31837" stroke-width="0.3"/>
<path d="M10.9738 7.60452C10.8868 7.60459 10.8025 7.57394 10.7359 7.51797C10.6693 7.462 10.6246 7.38431 10.6097 7.2986C10.3734 5.95034 9.83991 4.6716 9.04799 3.55514C8.25606 2.43868 7.22554 1.5125 6.03118 0.843812C5.94552 0.79568 5.8825 0.715493 5.85597 0.620892C5.82943 0.526291 5.84157 0.425024 5.8897 0.339369C5.93783 0.253715 6.01802 0.190688 6.11262 0.164155C6.20722 0.137622 6.30849 0.149757 6.39414 0.197888C7.68409 0.92018 8.79708 1.92056 9.65236 3.12645C10.5076 4.33234 11.0838 5.71349 11.3389 7.16971C11.3485 7.22304 11.3462 7.27781 11.3322 7.33015C11.3183 7.3825 11.293 7.43113 11.2581 7.47262C11.2233 7.5141 11.1798 7.54742 11.1306 7.57021C11.0815 7.59301 11.0279 7.60472 10.9738 7.60452ZM3.686 8.42563C3.60053 8.42551 3.51773 8.39583 3.45164 8.34163C3.38556 8.28742 3.34025 8.21202 3.32341 8.12823C3.16485 7.34433 2.81796 6.61077 2.31268 5.99083C2.25065 5.91465 2.22142 5.81695 2.23142 5.71923C2.24142 5.6215 2.28983 5.53175 2.36601 5.46972C2.44219 5.40769 2.53988 5.37846 2.63761 5.38846C2.73534 5.39846 2.82509 5.44688 2.88712 5.52305C3.46785 6.23685 3.86678 7.08085 4.04971 7.98267C4.06045 8.03644 4.05913 8.09193 4.04582 8.14513C4.03252 8.19833 4.00756 8.24791 3.97277 8.29029C3.93797 8.33267 3.89419 8.3668 3.8446 8.3902C3.79501 8.41361 3.74084 8.42571 3.686 8.42563Z" fill="#E31837" stroke="#E31837" stroke-width="0.3"/>
<path d="M3.68534 8.4248C3.61655 8.42472 3.54915 8.40548 3.49069 8.36924C3.43223 8.33301 3.38501 8.28121 3.35432 8.21965C3.32364 8.15809 3.31071 8.08921 3.31697 8.02071C3.32323 7.95221 3.34844 7.88682 3.38978 7.83184C4.97175 5.72149 5.83141 3.15746 5.84125 0.520019C5.8413 0.47143 5.85092 0.423327 5.86956 0.378455C5.8882 0.333583 5.91549 0.292822 5.94988 0.258499C5.98428 0.224176 6.02509 0.196963 6.07 0.178414C6.11491 0.159864 6.16303 0.150342 6.21162 0.150391H6.21236C6.261 0.150488 6.30914 0.160164 6.35404 0.178867C6.39894 0.197569 6.43971 0.224932 6.47404 0.259393C6.50836 0.293854 6.53556 0.334737 6.55408 0.37971C6.5726 0.424682 6.58209 0.472863 6.58199 0.5215C6.57153 3.31912 5.65967 6.03887 3.98163 8.27739C3.947 8.32319 3.90222 8.36034 3.85081 8.38591C3.7994 8.41149 3.74276 8.4248 3.68534 8.4248ZM14.5594 12.524H14.5434C14.4453 12.5199 14.3528 12.477 14.2864 12.4047C14.2199 12.3324 14.1849 12.2366 14.189 12.1385C14.2483 10.6689 14.0048 9.20279 13.4737 7.83123C12.9426 6.45968 12.1352 5.21196 11.1016 4.16556C11.0324 4.09572 10.9939 4.00127 10.9944 3.90299C10.9948 3.8047 11.0344 3.71064 11.1042 3.64149C11.174 3.57234 11.2685 3.53376 11.3668 3.53425C11.465 3.53473 11.5591 3.57424 11.6283 3.64408C12.7333 4.76318 13.5965 6.09748 14.1643 7.56414C14.7321 9.0308 14.9924 10.5985 14.929 12.17C14.925 12.2653 14.8843 12.3553 14.8154 12.4213C14.7465 12.4873 14.6548 12.5241 14.5594 12.524Z" fill="#E31837" stroke="#E31837" stroke-width="0.3"/>
<path d="M8.9734 20.151C8.88616 20.1512 8.80166 20.1205 8.73481 20.0644C8.66796 20.0084 8.62305 19.9305 8.608 19.8446C8.59294 19.7586 8.60871 19.6701 8.65252 19.5947C8.69634 19.5192 8.76538 19.4617 8.84748 19.4321C10.3629 18.8868 11.681 17.9014 12.6328 16.6022C13.5847 15.303 14.1271 13.7493 14.1904 12.14C14.1989 11.9359 14.3723 11.7681 14.576 11.7855C14.7804 11.7933 14.9389 11.9663 14.9304 12.1711C14.8613 13.9272 14.2694 15.6228 13.2307 17.0405C12.192 18.4582 10.7537 19.5336 9.10007 20.1288C9.05822 20.1436 9.01562 20.151 8.9734 20.151ZM5.92268 20.151C5.89564 20.151 5.86823 20.1481 5.84008 20.1418C3.52009 19.6158 1.53492 17.9159 0.658995 15.7051C-0.13952 13.6918 0.00899827 11.3585 1.05677 9.46367C1.10673 9.38242 1.18607 9.32355 1.27831 9.2993C1.37054 9.27504 1.46858 9.28727 1.55204 9.33343C1.6355 9.3796 1.69795 9.45615 1.72642 9.54717C1.7549 9.6382 1.74719 9.73669 1.70492 9.82219C0.76344 11.5244 0.629736 13.6222 1.34751 15.4318C2.13491 17.4181 3.91898 18.9458 6.00416 19.4184C6.09333 19.4383 6.17203 19.4904 6.22513 19.5648C6.27824 19.6391 6.30203 19.7305 6.29193 19.8213C6.28183 19.9121 6.23856 19.996 6.17041 20.0568C6.10226 20.1177 6.01404 20.1512 5.92268 20.151Z" fill="#E31837" stroke="#E31837" stroke-width="0.3"/>
<path d="M1.37851 10.0129C1.31415 10.0127 1.25094 9.99575 1.19511 9.96373C1.13927 9.93172 1.09274 9.88572 1.06008 9.83026C1.02741 9.7748 1.00975 9.7118 1.00883 9.64744C1.0079 9.58309 1.02375 9.5196 1.0548 9.46323C1.69572 8.3073 2.09539 7.03332 2.22961 5.71843C2.2346 5.67001 2.24907 5.62305 2.27221 5.58022C2.29534 5.5374 2.32669 5.49955 2.36445 5.46884C2.40221 5.43813 2.44565 5.41515 2.49229 5.40123C2.53893 5.38731 2.58786 5.38271 2.63628 5.38769C2.6847 5.39268 2.73166 5.40715 2.77449 5.43029C2.81731 5.45342 2.85516 5.48476 2.88587 5.52253C2.91658 5.56029 2.93956 5.60373 2.95348 5.65037C2.9674 5.69701 2.972 5.74594 2.96702 5.79436C2.82255 7.20836 2.39265 8.57835 1.70332 9.82138C1.67119 9.87938 1.62413 9.92772 1.56701 9.96139C1.5099 9.99506 1.44481 10.0128 1.37851 10.0129Z" fill="#E31837" stroke="#E31837" stroke-width="0.3"/>
</svg>
